<?xml version="1.0" encoding="utf-8"?>
<!-- Generator: Adobe Illustrator 23.1.0, SVG Export Plug-In . SVG Version: 6.00 Build 0)  -->
<svg version="1.1" id="Layer_1" xmlns="http://www.w3.org/2000/svg" xmlns:xlink="http://www.w3.org/1999/xlink" x="0px" y="0px"
	 viewBox="0 0 2560 1600" style="enable-background:new 0 0 2560 1600;" xml:space="preserve">
<style type="text/css">
	.st0{fill:url(#SVGID_1_);}
</style>
<title>fondoalaaguila</title>
<linearGradient id="SVGID_1_" gradientUnits="userSpaceOnUse" x1="-1.320186e-05" y1="800.0061" x2="2560" y2="800.0061">
	<stop  offset="0" style="stop-color:#B38E5D"/>
	<stop  offset="1" style="stop-color:#FFFFFF;stop-opacity:0"/>
</linearGradient>
<path class="st0" d="M222.4,0c486.6,13.8,746,102,1144.6,274.5c51.4,15.5,99.3,15.1,151.5,14.9c105.9,10.2-60.9,82.5-85.3,87.3
	c-47.3,15.1-96.2,21.6-147,20.4c-48.3-2.4-96.6-6.8-141.5-23.4c-1.8-20.3,8.9-52,15.3-65c19.3-22.6,30.5,63.2,92.6,63.5
	c38,5.3,129.6-3.2,92.8-54.3c-81.3-48.3-169.6-87.3-257.8-122.9C849.6,101,596.4,52.4,340.9,35.5c-58.9-3.3-117.7-9.8-175.5-4.5
	C102.3,41.3,15,66.1,75.8,134.2C204.1,210.6,399.4,226.4,478,337c76.5,112.8,142.7,344.7,133.5,443.8c-4.1,98-52.1,141-103.4,193
	c-29.5,26.8-130.6,105.2-139.6,44.2c-5.4-33.6,34.1-42.6,53.8-61.3c47.6-36.4,91.4-77.3,113.1-135.2c30.7-85.5-3-176.8-25.6-260.5
	c-26.5-93.5-55.4-167.5-124.4-225.7C230.2,218.5,87.1,218.7,32.7,162.5C-30.2,104,5.7,35.6,72.7,12.4C119.9-6.7,177.6,7.3,222.4,0z
	 M2560,1372.8c-27.8,18.7-59.1,10.8-90.3,13.5c-144.3,2.4-277.5-45-373.9-148.7c-221.7-262.3-448.5-523.7-739.3-701.4
	c-22.8-14.6-72.4-33.9-58.7-64.5c13.5-4.2,38.8,21.5,48.4,25.3c331.3,211.8,526.4,374.8,742.3,650.7
	c31.1,43.2,260.4,227.2,271.2,132.2c-2.2-24.7-22.8-47-34.1-70.1c-184.4-317.4-431.7-589.5-739.3-777.6
	c-16.6-11.6-48.9-24.9-52.4-40.4c12.2-23.5,66.9,18.3,77.7,23.2c247.6,145.6,468.7,337.2,642.7,565.7
	C2460.7,1256.5,2378.6,1250,2560,1372.8z M1932.2,1282.8c-70.3,2.8-114.2-46.3-161.9-89c-96.3-85-188.1-172.9-282.8-259
	c-211.5-193.7-225.4-140.8-212.2-217c-3.9-32.9,228.2,162.9,233.9,162.9c87.1,69,171.8,143.1,249,224.7
	c33.9,28.9,109.8,154,151.5,99.7c22.8-28.4-152.4-190.7-162.4-205.1c-289.2-286.4-458.2-339.3-448.9-399.2
	c-2.1-21.9,27.6,5.7,35.4,8.5c253.4,155.1,488.4,343.3,654.4,593.8C2022,1252.7,1971.1,1284.5,1932.2,1282.8z M1413.1,436.2
	c66.5,8.3,118.6,63.5,175.6,95.1c222.3,149.2,423,330.5,586.3,543.4c14.7,22.4,133.5,163.6,77.2,157.8
	c-30.6,0.1-44.7-27.2-61.9-48.4c-26.5-33.6-52.6-65.9-79.9-98.7c-262.6-315-459.7-474-716.2-643.5
	C1398,438.4,1406.8,436.3,1413.1,436.2z M1593.8,1317.7c-109.2,8.5-225.3-134.3-296-187.2c-120.8-108.8-177.7-134.6-133.5-165.3
	c17.3,2.1,29.7,22.9,45.4,33c317.6,264.6,359.9,321.5,426.6,248.7c29-39.5-86.6-123.2-102-145.4c-188.3-179.3-314.6-235.8-302-264
	c2.9-20.3,12.6-8.7,23.8-2.1c41,26.2,78.6,51,118,78.7C1459,970,1900.3,1313.2,1593.8,1317.7z M80.3,1312.6
	c-1-33.4-4.3-69.7,38.3-50.7c15.5,14.4,4.2,60.3,8,74.9c3.5,57.8,12,157,54.5,163.9c109.5,21.4,70-134.5,54.6-189.1
	c-6.6-20.5-47-112.5-9.6-104.9c25.8,18,45.1,74.7,55,89.5c42.8,95,56.3,184.3-20.4,247.7C104.4,1658.8,77.9,1406.8,80.3,1312.6z
	 M1310.4,1392.5c-119-5.3-152.5-49.3-229.9-109.4c-81.3-72-110.4-81.1-81.9-110.9c79.5,41.5,264.9,244.8,339.2,142.4
	c26.8-42-148.1-177.3-165.2-190.8c-18.3-15-125.2-76.2-48.5-76c120,80.2,236.5,182.8,263.7,230.4
	C1443.3,1409.6,1310.4,1384.6,1310.4,1392.5z M872.7,668.1c72.4,31.4,142,70.4,215.8,98.6c75.7,10.7,81.9-75,25.4-107.6
	C996,579.7,776.3,515.7,834.1,489.3c100.5,35.3,341.9,156.6,362.1,205.8c19,49.3-19.9,128.5-60.3,130.5
	c-80.3-5.5-191.5-80.9-227.2-101.5C889.3,712.1,874.3,693.2,872.7,668.1z M751,301.5c98.3,22.1,193.2,56.1,286.5,94.7
	c75.4,31,244.8,89.3,196.2,194.5c-10.5,16.5-29.5,20.1-48.3,17.1c-20.9-4.4-36.4-16.2-55.9-26.4C861.5,426.1,806.5,447.9,802.1,417
	c-12.2-30.9,188.4,59.9,194.5,61.9c43,16.8,125.1,72.5,143,71.3c12.9,1.4,25,1.4,36.8-6c72-47.5-172.1-131.8-196.5-144.2
	C844.5,348.1,775.6,338.6,751,301.5z M182.5,949.8c0.9-24.4-20.2-134.6,26.2-99.5c21.3,92.6,4,253-18.3,297.9
	c-26.9,46.5-81.5,75.6-131.5,68.8c-99.7-6.4-40.1-223.5-23.6-269.2c14.8-51.7,39.3-39.9,34.5-16.4c-15,83.4-31.3,148.5-18.7,211.8
	c15.7,41,56.7,19.8,78.7-1C182.4,1095.5,179.4,1015.4,182.5,949.8z M1010.3,1492.6c-54.2,10.5-247.4-131-194.1-149.9
	c17.4-4.4,36.7,25.1,47.9,31c44.1,36.7,93.3,74.2,117.5,77.7c48.9,10.2,110.4-29.7,79.4-75.8c-90.7-108-151-114.4-124.8-140.6
	c18.6-25.2,176.6,136.9,184.3,148.4C1171.9,1451.5,1068,1496.8,1010.3,1492.6z M2215.6,1598.8c-101.4-1.9-90.8,8.3-109.8-20
	c-24.6-45.7-37.3-98.9-57-147.7c-11.5-37-36.8-89-33.2-103.6c6.5-25.8,61-42.3,67.3-12.9C2140.8,1461,2136.1,1500.1,2215.6,1598.8z
	 M1027.7,1028.7c-44.7-1.7-74.5-34.7-112.7-53.2c-22.5-14.3-74.5-33.8-40.9-61.8c45.8,11.2,92.7,54.3,130.1,54.7
	c18.8,0.1,33.4-13.1,37.3-34.3c12.8-42.2-94.7-97.1-109.6-110c-15.6-11.2-38-16.6-34-42.1c-1.5-25.5,122.2,65.9,129,65
	c26.8,18.2,57.1,27.7,76.7,56.8C1134.3,954.9,1062.9,1029.4,1027.7,1028.7z M672.6,1377.3c-39.1,1.5-57.2-34.5-84.7-56.1
	c-15.9-16.6-70-52.8-32.1-70c41.3,6,62.7,70.5,109.8,61.3c22.1-2.8,41.6-17.5,50.4-42.1c17.1-50.6-52.2-66.5-49.2-101.3
	c6.5-64.6,110.8,71.7,119.5,84.4C801.9,1313.2,715.4,1377.4,672.6,1377.3z M868.2,1222.6c-36.3-10.8-70.6-38.7-104.4-57.2
	c-15.8-11.3-46.2-19.3-36.5-43.4c10.4-33.6,88.6,44,107.5,38.2c33.6,4.4,71.1-29.1,63.4-65.5c-9.5-23.4-36.2-35.5-53.8-53.8
	c-31.4-19.8-21.1-57.1,3.7-43.1c62.3,30.5,164.7,93.8,98.9,166.3C919.6,1204.2,908,1217.2,868.2,1222.6z M487.4,1271.8
	c82.2,100.2,163.6,203.5,191.3,326.5c-87.3,0.3-76.7,6.6-94.2-17.3c-113-157.1-183-215.9-131.9-219.3
	c117.2,110.6,126.3,204.4,163.5,178.7c28.3-14.5-66.5-152.7-69.8-159.7C498.5,1308.6,463.7,1296.1,487.4,1271.8z M654.1,643.5
	c87.5,45.8,113.6-29.4,76.8-66.3c-18.6-24.9-122.1-47.5-104.2-71.3c5.3-4.9,7.8-2.9,15.6-0.2c93.8,38.8,118.7-17.8,126.7,5.9
	c-2.3,128.5,69.8,166.6,46,203.2C776.5,765.9,650.3,688.2,654.1,643.5z M685.4,738.5c156.4,98,154.9,24.7,129.3,140.2
	c-23.4,81.6-69.2,101.9-135,58.9c-30.8-21.3-50.6-34-17-59.8c23.9-26.3,35.2,27.1,76.2,11.2c39.2-19.5,26.5-64.9-4-83.1
	C697.8,776.7,671.1,780.3,685.4,738.5z M178.6,812.8c-78.4-26.5,20.4-52.7,24.8-88.7c7.1-28.3-10.9-57.3-20.3-82.6
	C130,525.3,41,491.3,18.1,456.2c19.9-10.8,72.6,32.1,80.7,36.5c95.1,70,104,171.3,193.3,220.4c17.5,30.5-25.1,46.2-44.4,59.8
	C223.8,786.7,204,803,178.6,812.8z M616.8,1130.1c-30.3-6.8-136-82.4-108.9-98.7c18.4-14.6,58.1,24.3,70.3,28.7
	c27.8,22.7,71.5,2.6,67.9-30.2c-5.4-20.4-28.8-29.8-43.1-45c-44-28.4-4-47.6,14.1-34.2c36.9,28,77.6,47.2,125.3,50.3
	C773,1023.8,627.6,1132.5,616.8,1130.1z M1545.7,1201.4c-71.3-43.5-412.7-301.8-376.8-315.8c0.7-35.7,270.4,190.2,271.9,193.4
	C1551.4,1183.1,1567.9,1192.7,1545.7,1201.4z M1950.8,1598.8c-25.1-2.3-52.5,4.9-75-3.4c-43.9-43-75.2-93.2-100.7-149.1
	c-18.3-45.4-48.3-89.7-32.5-119.7c4.9-13.2,14.3-19.1,23.7-10.7c30.2,39.4,43.6,85.7,69.2,126.7
	C1868.2,1501.9,1905.8,1551,1950.8,1598.8z M432.9,1232.7c-4.7,92.5-47.7,163.4-110.9,64.9c-19.2-27.9-75.7-124.4-27.3-131.4
	c44.8-23.9,56.8,19,56,48c-55.9-34.3-31.9,32.3-5.8,52.7c87.4,37.6,50.9-62.1,26.3-99.6c-8.2-18.1-13.4-35.9-6.6-55.9
	C403.9,1134.3,428.6,1189.9,432.9,1232.7z M1667.3,1598.8c-26.5-1.6-55.9,3.3-82.8-2.2c-58.4-41.3-92.7-105.3-126.5-167.2
	c-9.4-18.3-5.9-43.7,12.6-55.1c32.3-15.3,65.4,74.7,79.2,87.1C1583.9,1515.1,1626.5,1557.6,1667.3,1598.8z M171.2,107.6
	c165-20.8,309.1,11,416.6,110.8c39.8,39,96.4,84.7-0.3,70.4c-32.7-5.1-61-12.5-89.2-30.1c147.5-17.3-46-116.6-98.1-120.8
	C281,113.6,189.7,151.5,171.2,107.6z M262.4,628.2c-22.5-10.6-33.1-34.5-39.5-57.8c-5.7-116-76.8-180.2-173.2-220.8
	C-8.7,325,3.2,342.2,1.9,299.1C188.8,363.2,273.7,436.8,262.4,628.2z M1.9,1431.3c2.4-169.3-13.2-181.7,32.2-168.4
	c19,9.4,10,29.4,9,48.2c-13.9,153.6,17.3,222.6,18.1,279.6c2.5,15-56.4,7.7-58.7,6.2C0.1,1542.4,2.8,1486.7,1.9,1431.3z
	 M317.3,1036.8c4.9,56.6-65.1,116.5-86.4,117.2c-5.1-16-2.5-37.4,9.1-51.1c47.1-47.8,31.8-61.5,31.5-107.5
	c-2.2-130.4-12.2-169.8,5.4-176.2c36.3-17.3,25.6,58.5,29.9,76.3C309.6,942.4,314.7,991,317.3,1036.8z M580.3,131.8
	c70.3,7.4,106.5,46.3,154,78c35.4,18.9,66.7,1.1,48.2-38.3c72.5,4.8,101.5,96.7,80.4,101C761.1,273.8,628.5,191.2,580.3,131.8z
	 M485,791.8c4.1,71.2-128,177-123.6,112.7c1.3-20.3,38.5-39.9,48.3-53c57.9-75.6-0.9-88.7-53.7-95.6c-27.5-0.6-22.7-22.1-1.5-28.2
	C404.1,719.3,484.6,732.1,485,791.8z M1.9,883.3C4,863.6-3,841.1,6.7,829.5c60.8-27.5,49.1-92.8,30.5-141.8
	C23.3,649.5-4.8,620.6,1.9,577c55.2,57.3,104.5,175.5,96.7,241.6C84.2,857.8,29.4,871.3,1.9,883.3z M1880.8,1331.3
	c21.7-0.1,41.2,11.5,51.4,31.6c15,46.3,20.6,89.9,44.3,128c103.2,150.9-12.2,59.4-53.1-4.2C1908,1464.6,1830.5,1320.2,1880.8,1331.3
	z M545.3,333c16.3-4.3,36.1-1.5,54-2.4c77.7,4,60.1-26.8,74-13.5c51.3,41.8,25.4,22.8,43.2,51.8c73.3,105.5-22.9,113.9-95.3,78
	c-59.8-34.9-0.6-14.3,22.4-19.2c58-9.7,56-49.3,8-65.3C575.1,343.1,556.9,359.1,545.3,333z M2345.3,1597.8
	c-27,6.2-42.7-21.6-60.3-37.4c-43-46.4-73.7-105.8-82-171.5c14.1-14.6,63.8,12.6,71.1,23.8c8.1,8.2,13.1,16.7,15.1,27.8
	C2295,1526.3,2331.8,1545.4,2345.3,1597.8z M763.9,1598.8c-86.2,0.5,113.6-72.1,45.9-119.6c-37.8-37-78.1-63.7-67.6-79.8
	c17.6-26.4,50.7,24.7,63.9,32.5c30.3,30,61,51.1,68,69.7c14.4,35.1-23.9,50.5-41.5,64.5c-23.2,13.5-40,35.4-68.6,33.4
	C764,1599.3,763.9,1599.1,763.9,1598.8z M2522,1598.8c-30-1.6-63.9,4.3-67.7-4.5c-14.2-43.8-31.3-86.7-51-128.3
	c-2.8-6.8-8.1-22.4,4.9-24.6c44.1-8.7,53.4,9.8,65.5,37C2492.2,1518.3,2509.9,1556.5,2522,1598.8z M413.3,619.5
	c-13.5-82.9-34.8-65.5-90.7-85.9c-15.1-22.1,31.9-17.8,40.8-15c69.2,17,87.4,70.8,88.7,123.9c0.3,103.4-184.1,17-117,11.5
	C378.4,661.8,409.1,672,413.3,619.5z M1025.4,1093.8c124.7,62.7,309.5,226.8,226.4,200.9C1007.8,1112.9,1022.8,1126.3,1025.4,1093.8
	z M917.3,213c52.4,30.2,34.9,54,57.8,73.7c26.2,21.7,70.9,11,72.5-26.6c74.1,25.5,53.1,79.8,24.7,85.3
	c-51.2-1.5-99.4-31.8-142.9-58.5C913.5,262.7,939.6,245.7,917.3,213z M596.8,1160.5c-18.5,34-88,102.7-108.2,37.6
	c11.5-9,24.3-21.1,22.6-34.1c-2.8-33.3-64.6-65.3-63.3-85.5C492.6,1054.5,542.5,1161.5,596.8,1160.5z M1332.2,1598.8
	c-71-2.6-80.6,7.6-96-9.8c-24.1-26.4-49.4-51.2-63.7-83.5c-0.4-20,27.9-49.6,41.4-30.8C1274.5,1564.1,1280.6,1554.2,1332.2,1598.8z
	 M541.5,1598.8c-17-1.6-36.3,3.4-51.7-2.3c-18-23.6-33.6-47-52-69.6c-17.5-25.5-41.2-44.7-54.7-71.9c-7.3-20.9,8.4-33.5,25.5-21.9
	C457.3,1485.3,500.4,1540.2,541.5,1598.8z M1626.8,1378.2c33.9,6.4,29.3,17,37.4,40.4c15.2,46.8,36.6,87,68.4,123.3
	c2.4,3.6,8.5,11.3,5.3,17.5c-60.9-17.5-120.4-119.5-135.1-167.9C1600.9,1379.5,1616.3,1381.2,1626.8,1378.2z M974.6,1392.7
	c-40.6-16.2-73.7-56.5-109.5-82.5c-38.3-26-7.7-44.8,11.3-36.5C903.8,1287.5,1061.3,1389.2,974.6,1392.7z M137.7,973.1
	c0.4,53-9.7,119.4-27.1,129.8c-23.2,10.7-2-93-5.8-103c4.6-65.3,0-124.1,14.6-130.8C135.3,855.2,140.2,975.8,137.7,973.1z
	 M858.1,587.3c42.7,18.2,259.5,112.6,229.4,120.4c-41.4,14.6-107.5-38.7-133.8-47.9C924,641.6,858,609.4,858.1,587.3z
	 M1455.5,1570.9c-53.7,3.1-153-101.1-159.9-123.8c12-12.6,38.5-11.6,50.1-0.9C1436.3,1569.2,1450.3,1550.5,1455.5,1570.9z
	 M317.9,458.6c70.1-2,22.6-68-10.6-82.9c-34.4-17.9-77.4-1.2-97.6-19.7c14.3-21,109.6,1.4,120.2,11.3c33.3,17.3,76.4,71.2,45.4,97.3
	C362.2,478.2,309.5,477.2,317.9,458.6z M18,512.9c47.5,12.2,148.9,180.5,137.2,196.9c-12.4,26.8-23.2,3.6-28.8-10.9
	C96.7,631,62,570.4,18,512.9z M158.1,1247.8c19.3-63.8,34.2,91.6,36.9,100.2c3.2,33.9,20.4,70.6,6.4,79.9
	C174.1,1445.6,155.6,1246.2,158.1,1247.8z M199.3,312c-17.3,6-37,6.7-54.9-0.8C111.2,270.8,53.3,274,5.7,263.9
	c-29.3-27.5,86.9-7.1,92-4.6C122.9,264.3,198.4,295.3,199.3,312z M443.9,1598.8c-23-1.8-41.9,4.3-51.3-3.9
	c-23.1-31.7-59.6-74.7-21.1-99C397.3,1527.6,419.4,1564.4,443.9,1598.8z M1140.1,1598.8c-40.6,4.8-98.8-39.3-103.9-57.2
	C1072.7,1529.6,1132.8,1564.9,1140.1,1598.8z M756.4,1511.7c-11,43.6-69.2-55.5-79.3-65.4C683.3,1386.5,749.4,1498.8,756.4,1511.7z
	 M962.6,917c-15.6-8.2-95.4-50.6-64.5-60.5c21.5,0.5,39.3,17.5,59.4,24.1C995.5,893.1,987.3,914.7,962.6,917z M1013.6,1598.8
	c-46-1.7-72,7.1-79.8-13.6C913.2,1514.6,1000.4,1582.4,1013.6,1598.8z M661.3,1274.3c-16.3-11-82.1-47.3-41.8-60.3
	C636.8,1218,707,1266.5,661.3,1274.3z M361.8,191.1c20-9.7,112.5-7.2,103.8,12.6C437.2,219.2,366.8,208.3,361.8,191.1z
	 M843.3,1095.4c-1,34.2-63.2-12.7-69.7-21.4C768,1030.6,849,1085.3,843.3,1095.4z M365.9,830.3c-65.2-4.9-26.8-44.7,13.5-35
	C404.8,812.3,391.9,832.1,365.9,830.3z M347,578.2c12.3,1,20.3,5.1,23.4,13.4C392.2,653.7,269.8,589.7,347,578.2z M348.9,1598.8
	c-14.2-1.3-30.7,2.7-43.4-1.8c-11-16.6,0.4-41.8,20.9-31.8C338.1,1572.9,340.3,1585.7,348.9,1598.8z M276.1,393.5
	c10.3,5.7,30.3,6.4,30.4,23.1C311.1,456.9,243.5,398.9,276.1,393.5z M2.2,777.2v-49.3C11.3,740.5,11.7,767.3,2.2,777.2z"/>
</svg>
