<svg xmlns="http://www.w3.org/2000/svg" viewBox="0 0 487.48 288.86"><defs><style>.cls-1{fill:#b28d5c;}.cls-2{fill:#cf202f;}.cls-3{fill:#4d232d;}</style></defs><title>logoEvaluacion360Color</title><g id="Layer_2" data-name="Layer 2"><g id="Layer_1-2" data-name="Layer 1"><path class="cls-1" d="M442.33,169.65c-6.83-2.41-16.17-1.53-20.86,2s-3,8.33,3.85,10.75c14.67,5.2,32.16,13.54,32.16,23.73,0,9.24-14.94,18.82-42.08,27-29.67,8.91-72.12,15.53-119.52,18.64-8.21.54-14,4.41-13,8.64,1,3.91,7.42,6.76,14.86,6.76q.94,0,1.92-.06c52-3.42,97.28-10.55,130.82-20.63,37.28-11.19,57-25.13,57-40.32C487.48,192.74,471.87,180.13,442.33,169.65Z"/><path class="cls-1" d="M226.61,234.41c-5.86-3-15.36-3-21.22,0s-5.85,7.92,0,10.94l13.07,6.73c-48-1.76-92-6.89-126.76-14.88-39.21-9-61.7-20.73-61.7-32.13,0-9.1,14.55-18.56,41-26.64,7.13-2.18,9.48-6.92,5.26-10.6s-13.43-4.89-20.56-2.71C9.66,179.19,0,194.61,0,205.07c0,18,28.23,34.47,79.48,46.26,39,9,88.22,14.61,141.41,16.34l-15.5,8c-5.85,3-5.85,7.92,0,10.94a26,26,0,0,0,21.22,0l40-20.63c5.85-3,5.85-7.91,0-10.94Z"/><path class="cls-2" d="M142.76,212.18q-30.27,0-67-3.5V185.05q40.05,2.63,59.8,2.62a9.08,9.08,0,0,0,6.61-2.36,8.48,8.48,0,0,0,2.45-6.39v-7q0-10.5-10.87-10.51h-38v-24.5h34.42q10.88,0,10.88-10.51v-3.5q0-10.5-10.88-10.5H77.53V87.89h61.6q17.76,0,26.1,7.79t8.33,23.72q0,10.5-5,17.07a26.1,26.1,0,0,1-13.14,9.19q14.69,3.85,19.93,18.91a39.72,39.72,0,0,1,1.81,12.6v1.75q0,17.16-8.33,25.21T142.76,212.18Z"/><path class="cls-2" d="M224.29,86.14q24.83,0,59.8,3.5v23.63q-10-.52-16.94-1l-11.42-.7c-3-.17-5.89-.38-8.79-.61q-7.24-.34-13.41-.35-11.06,0-11.05,8.75v15.76a159.88,159.88,0,0,1,30.8-3.5H266q12.31,0,19.75,7.17t7.43,19.08v22.76q0,15.93-8.34,23.72t-26.09,7.79H224.29q-17.76,0-26.09-7.79t-8.33-23.72V119.4q0-17.15,8.33-25.21T224.29,86.14Zm19.93,70a105.34,105.34,0,0,0-12.59.7c-3.8.47-6.86.82-9.15,1v19.26q0,10.5,10.87,10.5h16.31q10.88,0,10.87-10.5V162.29a5.84,5.84,0,0,0-1.81-4.38,6.3,6.3,0,0,0-4.53-1.75Z"/><path class="cls-2" d="M410.92,177.17q0,18.38-8.6,26.7t-27.64,8.31H340.26q-19,0-27.64-8.31t-8.6-26.7v-56q0-18.37,8.6-26.69t27.64-8.32h34.42q19,0,27.64,8.32t8.6,26.69Zm-32.61-56q0-10.5-10.87-10.5H347.51q-10.87,0-10.88,10.5v56q0,10.5,10.88,10.5h19.93q10.86,0,10.87-10.5Z"/><path class="cls-3" d="M386.25,0,391,8.4,373.66,8l-3.31-5.86Z"/><path class="cls-3" d="M47.89,17.77a1.41,1.41,0,0,1,.34-1,1.27,1.27,0,0,1,1-.38H79a1.32,1.32,0,0,1,1,.39,1.49,1.49,0,0,1,.36,1v7.42a1.56,1.56,0,0,1-.36,1,1.24,1.24,0,0,1-1,.46H59.5v7.44h15a1.56,1.56,0,0,1,.94.27,1,1,0,0,1,.38.9v6.48a1.24,1.24,0,0,1-.33.81,1.19,1.19,0,0,1-1,.39h-15v7.68H79.66A1.21,1.21,0,0,1,81,52v7.54a.72.72,0,0,1-.24.53q-.12.84-1.23.84H49.21a1.4,1.4,0,0,1-1-.31,1.24,1.24,0,0,1-.36-1Z"/><path class="cls-3" d="M100.66,60.31a9.85,9.85,0,0,1-.59-1.11c-.17-.38-.33-.77-.49-1.17L84.19,17.74a.76.76,0,0,0,0-.27.67.67,0,0,1,0-.24q0-.84,1.11-.84h9.66a1.56,1.56,0,0,1,1.56,1.14l9.15,27.3q1.23-3.42,2.35-6.82t2.22-6.83q1.09-3.42,2.22-6.82t2.36-6.83a1.61,1.61,0,0,1,1.65-1.14h9.45a1.44,1.44,0,0,1,1,.26.86.86,0,0,1,.29.67,1.21,1.21,0,0,1,0,.33v.09L111.58,58q-.15.42-.36.93a6.49,6.49,0,0,1-.48.95,3,3,0,0,1-.63.73,1.23,1.23,0,0,1-.81.3h-7.41A1.22,1.22,0,0,1,100.66,60.31Z"/><path class="cls-3" d="M139.24,17.56a.87.87,0,0,1,.19-.39,2.19,2.19,0,0,1,.41-.39,2.12,2.12,0,0,1,.51-.28,1.42,1.42,0,0,1,.51-.11h7.68a1.28,1.28,0,0,1,.87.32,3.87,3.87,0,0,1,.54.55L150.7,19l15.75,40.62a.89.89,0,0,1-.09,1,1.46,1.46,0,0,1-1.14.37h-8.61a1.9,1.9,0,0,1-1.07-.25,1.66,1.66,0,0,1-.58-.86c-.4-1-.79-2-1.17-3l-1.14-3H136.72c-.38,1-.77,2-1.16,3s-.77,2-1.15,3a1.5,1.5,0,0,1-1.53,1.11H124a1.48,1.48,0,0,1-1-.3c-.25-.2-.29-.5-.13-.9ZM144.7,30.4c-.38,1-.77,2.12-1.16,3.3s-.77,2.37-1.15,3.57-.77,2.39-1.16,3.56-.77,2.26-1.15,3.28h9.21Z"/><path class="cls-3" d="M171.37,17.68a1.32,1.32,0,0,1,.36-.93,1.28,1.28,0,0,1,1-.39h8.88a1.4,1.4,0,0,1,.93.36,1.29,1.29,0,0,1,.45,1V50.32h16.5a1.32,1.32,0,0,1,.93.36,1.28,1.28,0,0,1,.39,1v7.89a1.44,1.44,0,0,1-.35.93,1.26,1.26,0,0,1-1,.45H172.69a1.17,1.17,0,0,1-1.32-1.32Z"/><path class="cls-3" d="M219.25,43.17a10.2,10.2,0,0,0,.61,3.77,7.27,7.27,0,0,0,1.63,2.53,6.12,6.12,0,0,0,2.34,1.42,8.66,8.66,0,0,0,2.78.45,7.66,7.66,0,0,0,2.84-.52,6.52,6.52,0,0,0,2.35-1.57,7.42,7.42,0,0,0,1.59-2.56,9.8,9.8,0,0,0,.59-3.52V17.71a1.29,1.29,0,0,1,.37-.93,1.34,1.34,0,0,1,1-.39h8.76a1.43,1.43,0,0,1,1.08.41,1.27,1.27,0,0,1,.39.91V43A22.22,22.22,0,0,1,244,51.82a15.16,15.16,0,0,1-4.15,5.75,15.93,15.93,0,0,1-6,3.12,27,27,0,0,1-7.21.94,26.46,26.46,0,0,1-7.23-1,16,16,0,0,1-6.06-3.18,15.45,15.45,0,0,1-4.16-5.76A21.88,21.88,0,0,1,207.64,43V17.71a1.36,1.36,0,0,1,.34-.91,1.07,1.07,0,0,1,.85-.41h9a1.58,1.58,0,0,1,.94.38,1.14,1.14,0,0,1,.5.94Z"/><path class="cls-3" d="M265.42,17.56a.87.87,0,0,1,.19-.39,2.19,2.19,0,0,1,.41-.39,2.12,2.12,0,0,1,.51-.28,1.42,1.42,0,0,1,.51-.11h7.68a1.28,1.28,0,0,1,.87.32,3.87,3.87,0,0,1,.54.55l.75,1.71,15.75,40.62a.89.89,0,0,1-.09,1,1.46,1.46,0,0,1-1.14.37h-8.61a1.9,1.9,0,0,1-1.07-.25,1.66,1.66,0,0,1-.58-.86c-.4-1-.79-2-1.17-3l-1.14-3H262.9c-.38,1-.77,2-1.16,3s-.77,2-1.15,3a1.5,1.5,0,0,1-1.53,1.11h-8.85a1.48,1.48,0,0,1-1-.3c-.25-.2-.29-.5-.13-.9Zm5.46,12.84c-.38,1-.77,2.12-1.16,3.3s-.77,2.37-1.15,3.57-.77,2.39-1.16,3.56-.77,2.26-1.15,3.28h9.21Z"/><path class="cls-3" d="M328.63,19.63a1.87,1.87,0,0,1,.75.78,1.24,1.24,0,0,1-.09,1.14l-5.07,7.2a1.2,1.2,0,0,1-.71.59,1.32,1.32,0,0,1-.91-.26,11.43,11.43,0,0,0-3.24-1.71,11.6,11.6,0,0,0-3.75-.6,10.86,10.86,0,0,0-8.1,3.48A11.79,11.79,0,0,0,305.17,34a13.1,13.1,0,0,0,0,9.23A11.65,11.65,0,0,0,307.51,47a10.95,10.95,0,0,0,8.1,3.46,11.58,11.58,0,0,0,7.05-2.34,1.38,1.38,0,0,1,.9-.27,1.23,1.23,0,0,1,.72.54l5.13,7.38a1.18,1.18,0,0,1,.09,1.11,1.93,1.93,0,0,1-.75.75,23.87,23.87,0,0,1-6.08,2.93,22.45,22.45,0,0,1-6.85,1,22.66,22.66,0,0,1-11.58-3.12,23.07,23.07,0,0,1-8.22-8.2,22.42,22.42,0,0,1-2.31-5.46A23,23,0,0,1,296,27.12a23.26,23.26,0,0,1,3.58-4.67,22.37,22.37,0,0,1,4.64-3.58,23.48,23.48,0,0,1,5.47-2.31,23.13,23.13,0,0,1,12.9.18A23.34,23.34,0,0,1,328.63,19.63Z"/><path class="cls-3" d="M337,17.71a1.39,1.39,0,0,1,.33-.93,1.22,1.22,0,0,1,1-.39h8.82a1.69,1.69,0,0,1,1,.36,1.12,1.12,0,0,1,.51,1V59.62q0,1.32-1.47,1.32h-8.82A1.17,1.17,0,0,1,337,59.62Z"/><path class="cls-3" d="M356.23,38.71a22.73,22.73,0,0,1,.81-6.1,23,23,0,0,1,2.31-5.49,23.26,23.26,0,0,1,3.58-4.67,22.64,22.64,0,0,1,4.64-3.58,23.55,23.55,0,0,1,5.48-2.31,22.87,22.87,0,0,1,12.21,0,23.45,23.45,0,0,1,5.49,2.31A22.74,22.74,0,0,1,399,27.12a23.81,23.81,0,0,1,2.31,5.49,22.87,22.87,0,0,1,0,12.21A23.22,23.22,0,0,1,399,50.28a22.57,22.57,0,0,1-3.59,4.62,23.42,23.42,0,0,1-4.65,3.58,22.63,22.63,0,0,1-5.49,2.31,23,23,0,0,1-17.69-2.31,23.07,23.07,0,0,1-8.22-8.2A22.42,22.42,0,0,1,357,44.82,22.81,22.81,0,0,1,356.23,38.71Zm11.61,0a12.72,12.72,0,0,0,.84,4.65A11.33,11.33,0,0,0,371,47.1a11,11,0,0,0,3.58,2.52,11.11,11.11,0,0,0,4.55.91,11.23,11.23,0,0,0,4.57-.91,10.93,10.93,0,0,0,3.6-2.52,11.66,11.66,0,0,0,2.35-3.77,13.24,13.24,0,0,0,0-9.28,11.8,11.8,0,0,0-2.35-3.8,11.18,11.18,0,0,0-16.3,0,11.47,11.47,0,0,0-2.35,3.8A12.73,12.73,0,0,0,367.84,38.68Z"/><path class="cls-3" d="M409.57,17.71a1.39,1.39,0,0,1,.33-.93,1.22,1.22,0,0,1,1-.39h9.81a2.09,2.09,0,0,1,.87.21,1.9,1.9,0,0,1,.78.72q3.81,6.15,7.56,12.12t7.59,12.12v-24a1.47,1.47,0,0,1,.48-.84,1.27,1.27,0,0,1,.84-.3h8.55a1.6,1.6,0,0,1,1.05.35,1.18,1.18,0,0,1,.42,1V59.77a1.07,1.07,0,0,1-.36.89,1.55,1.55,0,0,1-1,.28h-9.57a1,1,0,0,1-.69-.27,4.75,4.75,0,0,1-.63-.72L428.71,46.9q-3.9-6.45-7.92-13V59.62a1.48,1.48,0,0,1-.3,1,1.42,1.42,0,0,1-1.08.33h-8.52a1.25,1.25,0,0,1-1-.37,1.38,1.38,0,0,1-.31-.92Z"/></g></g></svg>