<svg xmlns="http://www.w3.org/2000/svg" viewBox="0 0 600.17 176.61"><defs><style>.cls-1{fill:#bc955a;}.cls-2{fill:#9f2141;}</style></defs><title>logoGobierno</title><g id="Capa_2" data-name="Capa 2"><g id="layer"><path class="cls-1" d="M151.25,81.81a38.27,38.27,0,0,0-2.9-12.1,1.19,1.19,0,0,0-1.1-.4.64.64,0,0,0-.6,0v.4a43.61,43.61,0,0,1,2.7,11.2,18.82,18.82,0,0,1-1.2,8.1,30.08,30.08,0,0,0,0,6c0,.8-.4,1.2-.8,1.2s-.7-.3-.8-1.2a35.11,35.11,0,0,0-.3-5.9h0a46.66,46.66,0,0,0-.8-8.3,16.9,16.9,0,0,0-3.8-6.3,14.27,14.27,0,0,1-2.1-4.9,1.68,1.68,0,0,0-.3-1.1c-.3-.4-.2-.9-.4-1.3l-.8-2.4a.37.37,0,0,0-.5-.2,1.38,1.38,0,0,0-1.1.6,1.1,1.1,0,0,0,0,.8l1.9,7.5a14.24,14.24,0,0,0,2.6,3.8h0c.6.6,1.1,1.3,1.7,2a6.22,6.22,0,0,1,1.3,3.4c.3,2.5.6,6.1.9,11.3l1.5,7.4a25.73,25.73,0,0,1-.3,8.3v1.6h0s.5,0,1.3-.8c2-2.5,1.9-11,1.8-17.9a33.33,33.33,0,0,1,1-5.5,16.14,16.14,0,0,0,.7-4.9"/><path class="cls-1" d="M143.85,70.61v-1.3a1.85,1.85,0,0,0-.2-.7,2.29,2.29,0,0,0-1.5-1.2h-.6v.3a11.75,11.75,0,0,0,3.5,7h.3V74l-.9-2.2a5.64,5.64,0,0,1-.4-1.2"/><path class="cls-1" d="M134.75,90.41h0c-.3,0-.7-.4-.8-.9a18,18,0,0,1-1.8-6.5,10.44,10.44,0,0,0-.7-2.8,7.35,7.35,0,0,0-2.3-4.1,19.59,19.59,0,0,1-6.1-8.1c-.3-.7-.8-1.2-1.1-1.2s-.3,0-.4.3a2.21,2.21,0,0,0,0,1.6,23.43,23.43,0,0,0,2.7,4.9,12,12,0,0,0,1.1,1.2h.2a25.26,25.26,0,0,1,3.7,3.6,9.44,9.44,0,0,1,1.3,4v.9h0a36.8,36.8,0,0,0,3.7,10.4,13.31,13.31,0,0,1,1,3.4l.7,4.4c0,1.2.5,1.5.7,1.5h.2a2.66,2.66,0,0,0,.3-1.2,95,95,0,0,0-.6-13.1,28.11,28.11,0,0,0-3.1-10.2,1.51,1.51,0,0,0-1.1-.7h0v.9a31.63,31.63,0,0,1,2.5,10.5,1.39,1.39,0,0,1-.2,1.1Z"/><path class="cls-1" d="M126.65,67.91a.78.78,0,0,0-.9-.6.64.64,0,0,0-.6,0h0a10.32,10.32,0,0,0,3.2,5.4h.4v-.5a14.27,14.27,0,0,1-2.1-4.9"/><path class="cls-1" d="M140.85,90.81h0s-.5,0-.8-.7a1.69,1.69,0,0,1-.3-1l-1.4-7.6a12.12,12.12,0,0,0-2.8-5.8,26.19,26.19,0,0,1-5.5-9.4c-.3-1.1-.7-1.3-.8-1.3s-.4.3-.5.9a2.44,2.44,0,0,0,0,1.2,18.45,18.45,0,0,0,4.9,8.7,7.07,7.07,0,0,1,2.5,4.6h0a25.58,25.58,0,0,0,.5,2.7h0a63.53,63.53,0,0,0,3.2,11.9,10.64,10.64,0,0,1,.9,3.5,37.22,37.22,0,0,0,.5,6c.2,1.4.5,1.7.7,1.7s.5-.4.7-1.4a71.24,71.24,0,0,0,0-14.6,41.66,41.66,0,0,0-1-7.8,7.27,7.27,0,0,0-1.4-3.1c-.5-.6-.7-.7-.8-.7v.8a63.51,63.51,0,0,1,1.7,9.7,1.31,1.31,0,0,1-.3,1.2Z"/><path class="cls-1" d="M136.05,72.41a20.65,20.65,0,0,1-1.5-3.4l-.3-1.9a3,3,0,0,0-.4-1,1.74,1.74,0,0,0-1.2-.6h-.4a.45.45,0,0,0,0,.5,12.75,12.75,0,0,0,3.6,7.1h0l.4.2h0v-.4a1.91,1.91,0,0,0-.3-.8"/><path class="cls-1" d="M127.85,90.41h0a3.94,3.94,0,0,0,.5,1.4,2.38,2.38,0,0,0,.6,1.1,2.19,2.19,0,0,0,.5.3.78.78,0,0,0,.4-.4,2.05,2.05,0,0,0,0-1.1,23.75,23.75,0,0,0-3.4-14c-.4-.4-.6-.4-.6-.4v.3a1.1,1.1,0,0,0,0,.8,11.18,11.18,0,0,1,1.2,3.5.91.91,0,0,1,0,1h0c-.3,0-.6-.3-.8-.8a9.18,9.18,0,0,0-4-4.9,25.11,25.11,0,0,1-5.8-4.5,9.74,9.74,0,0,1-1.5-2.4s0-.3-.4-.4-.7.5-.8,1,0,.4,0,.7a12.06,12.06,0,0,0,4.9,5.1,13.46,13.46,0,0,1,6.8,6.5c1.3,3,2,5.3,2.5,6.8"/><path class="cls-1" d="M117.55,69.21c-.4,0-.7,0-.7.3h0a10.17,10.17,0,0,0,3.8,3.9h.4l-.2-.4a11.42,11.42,0,0,1-2.6-3.6.91.91,0,0,0-.8-.4"/><path class="cls-1" d="M110.65,76.91h0a8.49,8.49,0,0,1,2.2.9,6.25,6.25,0,0,1,2,1.3,33.09,33.09,0,0,1,4.1,5h0c1,1.4,2,2.7,3.2,4.1a.86.86,0,0,0,.6.3h.4a.85.85,0,0,0,0-.7,41.75,41.75,0,0,0-3.4-8.2,1.49,1.49,0,0,0-1.5-.7h0l.8,1.5v.3h0a.3.3,0,0,1-.4,0h-.3a12.66,12.66,0,0,0-2.1-2.5,8.34,8.34,0,0,0-1.2-.8l-2.8-1.1a23.92,23.92,0,0,1-2.1-1.3c-.7-.6-1.4-1.2-2.2-2h-.6a.19.19,0,0,0-.3,0,.91.91,0,0,0,0,1,5.56,5.56,0,0,0,2.2,2.1c.4.2.9.4,1.3.6"/><path class="cls-1" d="M138.65,107.31c-2-1.3-3.4-2.2-4.6-3-7.9-6-15.9-11.8-24.3-17.6a.45.45,0,0,0-.5,0h0a1.41,1.41,0,0,0,.8,1.5l25.5,18.7h.3a1.42,1.42,0,0,1,.9.8,1,1,0,0,1-.4,1.2,5.42,5.42,0,0,1-2.5.6,6.75,6.75,0,0,1-4.4-1.7c-6.8-5.3-13.5-10.8-19.8-15.8a.45.45,0,0,0-.5,0h0a1.7,1.7,0,0,0,0,1,1.6,1.6,0,0,0,.7.9c6.6,5.3,13.2,10.7,19.4,16a8.21,8.21,0,0,0,4.3,1.2,9,9,0,0,0,5.4-2.2,1.13,1.13,0,0,0-.2-1.6c.1.1.1.1-.1,0"/><path class="cls-1" d="M129.15,106a17.48,17.48,0,0,0,2.9,1.8h.9a.93.93,0,0,0-.3-.6l-22.8-17.6h-.3a1.71,1.71,0,0,0,.7,1.3Z"/><path class="cls-1" d="M123.85,107.11l-14.8-12.4h-.4a1.6,1.6,0,0,0,.4.9c4.3,3.9,9,8,13.8,12.1a9.51,9.51,0,0,0,2,1.5.78.78,0,0,0,.8.2c.3,0,.5,0,.5-.3v-.2Z"/><path class="cls-1" d="M112.25,74.71h.5v-.3a8.79,8.79,0,0,0-.6-1,4.44,4.44,0,0,0-1.1-.8H110v.3a5.78,5.78,0,0,0,2.3,1.8"/><path class="cls-1" d="M126.45,112.51a4.39,4.39,0,0,0,2.2-.7s.3-.3.2-.4,0-.3-.4-.4h-1.9a4.67,4.67,0,0,1-3.4-1.3c-3.6-3.1-6.5-5.7-9-8h0c-1.9-1.7-3.7-3.4-5.6-4.9h-.3v.5a2.18,2.18,0,0,0,.4.5l.9.9c4.5,4.2,8.5,8,12.6,11.7a8.13,8.13,0,0,0,3,2.1,11,11,0,0,0,1.8.2"/><path class="cls-1" d="M106.35,98.11c3.3,3.5,6.7,7,10.5,10.7a5.44,5.44,0,0,0,2.6,1.6h0c-.1-.1-.2-.3-.3-.3-3.4-2.9-7-6.5-10.1-9.7l-.6-.6v-.2a10.71,10.71,0,0,0-1.9-1.8h-.3c-.1-.1-.1.1.1.3"/><path class="cls-1" d="M121.05,113.21a1.39,1.39,0,0,0,.9,0,.19.19,0,0,0,0-.3.75.75,0,0,0-.7-.5,6.56,6.56,0,0,1-4.2-1.7c-3.9-3.6-7.8-7.4-11.5-11.2a.52.52,0,0,0-.4-.2h0a2,2,0,0,0,0,1.1c.2.2.3.5.5.7h0c2.1,2.2,4.9,5.1,8.7,8.7a13.12,13.12,0,0,0,3.5,2.7,6.81,6.81,0,0,0,2.8.7"/><path class="cls-1" d="M115.45,111.91h0a.84.84,0,0,0-.7-.7c-1.8-.3-4.2-3-6.7-5.8l-1.1-1.8h-.2v.2a.3.3,0,0,0,0,.4l5.2,6.1a4.84,4.84,0,0,0,3.6,1.6Z"/><path class="cls-1" d="M49.45,47.21h.7a1.1,1.1,0,0,1,.8,0h1.1a5.81,5.81,0,0,1,1.9-1.6h1a3.23,3.23,0,0,1,2.1.8.78.78,0,0,1,.2.8c0,.2-.3.4-.8.4h-.7a7.61,7.61,0,0,0-2.1.3,3.34,3.34,0,0,0-2.7,3.8h0c0,.3,0,1.3-.7,1.3a1.35,1.35,0,0,1-.9-.5,3.68,3.68,0,0,1-1.3-2.7,3.34,3.34,0,0,1,1.5-2.5m-2.4,1.8a3,3,0,0,0-.3,2.6,5.75,5.75,0,0,0,5.6,3.7h0c.7,0,1.2,0,1.3-.5s0-.6-.3-.7a3.38,3.38,0,0,1-1.4-3.6,3.5,3.5,0,0,1,3.5-2.1h1.1a3.94,3.94,0,0,0,2.1-.6,4.11,4.11,0,0,1,2.9-1.3,6.75,6.75,0,0,1,1.4.2h0a1,1,0,0,1,.2,1.3c0,.1-.1.1-.2.2a1.74,1.74,0,0,1-1.2.6,7,7,0,0,0-2.3,1.1v.3h2.2a18.28,18.28,0,0,0,4.4-2.8c.4-.4.5-.7,0-1.2a6.08,6.08,0,0,0-3.9-1.7h-1.6a7.61,7.61,0,0,1-2.1.3,3.79,3.79,0,0,1-1.5,0L54,44a3.19,3.19,0,0,0-1.4-.3,1.66,1.66,0,0,0-1.2.5h0l.3.2c.3.3.4.5.3.8a1.52,1.52,0,0,1-.9.5h-.7a1.4,1.4,0,0,0-.9.3,13.29,13.29,0,0,0-2.1,2.6"/><path class="cls-1" d="M52.65,42a8.49,8.49,0,0,0,2.2.9h.2a.71.71,0,0,0,.6-.3,4.55,4.55,0,0,0,.8-1.9,5.81,5.81,0,0,1,1.3-2.6l.3-.3a4.17,4.17,0,0,0,.9-1.6,2.37,2.37,0,0,0-.8-2.8v.5a6.05,6.05,0,0,1-2.9,4.5l-.7.4a11.51,11.51,0,0,0-1.7,1.4,1.52,1.52,0,0,0-.7,1.2c.1.3.2.5.5.6"/><path class="cls-1" d="M58.05,39.21c-.2,0-.4,0-.3.3,1.1,1.8.6,2.5-1,3.3-.6,0-.3.7.2.6a.45.45,0,0,0,.5,0,2.29,2.29,0,0,0,1.6-2.9l-.3-.6a.82.82,0,0,0-.7-.7"/><path class="cls-1" d="M60.45,35.51c.3,0,.4-.5.5-.9s0-1.5.6-1.6.3.7.5.8.3,0,.4-.3a3,3,0,0,0-1.1-2.5h0v.3a13.55,13.55,0,0,0-.8,3.9v.4"/><path class="cls-1" d="M60.25,38.31h0c4.2-1.9,5.1-4.5,5.2-5.8a4,4,0,0,0-1-3.3h0a6,6,0,0,1-1.1,5.5c-.9.8-2,1.6-3.1,2.4l-.5.3s-.2.3,0,.4c.1.3.3.5.6.4"/><path class="cls-1" d="M65.55,38.51a13.5,13.5,0,0,1-3.3,1.9,4.52,4.52,0,0,0-1.7,1.1v.3h0a21.89,21.89,0,0,0,6-3.3c1.2-1,1.6-2,1.1-3.1H67c-1,1-5.2,3.2-6,3.7s-.3.4-.3.4a.19.19,0,0,0,.3,0h0c.6,0,3.4-1.9,4.1-2.2s1.1-.3,1.1,0-.2.7-.6,1.2"/><path class="cls-1" d="M59.65,44.21a7,7,0,0,0,1.4-.3,42.26,42.26,0,0,1,5.8-2.5h.6a.8.8,0,0,1,.3,1.1l-.3.3L65,43.91h.8c2.5-.6,3.5-1.6,3.2-3a1.34,1.34,0,0,0-1.3-.8,3.73,3.73,0,0,0-2.1.3c-1.3.5-3.1,1.6-4.3,2a10.09,10.09,0,0,0-1.5.7s-1,.8,0,.7"/><path class="cls-1" d="M67.55,33c.7-.6,1.4-2.3,1.9-1.4a3.44,3.44,0,0,1-.5,2.6c-.3.5,0,.7.3.9h.2a5.07,5.07,0,0,0,.7-3.8,2.65,2.65,0,0,0-1.1-1.9h-.3c-.2,0-.3.1-.4.3l-.4,1.5a2.85,2.85,0,0,1-.8,1.4,2,2,0,0,0-.6,1.1c0,.4,0,0,.7,0"/><path class="cls-1" d="M71.45,34.91a11.66,11.66,0,0,1,3.6,1.6,2,2,0,0,0,.8.4,30.13,30.13,0,0,0,3.1,1.6h.3a.44.44,0,0,0,.4-.3h0a5.79,5.79,0,0,0,1.6-3.1h0a2.44,2.44,0,0,1-1.2,0,3.3,3.3,0,0,1-1.4,0,14.69,14.69,0,0,0-6.4-2.1H72v.2h0a21,21,0,0,1,6.8,2.7h0s.6.3.6.6h0a.64.64,0,0,1-.6,0h-.6a38.55,38.55,0,0,0-6.4-2.5h0a.19.19,0,0,0-.3,0,.76.76,0,0,0,.2.5"/><path class="cls-1" d="M68.85,46.51c-.3,0-.8-.8-1-1.3h-.2a.3.3,0,0,0,0,.4,3.15,3.15,0,0,0,1.2,1.9h.6a1.27,1.27,0,0,0,1.1-1,3,3,0,0,0-1.2-2.5h0a3.92,3.92,0,0,1,.4,1.8c0,.3-.3.3-.5.3"/><path class="cls-1" d="M72.25,44.81c-.6,0-1.4-1.4-1.6-1.8h-.3v.5a5,5,0,0,0,1.3,2.6.78.78,0,0,0,.8.2,3.08,3.08,0,0,0,2.1-1.4,1.53,1.53,0,0,0,0-1.6,12.7,12.7,0,0,0-4.5-3h0a14.31,14.31,0,0,0,1.5,1.1h0a5.81,5.81,0,0,1,1.9,1.6,1.7,1.7,0,0,1,0,1,1.59,1.59,0,0,1-1,.8"/><path class="cls-1" d="M69.45,38.61h0a37.68,37.68,0,0,0,6.5,3.7,2.35,2.35,0,0,0,.8.2,1.23,1.23,0,0,0,.8-.4,1.83,1.83,0,0,0,.4-2.3,13.8,13.8,0,0,0-7.5-4h0a.52.52,0,0,0,.4.2,17.76,17.76,0,0,1,5.2,2.9h0c.3.3.7.6.6,1.1a1.79,1.79,0,0,1-.5.7h-.3a4.84,4.84,0,0,1-1.8-.7h-.3a19.21,19.21,0,0,0-3.9-1.7Z"/><path class="cls-1" d="M123.25,34.41a1,1,0,0,0,.4.7,69.1,69.1,0,0,1,21.9,28.5,1.08,1.08,0,0,1,0,1.1.73.73,0,0,1-.6.2,3.63,3.63,0,0,1-1.7-.7,21,21,0,0,1-5.2-5.1,81.44,81.44,0,0,0-20.4-21.8h-.5a1.55,1.55,0,0,0,.5,1.4,85.07,85.07,0,0,1,20.7,23.6,12.21,12.21,0,0,0,10.7,5.3h1.3c.7,0,.8-.4.8-.4s0-.2-.4-.5a11.5,11.5,0,0,1-4.1-5.8,67.48,67.48,0,0,0-22.1-26.4.85.85,0,0,0-.7,0h-.3"/><path class="cls-1" d="M141.75,61.91a1.91,1.91,0,0,0,1,.5.19.19,0,0,0,.3,0,2,2,0,0,0-.3-1.5A74.88,74.88,0,0,0,121,36.21a1.7,1.7,0,0,0-1,0,.64.64,0,0,0-.6,0s0,.3.7.7a91.52,91.52,0,0,1,21.6,25.2"/><path class="cls-1" d="M132.85,61.91a2.52,2.52,0,0,1-1.5-1,84.32,84.32,0,0,0-14.6-15.8h0a2.12,2.12,0,0,0,0,1.9,98.28,98.28,0,0,1,10,10.4h0a75.52,75.52,0,0,0,5.4,5.9,3.61,3.61,0,0,0,2,.6,2,2,0,0,0,1.6-.7,2,2,0,0,0,0-1.5,61.66,61.66,0,0,0-18.4-20.6H117a1.93,1.93,0,0,0,.6,1.8,91.52,91.52,0,0,1,15.6,17.3,1.48,1.48,0,0,1,0,1.3.71.71,0,0,1-.6.3"/><path class="cls-1" d="M115.35,48.81h0a1.08,1.08,0,0,0,0,1.1,74.84,74.84,0,0,1,10.5,11.3,1.49,1.49,0,0,1,.2,1.7,1.77,1.77,0,0,1-2.3.8,1.38,1.38,0,0,1-.4-.3,74,74,0,0,1-6.9-6.8,41.07,41.07,0,0,0-2.9-3h-.2a1.28,1.28,0,0,0,0,1.2l7.1,7.6A11,11,0,0,0,124,65h1.6a2.46,2.46,0,0,0,2.2-.9,3,3,0,0,0,0-2.6,43.84,43.84,0,0,0-12.1-12.9Z"/><path class="cls-1" d="M113.45,50.71a1.1,1.1,0,0,0,0,.8,114.49,114.49,0,0,0,10,9.7h.2v-.4a61.52,61.52,0,0,0-10.2-10.2Z"/><path class="cls-1" d="M112.45,56.31H112c-.2,0-.4.1-.4.3a.78.78,0,0,0,.2.8,26.55,26.55,0,0,1,6,6.5,1.53,1.53,0,0,1,0,1.6,1.34,1.34,0,0,1-1.4.7,2.5,2.5,0,0,1-1.4-.4,33.49,33.49,0,0,1-5.8-4.9l-.4-.4-.3.3a.75.75,0,0,0,0,.9,25.72,25.72,0,0,0,6.4,5.9,9.08,9.08,0,0,0,2.3.3,2.49,2.49,0,0,0,2-.7,3.65,3.65,0,0,0,0-2.9,34.64,34.64,0,0,0-7-7.8"/><path class="cls-1" d="M109.75,59l5.8,5.7h.7a23.42,23.42,0,0,0-6.8-6.5,1.64,1.64,0,0,0,.2,1.2"/><path class="cls-1" d="M109.25,71.11a3.48,3.48,0,0,0,2.9-1.6,2.33,2.33,0,0,0,0-2,27.31,27.31,0,0,0-4.9-5.3h0a.36.36,0,0,0-.3.2.45.45,0,0,0,0,.5,18.19,18.19,0,0,1,3.6,4.2,2.21,2.21,0,0,1,0,1.6,2.09,2.09,0,0,1-1.6.8,2.44,2.44,0,0,1-1.2,0,18.79,18.79,0,0,1-3.5-3.4h0a.36.36,0,0,0-.3.2.85.85,0,0,0,0,.7,13.28,13.28,0,0,0,4.5,4,2.44,2.44,0,0,0,1.2,0"/><path class="cls-1" d="M107.65,67.51a1.42,1.42,0,0,0,.6.2.71.71,0,0,0,.6-.3.78.78,0,0,0-.2-.8,15.84,15.84,0,0,0-3-2.8h-.4a.47.47,0,0,0-.5.5h0a.82.82,0,0,0,.5.8c1,1.1,1.7,1.7,2.5,2.5"/><path class="cls-1" d="M105.25,70.91l-2.8-3.2h-.6a.85.85,0,0,0,0,.7l1.7,2a1.09,1.09,0,0,1,.4.9c0,.6-.6,1.2-1.2,1.7h0a2.84,2.84,0,0,0-.9,1,.64.64,0,0,0,0,.6c.1.2.2.3.4.2h.3l2.3-1.9a1.38,1.38,0,0,0,.4-2"/><path class="cls-1" d="M101.65,71.91h.3a.3.3,0,0,0,0-.4l-1.4-2.4h-.3c-.2,0-.3.1-.4.3v.1Z"/><path class="cls-1" d="M102.05,31.41a3.45,3.45,0,0,0,1.2,1.2,43.66,43.66,0,0,1,10.3,5.3,1.1,1.1,0,0,1,.3,1.2,1,1,0,0,1-.9.6,1.93,1.93,0,0,1-1-.3,34,34,0,0,0-8.4-4.5h0a.79.79,0,0,0,.5.8,45.26,45.26,0,0,1,9,5.3,1.75,1.75,0,0,0,1.2.4,1.33,1.33,0,0,0,1-.6c.6-1.7,0-3.4-2.4-4.9a51,51,0,0,0-10.6-4.9Z"/><path class="cls-1" d="M104.45,37.61h0a1,1,0,0,0,.4,1,22.38,22.38,0,0,0,2.9,1.7,16.83,16.83,0,0,1,5.1,3.6,2,2,0,0,1,0,2.1,1.23,1.23,0,0,1-1.1.7,1.61,1.61,0,0,1-.9-.3l-5.2-3h0a2.14,2.14,0,0,0,.8,1.7,30.87,30.87,0,0,0,3.7,2.6h.3a5,5,0,0,0,2,.8,1.88,1.88,0,0,0,.8-.2,4.53,4.53,0,0,0,.8-4.6,38.85,38.85,0,0,0-9.7-6.4"/><path class="cls-1" d="M110.35,45.21h.3c.3,0,.7,0,.6-.3A41.17,41.17,0,0,0,105,41a1.42,1.42,0,0,0,.2.6,29,29,0,0,0,4.9,3.5"/><path class="cls-1" d="M105.35,53l3.2,2.3a1.69,1.69,0,0,0,1,.3,1.14,1.14,0,0,0,.8-.3,5,5,0,0,0,1.5-2,2.52,2.52,0,0,0-1-3l-4.3-3.1h0a1.7,1.7,0,0,0,0,1,18.07,18.07,0,0,1,3.3,2.9,1.94,1.94,0,0,1,.3,1.8,1,1,0,0,1-.9.7,1.14,1.14,0,0,1-.8-.3l-2.5-1.6q-.3.15-.3.3a.84.84,0,0,0-.3,1"/><path class="cls-1" d="M108,51.91a.55.55,0,0,0,.5-.3.64.64,0,0,0,0-.6l-2-1.2h-.3v.4l1.8,1.5Z"/><path class="cls-1" d="M101.45,58.71a1.1,1.1,0,0,0,0,.8l3.1,2.3a.64.64,0,0,0,.6,0,2.09,2.09,0,0,0,1.3-.7l.4-.6c.8-1.4,1.5-2.3.5-3.7a8.64,8.64,0,0,0-3.1-2.6l-.3.2a1.7,1.7,0,0,0,0,1l1.6,1.7a1.72,1.72,0,0,1,0,1.7,1.44,1.44,0,0,1-1.2.9.85.85,0,0,1-.7,0l-1.7-1.3h-.2s-.3,0-.4.4"/><path class="cls-1" d="M102.75,56.81a.64.64,0,0,0,0,.6l1.1.8h.3a.27.27,0,0,0,.3-.3.64.64,0,0,0,0-.6l-1.1-.8h0a.55.55,0,0,0-.5.3"/><path class="cls-1" d="M97,63c-.2,0-.3.1-.3.2a1.39,1.39,0,0,0,0,.9l2.4,2.8a1.09,1.09,0,0,0,.9.4,4.27,4.27,0,0,0,2.8-2.1,2.31,2.31,0,0,0,.2-2.4,14.25,14.25,0,0,0-2.5-3h0l-.3.3a1.08,1.08,0,0,0,0,1.1l1.1,1.5a1.91,1.91,0,0,1,0,1.8,1.3,1.3,0,0,1-1.2.8,1.78,1.78,0,0,1-1-.4l-1.5-1.6Z"/><path class="cls-1" d="M99.55,63.81c.2,0,.4-.1.4-.3a.45.45,0,0,0,0-.5l-1.3-1.2h0c-.2,0-.3.1-.3.2a.45.45,0,0,0,0,.5l1.3,1.3Z"/><path class="cls-1" d="M104.05,95.51c0,.3,0,.8.6.8a1.33,1.33,0,0,0,1-.6c2.6-3.4,1.7-14-1.6-19.4h-.2c-.2,0-.3.1-.4.3a1.39,1.39,0,0,0,0,.9,23.76,23.76,0,0,1,2.7,14.1c0,.4-.3,1-.8,1s-.6,0-.9-1.4a24.18,24.18,0,0,0-3.8-10.7,3.75,3.75,0,0,0,0,2.1,33.82,33.82,0,0,1,3.4,12.9"/><path class="cls-1" d="M101.75,77.51h0a2,2,0,0,0,0,1.5,21.34,21.34,0,0,1,3.2,8.7h0a22.2,22.2,0,0,0-3.2-10.2Z"/><path class="cls-1" d="M85.75,28.61l1.5.6a17.1,17.1,0,0,1,2.3,1.3,11.82,11.82,0,0,1,6.1,9.5v.6c1.2,5.6,2,9-3.7,13.5a1.36,1.36,0,0,0,0,1.5.62.62,0,0,0,.6.4h0a9.93,9.93,0,0,0,4.4-4.2c3.3-4.5-.3-14.6-1.5-17.8a8.74,8.74,0,0,0-4.9-4.9l-6.3-2.9a2.15,2.15,0,0,1-.9-2c0-.7.5-.9,1.4-1.4a6.46,6.46,0,0,1,2.7-.5h2.3a56.15,56.15,0,0,1,28.3,9.4h0a1.06,1.06,0,0,1,.2,1.2c-.2.5-.9.7-2.1.8a2.87,2.87,0,0,1-1.8-.7l-.8-1.3a.29.29,0,0,0-.3-.3c-.3,0,0,0-.3.3l-.3,1.7c0,.2,0,.3.3.4a11.25,11.25,0,0,0,4,.7,10.76,10.76,0,0,0,6.4-2.4q.45-.6.3-.9c-.1-.2-.5-.3-1.1-.4h-.7a10.64,10.64,0,0,1-5.8-1.7A58.65,58.65,0,0,0,86,21.21a5.75,5.75,0,0,0-2.6.5,3,3,0,0,0-1.7,2.2,3.15,3.15,0,0,0,.8,2.6,7.67,7.67,0,0,0,3.1,1.9"/><path class="cls-1" d="M38.85,49.71c.5,1.4,1.2,2.1,2.1,2.3h4.1a.85.85,0,0,0,.7-.8.75.75,0,0,0-.5-.7H42c-1.2,0-1.8-1.7-2.3-3.5a9,9,0,0,1,2.6-8.5l.2-.4h-.3c-.2-.1-.3-.2-.3-.4a1.14,1.14,0,0,1,.3-.8l.5-.5h-.3a20.61,20.61,0,0,0-4.9,4.4,3,3,0,0,0-.3,2.6Z"/><path class="cls-1" d="M47.15,46.51h0a7.79,7.79,0,0,1-2.1.4,3.24,3.24,0,0,1-2.5-.9h-.2a.85.85,0,0,0,0,.7,3.44,3.44,0,0,0,2.5,1.3,4.59,4.59,0,0,0,2.5-1s.2-.3,0-.4"/><path class="cls-1" d="M41.25,42.81a1.48,1.48,0,0,0,0,1.3,1,1,0,0,0,.8.5h.7a10.85,10.85,0,0,0,5.9-2.8v-.3h0a12,12,0,0,1-5.1,1.8.79.79,0,0,1-.7-.5,3.22,3.22,0,0,1,.4-1.6,9.52,9.52,0,0,0,1.9-2.1v-1.8a2.1,2.1,0,0,1,.4-1.1,3.92,3.92,0,0,1,1-.8.67.67,0,0,0,.3-.8,1.2,1.2,0,0,0-1-.7c-1.2.4-1.6,1-1.5,2.1a3.14,3.14,0,0,1-.6,2.8,16.17,16.17,0,0,0-2.5,3.9"/><path class="cls-1" d="M46.15,37.21a.85.85,0,0,0,0,.7,2.29,2.29,0,0,1,.4,2.5h0a2.9,2.9,0,0,0,.9-1.5,2.16,2.16,0,0,0-.5-1.7s-.4-.4-.6-.3-.3-.1-.2.3"/><path class="cls-1" d="M77.45,137a11.62,11.62,0,0,1,3.3,5.9c1.1,3.1,2.2,6.2,4.5,6.8a1.39,1.39,0,0,0,.9,0h0c-.1-.1-.2-.2-.3-.2-1.4-.5-2.2-2.9-3.1-5.6s-2.3-6.8-4.9-7.5h-1.3l.5.5"/><path class="cls-1" d="M81.65,136.41a.64.64,0,0,0-.6,0l.3.3c1.6.9,2.6,3.4,3.6,6.2s2.5,6.8,4.9,6.8h.5c-1.4-.7-2.3-3.1-3.3-5.7-1.1-3.4-2.6-7.2-5.4-7.6"/><path class="cls-1" d="M89.55,143.71h0c1,2.6,2.2,5.9,4.9,6h.3a10.17,10.17,0,0,1-3.2-5.2c-.6-2-1.2-3.8-3.3-4.4h-.5v.2c.7.5,1.1,1.7,1.8,3.4"/><path class="cls-1" d="M81.75,134.61h.9a.79.79,0,0,0,.8-.8.75.75,0,0,0-.5-.7h-1.7a10.2,10.2,0,0,1-3.5-.4h-1.1c-.2,0-.5,0-.6.2a.91.91,0,0,0,0,1c.6.8,2,1.2,4.3,1.2H82"/><path class="cls-1" d="M104.45,134.41a2.58,2.58,0,0,0-2.9-1.7,3.19,3.19,0,0,0-3.3,2.9v.1a.64.64,0,0,0,0,.6.73.73,0,0,0,.6.2.75.75,0,0,0,.7-.5,1.46,1.46,0,0,1,1.5-1.6,1.5,1.5,0,0,1,1.4,1,1.47,1.47,0,0,1-.5,1.4,1.77,1.77,0,0,0-.8,2.3h0a5,5,0,0,1,0,5.5,1.79,1.79,0,0,0,.8,2.4c.1,0,.2.1.3.1h0a1.08,1.08,0,0,1,0,1.1,1.34,1.34,0,0,1-1.3.8,1.41,1.41,0,0,1-1.4-1.1c-.1-.3-.2-.5-.5-.6a.6.6,0,0,0-.6.3.85.85,0,0,0,0,.7c.9,1.8,2,2.7,3.4,2.6a4.14,4.14,0,0,0,1.9-.5,2.53,2.53,0,0,0,1-1.8,2.79,2.79,0,0,0-.6-1.8c-.7-.4-.8-1.3-.4-2.6a5.08,5.08,0,0,0,0-4.5,2.1,2.1,0,0,1,.3-2.5,2.32,2.32,0,0,0,.4-2.5"/><path class="cls-1" d="M75.25,146.91a.87.87,0,0,0-.9-.6h-.3l-.7,1.3a1.28,1.28,0,0,1-1.7.4c-.1-.1-.3-.2-.4-.4a1.08,1.08,0,0,1,0-1.1,2.31,2.31,0,0,1,1-1.4,1.91,1.91,0,0,0,0-1.8,6.37,6.37,0,0,1-.4-4.3l.5-1.9a1.63,1.63,0,0,0-.6-1.7,1.3,1.3,0,0,1-.6-1.6,1.17,1.17,0,0,1,1.1-.9h.5a1.5,1.5,0,0,1,.9,1v.4a1.19,1.19,0,0,0,.9.5.45.45,0,0,0,.5,0,1.08,1.08,0,0,0,0-1.1,3.25,3.25,0,0,0-3.3-2.4,2.73,2.73,0,0,0-1.9.8,2.21,2.21,0,0,0-.6,1.9,1.81,1.81,0,0,0,.7,1.7h0a2.4,2.4,0,0,1,0,2.8,5,5,0,0,0,0,3.8,4.41,4.41,0,0,1,0,3.2l-.2.4a1.94,1.94,0,0,0-.3,1.8,2.6,2.6,0,0,0,2.7,2,3.08,3.08,0,0,0,1.9-.6,3.55,3.55,0,0,0,1.4-2.5"/><path class="cls-1" d="M97.85,150.61a1.69,1.69,0,0,0-1,.3,3.37,3.37,0,0,1-1.7.5h-.4c-5.7,0-11.4,0-17.3-.4a3.37,3.37,0,0,1-1.7-.5,1.72,1.72,0,0,0-1.2-.2H74a1.7,1.7,0,0,0,0,1c1.2,1.7,10.8,1.5,14.6,1.5h6.8a6.56,6.56,0,0,0,3.3-.9.63.63,0,0,0,.3-.8.78.78,0,0,0-.9-.6"/><path class="cls-1" d="M77.25,31.11c5.5,1.3,9.4,3,10.4,7.6a4.77,4.77,0,0,0,1.1,3.5h0v-.4a9,9,0,0,0-4.4-9.2,20.52,20.52,0,0,0-6.7-2.7,2.33,2.33,0,0,1-2-2.5,2.94,2.94,0,0,1,2.7-2.9h.3c.5,0,.7,0,.7-.3s0,0-.3,0h-.7c-1.8,0-3.6.4-3.8,3.4-.2,2.2.5,3.3,2.4,3.6"/><path class="cls-1" d="M78.05,26.31h0c1,0,1.4.4,1.4.8s-.3.8-1.4.9h1.4a1.81,1.81,0,0,0,1.7-.7.85.85,0,0,0,0-.7,2.29,2.29,0,0,0-1.7-.8,2.05,2.05,0,0,0-1.1,0"/><path class="cls-1" d="M85.65,31.71a1.39,1.39,0,0,0,.9,0,.85.85,0,0,0,.7,0h0a6.41,6.41,0,0,0-6-1.7c-.5.3,3.8,0,4.4,1.7"/><path class="cls-1" d="M86.55,40.41a9.41,9.41,0,0,0-3.9-4c-.4,0-.5,0-.4.2a14.35,14.35,0,0,1,4.9,7.8,2.09,2.09,0,0,1-.4,1.7h0l-.7.7a.85.85,0,0,0,0,.7.79.79,0,0,0,.8.5h0l2.7-2a1.14,1.14,0,0,0,.3-.8h0a10.74,10.74,0,0,1-3.1-4.5"/><path class="cls-1" d="M79.05,42.41h0v.4a32.08,32.08,0,0,1,.6,7.6.45.45,0,0,0,0,.5,2,2,0,0,0,1.1.3,8.25,8.25,0,0,0,2.7-1.2,2.31,2.31,0,0,0,1.1-2,16,16,0,0,0-3.4-8.4h-.3a.45.45,0,0,0,0,.5c2.3,4.1,2.8,6.7,1.8,8.4a2.75,2.75,0,0,1-1.5.8c-.3,0-.8,0-.9-1.1a18.11,18.11,0,0,0-1.2-5.6Z"/><path class="cls-1" d="M82.05,46.81v-.7a16.68,16.68,0,0,0-2.3-5.7h0a36.57,36.57,0,0,1,1.7,6.5s.5.6.6-.2"/><path class="cls-1" d="M85.45,45.21c.3.6.7-.2.7-.5-.8-2.6-3.2-6.5-3.8-6.3a46,46,0,0,1,3.1,6.8"/><path class="cls-1" d="M73.85,50.11l.4-3.2a.45.45,0,0,0,0-.5l-.3.4c-.3.4-1.7,4.4-1,5.6a.82.82,0,0,0,.6.4h.9a3.39,3.39,0,0,0,2.7-1c1.4-1.5,1.1-4.4,1-7v-.5c0-.5-.3-.7-.4-.7h-.3a.85.85,0,0,0,0,.7,13.46,13.46,0,0,1-1.1,5.9,2.2,2.2,0,0,1-1.6,1.2c-.4-.1-.8-.4-.9-1.3"/><path class="cls-1" d="M75.85,48.91a18.19,18.19,0,0,0,0-3.3h0a.27.27,0,0,0-.3.3,16.48,16.48,0,0,1-.4,3.2.45.45,0,0,0,0,.5h0a.56.56,0,0,0,.6-.5"/><path class="cls-1" d="M74.25,39.71a.3.3,0,0,0,.4,0h0a.48.48,0,0,0-.2-.6c-.9-.3-3-1.4-3.9-1.6h0a.19.19,0,0,0,0,.3c1.2.5,2.4,1.2,3.7,1.9"/><path class="cls-1" d="M67,53a2.16,2.16,0,0,0,1.7.5,2.62,2.62,0,0,0,2.6-1.8l.9-3.6a.3.3,0,0,0,0-.4h-.3c-.3,0-.8.3-.9,1.1a9.33,9.33,0,0,1-1.2,3.3.84.84,0,0,1-.7.4.55.55,0,0,1-.5-.3.64.64,0,0,1,0-.6,5.31,5.31,0,0,0,.8-1.7.3.3,0,0,0,0-.4h0l-.4.2a11,11,0,0,1-1.7,2.5c-.3.5-.3.8,0,1.1"/><path class="cls-1" d="M57.25,49.31a1.1,1.1,0,0,0-.8,0c-.3,0-.5,0-.6.2v.4a7.3,7.3,0,0,1,2.9,9.7.45.45,0,0,0,0,.5h0a.86.86,0,0,0,.6-.3,7.35,7.35,0,0,0-1.8-10.2c-.2-.1-.4-.3-.6-.4"/><path class="cls-1" d="M24.35,66c0,.3,0,.5.4.6H25a.68.68,0,0,0,.6-.4,1.1,1.1,0,0,0,0-.8c-.7-1.3,0-1.8.5-2.5h0a4.35,4.35,0,0,0,.6-.7.85.85,0,0,0,0-.7.56.56,0,0,0-.6-.5,1.85,1.85,0,0,0-.7.2,6.89,6.89,0,0,1-1.3,1.1h-.3s-.5.3,0,1.1a9.49,9.49,0,0,1,.9,2.1"/><path class="cls-1" d="M27.15,67.21a1,1,0,0,0,.8.5.19.19,0,0,0,.3,0,1.27,1.27,0,0,0,0-1.2c-.7-1.7,0-2.3,1-3.2h0a.61.61,0,0,0,0-.8c-.1-.1-.3-.2-.4-.1h-.5c-1.9,1.2-2.3,2.4-1.4,4.9"/><path class="cls-1" d="M29.45,65.71l.4,2.3a.87.87,0,0,0,.8.6.76.76,0,0,0,.5-.2,1.1,1.1,0,0,0,0-.8,2.6,2.6,0,0,1,.4-2.9l.8-.8a1.1,1.1,0,0,0,0-.8.78.78,0,0,0-.8-.2h-.3l-1.1,1a1.69,1.69,0,0,0-.8,1.7"/><path class="cls-1" d="M54.15,50.71h-.5a.75.75,0,0,0-.7.5,1.24,1.24,0,0,0,.3,1.4,6.46,6.46,0,0,1,2.9,3.6,4.6,4.6,0,0,1-1,3.9l-7.3,6.7c-4.9,4.6-5.5,8.8-2,12.8h.2V79c-2.6-5.4.9-8.4,5.3-12.2h0a56.07,56.07,0,0,0,6.5-6.4c1.6-3.3.5-6.5-3.7-9.7"/><path class="cls-1" d="M57,78.21c-1.1,0-2.2.1-3.3.2h-.3a7.39,7.39,0,0,1-2.1,0c-1.9,0-3.4-.7-4.2-4.3,0-.5,0-.6-.3-.8a1,1,0,0,0-.6,1c0,4.9,3.2,4.9,7.8,4.9,1.4,0,2.9.1,4.3.2a5.87,5.87,0,0,1,4.5,4.1,5.37,5.37,0,0,1-2,5.3c-.4.4-.6.7-.5,1a1,1,0,0,0,1.1.5.85.85,0,0,0,.7,0,6.61,6.61,0,0,0,2.6-6.8,7.14,7.14,0,0,0-6.2-5.4l-1.5.1"/><path class="cls-1" d="M48.75,60.51a14.7,14.7,0,0,0-8.4,15.4,10.09,10.09,0,0,0,9.1,8.5h8.1a1.46,1.46,0,0,1,1.3.7,1.7,1.7,0,0,1-.3,1.7q-.3.45,0,.6h0a1.49,1.49,0,0,0,.7-.3,2.86,2.86,0,0,0,1-3.1,2.64,2.64,0,0,0-2.5-1.6h-3.7a14,14,0,0,1-6.7-.8,9.31,9.31,0,0,1-5.3-8,14.41,14.41,0,0,1,7.7-12.2c2.3-1.5,4.9-3.3,5.4-4.9a1.7,1.7,0,0,0,0-1h-.5a16.56,16.56,0,0,1-5.8,4.4"/><path class="cls-1" d="M34.85,76.61a3.69,3.69,0,0,0,.9,4.1,34.7,34.7,0,0,0,4.4,3.1,6.31,6.31,0,0,1,2.4,4.9h0a3.64,3.64,0,0,0,.2,1.4,3.83,3.83,0,0,0,3.3,3h0a.84.84,0,0,0,.7-.4c0-.2,0-.4-.4-.4-1.7-.7-2.5-1.4-2.6-2.5a12.91,12.91,0,0,0-2.5-6.3,26.66,26.66,0,0,1-4.3-3.2,1.39,1.39,0,0,1-.5-1,10.31,10.31,0,0,1,1.8-6.8,7.08,7.08,0,0,0-4.3-7.8h-.7a.84.84,0,0,0,.2.7c3,2.2,4.8,4.4,1.4,11.2"/><path class="cls-1" d="M36.15,85.51a6,6,0,0,1,3,5.2c.4,5.3,3,7.9,7.9,7.8h0a4.28,4.28,0,0,0,2.2-.6h0a1.39,1.39,0,0,0-.5-1,1.07,1.07,0,0,0-1.1-.5H47a2.77,2.77,0,0,1-1.3.3,2.05,2.05,0,0,1-1.1,0,5.55,5.55,0,0,1-4.2-5.3,6.34,6.34,0,0,0-2.4-6.1,14.39,14.39,0,0,1-4.9-4.3,6,6,0,0,1,.3-6.3l.6-1.2a5.75,5.75,0,0,0,.5-2.6q0-3.9-2.1-4.5h-.7a1.55,1.55,0,0,0,.5,1c1.7,1.4,1.7,3.8,0,7.8a6.18,6.18,0,0,0-.6,5.9,13.83,13.83,0,0,0,4.6,4.4"/><path class="cls-1" d="M51.65,98h.4v-.3a3.19,3.19,0,0,0-1.4-.3h0a1.1,1.1,0,0,0,1,.6"/><path class="cls-1" d="M54.65,97.31v-.4a3.37,3.37,0,0,0-1.7-.5h0v.3a1.75,1.75,0,0,0,1.7.6Z"/><path class="cls-1" d="M55,95.41h-.4a1.62,1.62,0,0,0,1.7,1H57v-.3a2.72,2.72,0,0,0-2.1-.9"/><path class="cls-1" d="M55.85,90.71a1.78,1.78,0,0,0,1-.4l.8-.7a.28.28,0,0,0,0-.5h0a1.7,1.7,0,0,1-.4-2.2.64.64,0,0,0,0-.6H57a1.61,1.61,0,0,0-.7.4h0a2.84,2.84,0,0,0-1.3,3.2c-.2.5.3.8.9.8Z"/><path class="cls-1" d="M50.15,96.11h.3a2.88,2.88,0,0,1-1-2.5,5.1,5.1,0,0,0-1.1-3.1.52.52,0,0,0-.2.4,1.08,1.08,0,0,0,0,1.1,2.32,2.32,0,0,1,.4,1.8c0,1.4.3,2.2,1.6,2.4"/><path class="cls-1" d="M52.15,95.51h.2c.4,0,.4-.3.4-.3l-.2-.2a2.48,2.48,0,0,1-1.2-2.8,2.25,2.25,0,0,0-.3-2.1,2,2,0,0,1-.4-2h-.5a1.39,1.39,0,0,0-.7.8,2.86,2.86,0,0,0,.6,2.2,1.79,1.79,0,0,1,.4,1.7,3.17,3.17,0,0,0,.7,2.3,1.78,1.78,0,0,0,1,.4"/><path class="cls-1" d="M55,86.51v-.3h-.8a2.35,2.35,0,0,0-2.2,1,2,2,0,0,0,0,2.1,1.65,1.65,0,0,1,0,1.9,2.35,2.35,0,0,0,1.2,3.1,1.45,1.45,0,0,0,.7.2h.5a1.09,1.09,0,0,1-.1-1.5l.1-.1a1.38,1.38,0,0,0,.3-.4.71.71,0,0,0-.4-.6,3.42,3.42,0,0,1,.2-4.7l.2-.2"/><path class="cls-1" d="M63.05,95.51a3.52,3.52,0,0,1,2-1.4,6.58,6.58,0,0,0,2.3-1.7,4.12,4.12,0,0,0-1-4.9H66a.55.55,0,0,0-.5.3,1.39,1.39,0,0,0,0,.9l.8,1.4a1.61,1.61,0,0,1-.6,2.2c-.1,0-.1.1-.2.1a10.79,10.79,0,0,0-3.7,2.6,1.33,1.33,0,0,1-1,.6,1.14,1.14,0,0,1-.8-.3l-1.5-1.5a1.39,1.39,0,0,1,0-.9.49.49,0,0,1,.6-.3h.3l1,.4h.3l.2-.3a2,2,0,0,0-1.3-2h-.7a3.3,3.3,0,0,0-2.7,1.8c-.7,1.1.8,2.1,2.3,3.3.4.3.9.7,1.4,1.1a1.49,1.49,0,0,0,.9.2.85.85,0,0,0,.7,0,4.89,4.89,0,0,0,1.8-1.4"/><path class="cls-1" d="M67.05,97.31h.3a11.42,11.42,0,0,1,3.5,1.3.37.37,0,0,0,.6,0h0c0-.2-.1-.3-.3-.4a11.06,11.06,0,0,0-5.3-1.7,4.29,4.29,0,0,0-1.6,0c-.5.3-.9.7-.9,1.1a.68.68,0,0,0,.4.6l3.4.9,2.3,1h.2a.45.45,0,0,0,.5,0v-.4a8.06,8.06,0,0,0-3-1.3c-.7-.2-.7-.5-.7-.6s0-.3.6-.3"/><path class="cls-1" d="M69.05,92.71a3.45,3.45,0,0,0-1.2,1.2,1.48,1.48,0,0,0,0,1.3c.6,1.2,3,1.8,4.2,2.1h0c.3,0,.6,0,.6-.3v-.3h0a8.4,8.4,0,0,1-3.1-1.9c0-.5-.3-.9,0-1.2a1.63,1.63,0,0,1,1.1-.5,4.53,4.53,0,0,1,1.6.3h.2V93a2.92,2.92,0,0,0-1.2-.7,2.63,2.63,0,0,0-2.1.6"/><path class="cls-1" d="M71.15,93.81h0c-.3,0-.4,0-.4.2v.5a13,13,0,0,0,3.2,1.4h0s.2,0,.3-.3a.45.45,0,0,0,0-.5,28.8,28.8,0,0,0-3.1-1.3"/><path class="cls-1" d="M71.75,102.71h0a2.85,2.85,0,0,0,1.3,0,15.91,15.91,0,0,1,4.9-1.1c.3,0,.6,0,.6-.4s0-.5-.6-.5h-.7a15.69,15.69,0,0,0-4.3.9h-.3a.45.45,0,0,1-.5,0,1.31,1.31,0,0,1,.3-1,9.32,9.32,0,0,1,4.9-2.8c.3,0,.4-.3.4-.6h0a.62.62,0,0,0-.6-.4,9.81,9.81,0,0,0-6,3.9,1.79,1.79,0,0,0-.3,1.7,1.31,1.31,0,0,0,1.2.6"/><path class="cls-1" d="M75,99.21v.4c0,.1.4.2.8.2a3.7,3.7,0,0,0,2.1-.6v-.3h-1a3,3,0,0,0-1.9.5"/><path class="cls-1" d="M70.15,89.41a1.1,1.1,0,0,1,0-.8c0-.3.5-.3.7-.3h0a3.23,3.23,0,0,0-2.4-1.3h-.3c0,1.8.9,3.1,3.2,4h.4Z"/><path class="cls-1" d="M67.35,80.81h0a5.7,5.7,0,0,0,1.4,4.5,2.4,2.4,0,0,0,1.7.9h.4a1.7,1.7,0,0,0,0-1,2.19,2.19,0,0,0-1-.9c-.1.2-.2.3-.4.3-.5,0-1.1-.8-1.1-1.7a1.68,1.68,0,0,0-1-2.1"/><path class="cls-1" d="M72.75,87.21a1.56,1.56,0,0,0-.8-.6h0v.2a12,12,0,0,0,4,8.4.85.85,0,0,0,.7,0c.7,0,1-.8,1.1-1a5.66,5.66,0,0,0-.5-3.1.6.6,0,0,0-.6-.3h-.3v1.6a.64.64,0,0,1,0,.6h-.2a1.07,1.07,0,0,1-.6-.2,7.34,7.34,0,0,1-2.1-5.2,1.4,1.4,0,0,0-.3-.9"/><path class="cls-1" d="M81.05,102.71a3.55,3.55,0,0,0,1,.2,1.49,1.49,0,0,0,.9-.4,5,5,0,0,0,.3-3.6h0a2.84,2.84,0,0,0-.6-.9h0v2.5c0,.6,0,.8-.5.9a.86.86,0,0,1-.6-.3,13.16,13.16,0,0,1-1.5-6.7c0-.8-.5-1.3-.8-1.3s-.2,0-.2.6a12.47,12.47,0,0,0,2.5,9.1h-.5Z"/><path class="cls-1" d="M81.25,98.91h0a1.1,1.1,0,0,0,0-.8l-.2-1.7a1,1,0,0,0-.5-.4.29.29,0,0,0-.3.3,3.36,3.36,0,0,0,.4,2.4H81"/><path class="cls-1" d="M75.25,91.51a2.57,2.57,0,0,0,.2-.5,1.75,1.75,0,0,0-.4-1.2c0-.2-.3-.2-.3-.2v.2a1.7,1.7,0,0,0,0,1.4.55.55,0,0,0,.5.3"/><path class="cls-1" d="M88.05,32.91h-.5s0,.4.7.4a2.59,2.59,0,0,1,3,1.7.91.91,0,0,1,0,1,1.31,1.31,0,0,1-.9.3h0v.3a1.08,1.08,0,0,0,.8.2,1.49,1.49,0,0,0,.9-.4,1.48,1.48,0,0,0,0-1.3,3.73,3.73,0,0,0-4.1-2.5"/><path class="cls-1" d="M89.85,35.51s.2,0,.2-.3-.2-.8-1-.9h0l.3.7c.2.2.3.4.5.5"/><path class="cls-1" d="M90.85,38.61c-.2,0-.4.1-.4.3V39s0,.4.3.4c1.7,0,2.2,1,2.2,3.1,0,1-.6.9-1,.9a1.7,1.7,0,0,1-1,0,.45.45,0,0,0-.5,0v.3a3.1,3.1,0,0,0,2.2.9.85.85,0,0,0,.7,0c.6-.5.8-1.4.5-2.8a3.08,3.08,0,0,0-3.1-2.9h-.1"/><path class="cls-1" d="M91.55,42a.19.19,0,0,0,.3,0,1.39,1.39,0,0,0-.2-1.1h-.6c-.3,0-.5,0-.5.4v.5a1.8,1.8,0,0,0,.9.4"/><path class="cls-1" d="M92,52.21h.2a6.31,6.31,0,0,0,2.8-3.8,2.82,2.82,0,0,0-.4-2,3.58,3.58,0,0,0-2.4-.9h-.3a1.05,1.05,0,0,0-.9.5.45.45,0,0,0,0,.5l1.5.3a1,1,0,0,1,.8.7,3.08,3.08,0,0,1-.4,2.1c-1.1,1.3-1.7,1.4-1.4,2.2s0,.4.3.4"/><path class="cls-1" d="M91.25,49h.6c.6,0,.6-.2.6-.4a2,2,0,0,0-.6-.9h-.7a.66.66,0,0,0-.4.5.55.55,0,0,0,.5.5"/><path class="cls-1" d="M95.55,29.91h-.3a6,6,0,0,0,3.2,1.2.85.85,0,0,0,.7,0v-.4A11.4,11.4,0,0,0,88.45,25h-2a3,3,0,0,0,1.5.8l1.9.1a7.79,7.79,0,0,1,6.7,2.6,1.25,1.25,0,0,1,.3,1.1c-.1.3-.5.5-1.2.5"/><path class="cls-1" d="M92.85,27.61h-1.1l.4.4a3.79,3.79,0,0,0,1.5,0,1.1,1.1,0,0,0,.8,0h.2l-.4-.4a2.44,2.44,0,0,0-1.2,0"/><path class="cls-1" d="M102.45,28.61a1.91,1.91,0,0,1-1-.5,7.42,7.42,0,0,0-3.5-2.3h-.4a12.9,12.9,0,0,0,7,4.9h.6a.3.3,0,0,0,.4,0,.19.19,0,0,0,0-.3,3.3,3.3,0,0,0-2.5-3c0,.6.3,1,0,1.3a.71.71,0,0,1-.6.3"/><path class="cls-1" d="M107.15,131.61h.6a.87.87,0,0,1-.6-.8,2.21,2.21,0,0,1,.8-1.9c3.8-2,4.9-3.7,4.5-6.8a.19.19,0,0,0,0-.3,1.14,1.14,0,0,0-.8-.3,1.23,1.23,0,0,0-1.1.7,6.31,6.31,0,0,1-2.1,4.2,23.11,23.11,0,0,1-10.8,3.3,3.5,3.5,0,0,0-3.5,2.1l-1.3,3.4a1.62,1.62,0,0,1-1.6,1.4l-3.3-.3a1.22,1.22,0,0,1-.9-.4,1.1,1.1,0,0,1,0-.8,24.77,24.77,0,0,1,1.1-8.1,2.81,2.81,0,0,0-.3-2.5c-.1-.1-.2-.3-.3-.3l-.4.5a25.68,25.68,0,0,0-1.9,11.3c0,1,.2,1.6,1.2,1.8l6.8.5q1.5,0,1.5-1.2c.3-3.5,1.5-5.3,3.4-5.4l5.4-.9h.4a1.3,1.3,0,0,1,1.3.5,3,3,0,0,0,1.8.6"/><path class="cls-1" d="M103.45,119.81h-.3a1.16,1.16,0,0,0-1.2,1.3,1,1,0,0,0,.8.9h.5a4.82,4.82,0,0,1,2.2-1.5,5.37,5.37,0,0,0-2.1-.5"/><path class="cls-1" d="M102,126.41h.5a3.87,3.87,0,0,0,1.9-1.2,8.57,8.57,0,0,1-2.7-.5h-.3a.68.68,0,0,0-.7.7h0a.91.91,0,0,0,.3.7,1,1,0,0,0,1,.3"/><path class="cls-1" d="M99.25,121.21a5.6,5.6,0,0,1,1.6-2.1h-.6a4.33,4.33,0,0,0-1.9.4,1.43,1.43,0,0,0-.8,1.4,1.08,1.08,0,0,0,1,.8c.3,0,.5-.2.7-.5"/><path class="cls-1" d="M90.85,132.21a.75.75,0,0,0,.7-.5,4.47,4.47,0,0,1,.9-2.5,4.12,4.12,0,0,0-2.1,1,1.4,1.4,0,0,0-.3,1.5c0,.2.4.5.8.5"/><path class="cls-1" d="M120.05,129.51a7.48,7.48,0,0,1,3.2-1,6,6,0,0,0-3.1-1.5c-2.7,0-1.9,3.3,0,2.4"/><path class="cls-1" d="M123.85,125.21a7.6,7.6,0,0,1,.6-2.6,3.6,3.6,0,0,0-2,1.1,1.4,1.4,0,0,0-.3,1.5,1.1,1.1,0,0,0,1,.6.86.86,0,0,0,.7-.6"/><path class="cls-1" d="M128.65,123.81h-.6a3.66,3.66,0,0,0-1.8.4,1.32,1.32,0,0,0-.7,1.5,1.22,1.22,0,0,0,.9.8.75.75,0,0,0,.7-.4,5.13,5.13,0,0,1,1.5-2.3"/><path class="cls-1" d="M125.65,129.61h.5a3.74,3.74,0,0,0,2-1.2,8.68,8.68,0,0,1-2.8-.5h-.3a.68.68,0,0,0-.7.7v.1a.78.78,0,0,0,.3.7,1.16,1.16,0,0,0,1,.2"/><path class="cls-1" d="M95.35,125.81a1,1,0,0,0,1,.7,1.44,1.44,0,0,0,1.1-.7,4.56,4.56,0,0,0,.6-2.2,10.89,10.89,0,0,1-2.3,1.4c-.3,0-.5.4-.4.8"/><path class="cls-1" d="M82.85,119.41a4.45,4.45,0,0,0-2.8,1.6,6.2,6.2,0,0,1,3.2.9c1.9.6,2.3-2.6-.4-2.5"/><path class="cls-1" d="M76.15,117.21a.85.85,0,0,0,.8-.7,1.4,1.4,0,0,0-.8-1.5,5.55,5.55,0,0,0-1.7-.3h-.6a5.51,5.51,0,0,1,1.7,2,1.47,1.47,0,0,0,.6.5"/><path class="cls-1" d="M72.25,117c0-.5-.3-1.2-1.4-1.3a3.7,3.7,0,0,0-2.1.6,4.64,4.64,0,0,1,2.3,1.2.45.45,0,0,0,.5,0,.77.77,0,0,0,.7-.8h0"/><path class="cls-1" d="M73.25,120.31a5.29,5.29,0,0,1-3,.9,6.21,6.21,0,0,0,2.9,1.5c2.6,0,1.9-3.1,0-2.3"/><path class="cls-1" d="M76.85,120.41a1.1,1.1,0,0,0,.8,0,1.06,1.06,0,0,0,1-.9h0a.77.77,0,0,0-.7-.8h-1.1a4.3,4.3,0,0,1-1.6,0,5.1,5.1,0,0,0,1.6,1.7"/><path class="cls-1" d="M59,116.41a1.61,1.61,0,0,0,.9.3.9.9,0,0,0,.9-.9c0-.2,0-.8-1-.9a5.87,5.87,0,0,1-2.3-.4,5.75,5.75,0,0,0,1.5,1.9"/><path class="cls-1" d="M52.45,117.11a1.39,1.39,0,0,0,.9,0,.9.9,0,0,0,.9-.9.88.88,0,0,0-.8-.9H53a5.82,5.82,0,0,1-1.9-.3,3.76,3.76,0,0,0,1.5,1.8"/><path class="cls-1" d="M49.65,111.21h-.4a5.26,5.26,0,0,0-1.8.4,7.17,7.17,0,0,1,1.5,1.1h0a.55.55,0,0,0,.5.3h.4a.82.82,0,0,0,.9-.8c0-.4-.3-.9-1.1-1"/><path class="cls-1" d="M38.05,103.81h0a1.06,1.06,0,0,0,1,.9.71.71,0,0,0,.6-.3,1.48,1.48,0,0,0,0-1.3,4.36,4.36,0,0,0-1.6-1.7,5.44,5.44,0,0,1,0,1.8v.6"/><path class="cls-1" d="M36,101.51a4.36,4.36,0,0,0-1.6-1.7,4.84,4.84,0,0,1,0,1.7v.7h0a.89.89,0,0,0,1,.8.71.71,0,0,0,.6-.3,1.38,1.38,0,0,0,0-1.2"/><path class="cls-1" d="M35.45,104.81h-.3a4.85,4.85,0,0,1-2.1-.8,4.25,4.25,0,0,0,1.4,2.3,1.88,1.88,0,0,0,.8.2.86.86,0,0,0,.2-1.7"/><path class="cls-1" d="M39,109.21a1.4,1.4,0,0,0,.9.3,1,1,0,0,0,.9-.7.83.83,0,0,0-.5-1H40a6.67,6.67,0,0,1-2.1-.9,5.45,5.45,0,0,0,1.2,2.4"/><path class="cls-1" d="M86.75,116.21a.85.85,0,0,0,0-.7,8.1,8.1,0,0,1,0-2.2s0-.5-.9-.6h-.5a3.34,3.34,0,0,0-1.8,6.1h.5a1.1,1.1,0,0,0,0-.8,1.08,1.08,0,0,1,0-1.1c.3-.4,1-.6,2.1-.7Z"/><path class="cls-1" d="M91,124.91h.5a1.7,1.7,0,0,1,0-3.1c.6-.5.4-.8,0-1.2a6.12,6.12,0,0,1-1.5-1.7.6.6,0,0,0-.6-.3,1.61,1.61,0,0,0-.9.3,3.4,3.4,0,0,0,2.1,6.1"/><path class="cls-1" d="M114.15,124.31h0a2.05,2.05,0,0,0,1.1,0A3,3,0,0,0,118,122a3.52,3.52,0,0,0-1.6-4.1.62.62,0,0,0-.7-.2.55.55,0,0,0-.5.3,11.92,11.92,0,0,1-1.5,1.8.64.64,0,0,0,0,.6,1.21,1.21,0,0,0,.5.5,1.77,1.77,0,0,1,1.1,1.4,2.56,2.56,0,0,1-1,1.8"/><path class="cls-1" d="M108.15,119.81a2,2,0,0,0,1.5.6,1.93,1.93,0,0,0,1-.3,5.94,5.94,0,0,0,3.5-3.1,2.08,2.08,0,0,0-.5-2,2.84,2.84,0,0,0-2.3-1.1H111a4.36,4.36,0,0,1-3.5-1.8,3.18,3.18,0,0,0-1.5-1.2h-.6v.2a3.82,3.82,0,0,0,1.5,2.2,16.41,16.41,0,0,0,2.9,1.6c.6.4.9.7.8,1.1a2,2,0,0,1-1.1,1.2H109c-.5,0-1-.3-1.5-1.1a20.1,20.1,0,0,0-3.3-3.9h-.7a3.13,3.13,0,0,0-1.1.9c-.2.3-.4.5-.7.5a1.85,1.85,0,0,1-.7-.2h-.3a20.14,20.14,0,0,0-4.9,3.8,1.27,1.27,0,0,1-.9.4h-.3a1,1,0,0,1,.5-1.1,17,17,0,0,0,3.8-3.3v-.4a2.09,2.09,0,0,0-.4-.6,2.88,2.88,0,0,0-1.6-.3,4.67,4.67,0,0,0-1.7.3,4.84,4.84,0,0,1-1.7,0,8.42,8.42,0,0,1-2.7-.4h-.7a1.56,1.56,0,0,0-1.3.7l-.3.9a5.28,5.28,0,0,0,0,2.5c.1.3.2.5.3.8a.55.55,0,0,0,.5.3,3.18,3.18,0,0,0,.9-.3,2.61,2.61,0,0,0,1.3-2.4,1.09,1.09,0,0,1,.8-.8,10.66,10.66,0,0,1,3-.6h.9a.67.67,0,0,1,.7.5,1.2,1.2,0,0,1-.5.8,19.48,19.48,0,0,1-4.1,2,2.11,2.11,0,0,0-1.1,2.5c0,.6.7,1.4,1.9,2.3a2,2,0,0,0,1.1.3,2.32,2.32,0,0,0,1.9-1.4q0-.6,1.2-1.2a20.94,20.94,0,0,0,2.8-2.4c.1-.2.3-.2.5-.2.4,0,.5.4.6.8v.4c.3.4.5.6.8.6s.7-.3,1.2-.9a.91.91,0,0,1,.7-.3h.1v1.4a.45.45,0,0,1,.5,0,1.93,1.93,0,0,1,1,.3Z"/><path class="cls-1" d="M90.45,104.61a.45.45,0,0,0-.5,0v.5l3.2,4.4a1.94,1.94,0,0,0,1.6.8.91.91,0,0,0,.7-.3,1.48,1.48,0,0,0,0-1.3c0-.3-.2-.5-.3-.5v.2a1.61,1.61,0,0,1-.7.4.84.84,0,0,1-.7-.4l-2.7-3.7a.47.47,0,0,0-.6-.1"/><path class="cls-1" d="M100.35,111.91a.64.64,0,0,0,.6,0c.3,0,.7,0,.9-1a7.06,7.06,0,0,0-.5-3.8l-2.6-5.7c0-.4-.2-.4-.3-.4l-.3.5a3.85,3.85,0,0,0,.7,2.9c.4.6.8,1.4,1.2,2.1l.5,1a1.91,1.91,0,0,1,0,1.8,1.23,1.23,0,0,1-.8.4,1.05,1.05,0,0,1-.9-.5l-2.5-3.7a4.48,4.48,0,0,0-2.3-2.2h-.7v.4a23.08,23.08,0,0,1,1.9,2.8h0a12.55,12.55,0,0,0,4.9,5.3"/><path class="cls-1" d="M96.85,103.91v.4l1.9,3.4h0a.52.52,0,0,0,.4-.2.64.64,0,0,0,0-.6l-1.9-3h-.4Z"/><path class="cls-1" d="M94.05,107.71h0a.52.52,0,0,0,.4-.2.45.45,0,0,0,0-.5l-1.6-2.5h0v.3Z"/><path class="cls-1" d="M104.75,109.21h1.1a.45.45,0,0,0,0-.5,19.18,19.18,0,0,0-1.5-6.6,4.55,4.55,0,0,1-.5-2,.45.45,0,0,0,0-.5h-.3a2.55,2.55,0,0,0,0,2.4l1.3,3.4a1.26,1.26,0,0,1,0,1.2h0a.75.75,0,0,1-.7-.5,8.21,8.21,0,0,1-1.1-3.1c-.4-1.4-.7-1.5-1.1-1.7h-.4a11.84,11.84,0,0,0,3.8,7.4"/><path class="cls-1" d="M99.55,83.81a1,1,0,0,0-.5.4,1.7,1.7,0,0,0,0,1,19.49,19.49,0,0,1,2.4,10.6c0,1.2-.7,1.3-.9,1.3a1.33,1.33,0,0,1-1-.6,44.42,44.42,0,0,1-2.4-4.9h0c-.6-1.3-1.2-2.8-1.8-3.9h0l-.3.6a3.36,3.36,0,0,0,.4,2.2,34,34,0,0,1,1.6,3.4h0a16.36,16.36,0,0,0,3.3,5.7,1.61,1.61,0,0,0,.9.3c.4,0,.7-.3,1-.9a23.67,23.67,0,0,0-2.4-15h-.3"/><path class="cls-1" d="M99.55,94s.3,0,.3-.5a10.35,10.35,0,0,0-3.2-7.6h-.4a.19.19,0,0,0-.3,0,.85.85,0,0,0,0,.7,26.71,26.71,0,0,1,3.5,7.2.2.2,0,0,0,.2.2"/><path class="cls-1" d="M95.05,102.11a1.1,1.1,0,0,0,.8,0c.3,0,1.1,0,1.3-1.3a20.49,20.49,0,0,0-3.5-11.5.76.76,0,0,0-.5-.2.91.91,0,0,0-.7.3.45.45,0,0,0,0,.5,17.25,17.25,0,0,0,1.6,3.7v.2a42.2,42.2,0,0,1,1.8,4.5,1.48,1.48,0,0,1,0,1.3.55.55,0,0,1-.5.3,1.49,1.49,0,0,1-.9-.4,30.81,30.81,0,0,1-3.7-5.2V94a29,29,0,0,0-1.9-2.9c-.3-.3-.5-.5-.7-.5h-.3a1.08,1.08,0,0,0,0,1.1,35.79,35.79,0,0,0,7.6,10.1"/><path class="cls-1" d="M88.25,88.91h-.2v.3a33.72,33.72,0,0,1,4.9,7.9h.2a.85.85,0,0,0,0-.7,13.28,13.28,0,0,0-4.7-7.5Z"/><path class="cls-1" d="M89.85,103.11c.8,0,1.2-.7,1.2-1.7a16.18,16.18,0,0,0-5.4-9,1.42,1.42,0,0,0-.6-.2h0A56,56,0,0,1,90,99a1.72,1.72,0,0,1,0,1.7.91.91,0,0,1-.8.4,1.39,1.39,0,0,1-1-.5,83.27,83.27,0,0,0-7.6-9.1.76.76,0,0,0-.4-.2h-.3a.45.45,0,0,0,0,.5,111.69,111.69,0,0,1,8.2,10,2.59,2.59,0,0,0,1.7.9"/><path class="cls-1" d="M81.65,90.41h0a1.39,1.39,0,0,0,0,.9l6.3,7.6h.4a.45.45,0,0,0,0-.5l-6.3-8Z"/><path class="cls-1" d="M107,31a8.72,8.72,0,0,0,3.7,1.9h.4a1.54,1.54,0,0,0,.5-1.3,2,2,0,0,0-1.4-1.4h0a2.92,2.92,0,0,1-.2.9,1.14,1.14,0,0,1-.8.3,1.19,1.19,0,0,1-1.2-1,2.69,2.69,0,0,0-1.3-1.8h0a2.49,2.49,0,0,1,.3,1.7.75.75,0,0,0,0,.9"/><path class="cls-1" d="M99,35.51h-.9v.3a3.63,3.63,0,0,0,2.6,1.1,1.43,1.43,0,0,0,1.2-.6c.3-.5,0-1.6-.6-2.8h0s0-.4-1.2-1.4h0c0,.3-.3.4-.8.5H97a.86.86,0,0,0,.7.6c2.3,0,3.2.8,3.2,1.5s-.6,1.1-1.5,1.1"/><path class="cls-1" d="M99.85,39.61c1.7.5,2.2,1.7,2.1,2.5a1.22,1.22,0,0,1-1.2,1.2,2,2,0,0,1-1.3-.6,1.1,1.1,0,0,0,0,.8,4.22,4.22,0,0,0,3.3,2.3,1,1,0,0,0,.9-.4,1.91,1.91,0,0,0,0-1.8,10.35,10.35,0,0,1-1.1-4.9.45.45,0,0,0,0-.5l-.5.2a1.39,1.39,0,0,1-1.1.2,3.08,3.08,0,0,1-1.9-.6l-.2.2v.3Z"/><path class="cls-1" d="M93.75,66.71a1.08,1.08,0,0,0,0,1.1q1.8,2.55,3.3,5.1v.2c.9,1.5,1.6,2.6,2.1,3.4a.82.82,0,0,0,.6.4c.2,0,.5-.4.5-1a24.41,24.41,0,0,0-5.4-12.4h0a.75.75,0,0,0,0,.9,30.23,30.23,0,0,1,3.6,6.9,1.39,1.39,0,0,1,0,.9h0a.79.79,0,0,1-.7-.6,30,30,0,0,0-3.3-5.4h0Z"/><path class="cls-1" d="M90.45,73.41a.19.19,0,0,0-.3,0,1.08,1.08,0,0,0,0,1.1,86.79,86.79,0,0,0,4.6,8.5,2.77,2.77,0,0,0,2,1.3,1.85,1.85,0,0,0,1.7-1.1,6,6,0,0,0,0-4.9,57.49,57.49,0,0,0-5.3-9,.3.3,0,0,0-.4,0,.19.19,0,0,0-.3,0,.91.91,0,0,0,0,1,44.33,44.33,0,0,1,4.9,9.1,2.75,2.75,0,0,1,0,2.5,1.15,1.15,0,0,1-1.1.6,1.39,1.39,0,0,1-1.2-.7,49.94,49.94,0,0,1-4.2-7.9.76.76,0,0,0-.4-.2"/><path class="cls-1" d="M95.45,79.21a.71.71,0,0,0,.6-.3.75.75,0,0,0,0-.9l-3.8-6.8c0-.1-.1-.3-.2-.3h0a2.21,2.21,0,0,0,0,1.6l3.2,6.7h.2"/><path class="cls-1" d="M91.15,88.51a2.4,2.4,0,0,0,2.2-1.4,3.76,3.76,0,0,0-.2-3.7,49.73,49.73,0,0,1-3.8-8.1.75.75,0,0,0-.7-.7.92.92,0,0,0-.6.4.64.64,0,0,0,0,.6c1.2,2.9,2.6,5.7,4.1,8.5a2,2,0,0,1,0,2.1,1.23,1.23,0,0,1-1.1.7A1.44,1.44,0,0,1,90,86a27.57,27.57,0,0,1-3.2-4.9l-.3-.5c-.6-1-1.3-2.1-1.9-3.1a.71.71,0,0,0-.6-.3.68.68,0,0,0-.6.4.85.85,0,0,0,0,.7l5.4,8.5a3.07,3.07,0,0,0,2.4,1.7"/><path class="cls-1" d="M85.55,76.71l4.3,7.4a.75.75,0,0,0,.7.4h0v-1.2l-4.3-8H86v.4a.64.64,0,0,1,0,.6.75.75,0,0,0,0,.9"/><path class="cls-1" d="M86.45,90.41a2.75,2.75,0,0,0,0-2.5,31.91,31.91,0,0,0-4.9-8.6l-.3-.5a1.16,1.16,0,0,0-1-.4h-.4v.3a54.18,54.18,0,0,1,4.9,8.4,1.71,1.71,0,0,1,0,1.4,1.15,1.15,0,0,1-.9.6,1.05,1.05,0,0,1-.9-.5,74.86,74.86,0,0,1-7.1-8.9.73.73,0,0,0-.6-.2.55.55,0,0,0-.5.3.85.85,0,0,0,0,.7,64.35,64.35,0,0,0,7.5,9.7,2.46,2.46,0,0,0,2.1.8,1.82,1.82,0,0,0,1.4-.6"/><path class="cls-1" d="M77.25,78.41a22.58,22.58,0,0,0,5.7,8h.3v-.6c-1.9-3-3.8-5.7-5.6-8h-.3c-.1.1-.1.3-.1.6"/><path class="cls-1" d="M79.35,90.41a.64.64,0,0,0,.6,0v-1a39,39,0,0,0-6.7-9,.86.86,0,0,0-.6-.3h0v.3a51.3,51.3,0,0,1,4.4,6,1.1,1.1,0,0,1,0,.8h0a1.08,1.08,0,0,1-.7-.3c-2.4-2.8-4.7-5.8-6.8-8.8a.55.55,0,0,0-.5-.3,1,1,0,0,0-.7.4.64.64,0,0,0,0,.6l.4.6c2.8,4.2,6.3,9.3,10.6,10.7Z"/><path class="cls-1" d="M88.55,57.71a3,3,0,0,0-.4.8v1.3h.3a4.65,4.65,0,0,0,1.9-3.9l-.5-6.7a.68.68,0,0,0-.5-.7h-.3a1.1,1.1,0,0,0,0,.8v5.8a2.44,2.44,0,0,1-.6,2.3Z"/><path class="cls-1" d="M83.45,51.61a.78.78,0,0,0-.4.4,21.38,21.38,0,0,0-1.1,8.3,1.93,1.93,0,0,0,1.9,1.6,3.83,3.83,0,0,0,3.3-2.9,32.57,32.57,0,0,0,.5-8.8c0-.5-.2-.9-.5-.9h-.3a.62.62,0,0,0-.2.7,22.78,22.78,0,0,1-.6,8.2c-.7,1.1-1.4,1.7-1.9,1.7s-.8,0-.9-1.3a39.06,39.06,0,0,1,.6-6.8.65.65,0,0,0-.3-.5"/><path class="cls-1" d="M85,57.81a17,17,0,0,0,.3-7.1v-.4a.55.55,0,0,0-.3.5l-.3,7c0,.3,0,.3.2.3s.3,0,.3-.3"/><path class="cls-1" d="M76,61.81a1,1,0,0,1-.9-.4c-.2-.4,0-.9,0-1.7l1.5-5.2a.45.45,0,0,0,0-.5h-.3a.55.55,0,0,0-.5.5,26,26,0,0,1-1.3,3.6c-.5,1.3-.6,1.7-1,2.8a1.48,1.48,0,0,0,0,1.3,3.39,3.39,0,0,0,2.7,1h0c2.6-.3,4-1.3,4.1-3l1.1-6.9a.85.85,0,0,0,0-.7h-.3a1.07,1.07,0,0,0-.6.8l-.9,5.2c-.4,2.2-1.5,3.3-3.2,3.3"/><path class="cls-1" d="M78.55,52.91c-.3.1-.5.3-.5.5a56.7,56.7,0,0,1-1,5.7v.4h.2c.2,0,.5,0,.7-.7a37.23,37.23,0,0,0,.8-5.7v-.4"/><path class="cls-1" d="M68.45,62a4.19,4.19,0,0,0,1.6.4,2.81,2.81,0,0,0,2.3-1.6l1.9-5.5v-.7c0-.1,0,0-.2,0a27.68,27.68,0,0,1-2.6,5.5,2,2,0,0,1-1.3.8,1.23,1.23,0,0,1-1-.5,1.2,1.2,0,0,1,0-1.4,42.48,42.48,0,0,0,2.1-4.9.64.64,0,0,0,0-.6.32.32,0,0,0-.3.3,43.89,43.89,0,0,1-2.7,5.3,2.09,2.09,0,0,0-.4,1.7,1.76,1.76,0,0,0,.8.9"/><path class="cls-1" d="M72.05,54.61a22.52,22.52,0,0,1-1.9,4.5.57.57,0,0,0,.2.7h0c.2,0,.3-.1.4-.3a11.14,11.14,0,0,0,1.9-4.5.6.6,0,0,0-.3-.6c.1,0,.1,0-.3.2"/><path class="cls-1" d="M69,54.41v.2a33.54,33.54,0,0,1-2.1,3.6.45.45,0,0,0,0,.5h.4a9.43,9.43,0,0,0,2.2-3.9v-.4"/><path class="cls-1" d="M64,59.81a2.56,2.56,0,0,0,1.8,1.2.68.68,0,0,0,.6-.4v-.3l-.8-.5a.55.55,0,0,1-.3-.5,1.69,1.69,0,0,1,.3-1,10.52,10.52,0,0,0,2-2.7,1.1,1.1,0,0,0,0-.8h0s-.2,0-.3.3c-.9,1.2-1.8,2.4-2.8,3.5-.4.6-.5,1-.3,1.4"/><path class="cls-1" d="M63.45,61.91a8.7,8.7,0,0,0-1.8,6.9,17.55,17.55,0,0,0,1.2,3.2c.3.6.6,1.3.9,2a8.08,8.08,0,0,1,.5,3.1s0,.5.8.5h1.1a2.74,2.74,0,0,0,1.7-1.3,2.21,2.21,0,0,0,0-1.6c-2.3-5.2-2.3-8.5-.4-11.3a.85.85,0,0,0,0-.7.55.55,0,0,0-.5-.3.6.6,0,0,0-.6.3,5.39,5.39,0,0,0-1.6,4.5,13.59,13.59,0,0,0,.7,3.5c.2.8.5,1.7.7,2.7a.75.75,0,0,1,0,.9.55.55,0,0,1-.5.3s-.6,0-.9-.9-.6-1.7-.8-2.4h0a10.64,10.64,0,0,1-.9-3.5,7.36,7.36,0,0,1,1.6-5.2h0v-.7a.6.6,0,0,0-.6-.3,3.33,3.33,0,0,0-.6.3"/><path class="cls-1" d="M68.05,71.71a14.69,14.69,0,0,0,3.1,6.4,3.23,3.23,0,0,0,2.1.8,2.6,2.6,0,0,0,2.7-2,5.23,5.23,0,0,0-.3-1.8,1.76,1.76,0,0,1-.4-.5,16.43,16.43,0,0,1,0-8.8.35.35,0,0,0-.5-.5.91.91,0,0,0-.8.4,16.06,16.06,0,0,0,0,9.7,1.84,1.84,0,0,1-.2,1.6,1.39,1.39,0,0,1-1,.5,1.46,1.46,0,0,1-1.3-.7A11.5,11.5,0,0,1,70,65.11a.75.75,0,0,0,0-.9c-.1-.2-.3-.2-.5-.2a1,1,0,0,0-.7.4,10.36,10.36,0,0,0-.8,7.9"/><path class="cls-1" d="M72.65,63.71a.3.3,0,0,0-.4,0,.63.63,0,0,0-.6.5,11.92,11.92,0,0,0,.4,10.1c.1.1.2.2.3.2h0a1.1,1.1,0,0,0,0-.8,12,12,0,0,1,0-9.1.45.45,0,0,0,0-.5"/><path class="cls-1" d="M78,64.71h-.4a.75.75,0,0,0-.7.5,17.93,17.93,0,0,0,0,9.2,3.64,3.64,0,0,0,3.6,2.8,3.1,3.1,0,0,0,3.1-3,33.47,33.47,0,0,1-.4-10,.64.64,0,0,0,0-.6.73.73,0,0,0-.6-.2.46.46,0,0,0-.5.4,26.25,26.25,0,0,0-.4,7.9v.6a2.56,2.56,0,0,1,0,2.1,1.23,1.23,0,0,1-1,.5,2.09,2.09,0,0,1-1.6-1.1,14.89,14.89,0,0,1-.5-8.6.45.45,0,0,0,0-.5"/><path class="cls-1" d="M80.15,63.81h0a.53.53,0,0,0-.5.4,26.75,26.75,0,0,0-.3,8,.56.56,0,0,0,.6.5c.2,0,.5,0,.6-.7a34.78,34.78,0,0,1,0-7.9Z"/><path class="cls-1" d="M87.65,61.41a2.2,2.2,0,0,0,0,1.6,16.62,16.62,0,0,1,1.1,7,1.7,1.7,0,0,1-1.5,1.4,1.38,1.38,0,0,1-1.3-1,25,25,0,0,1-.6-6.7.67.67,0,0,0-.7-.6.3.3,0,0,0-.4,0,.45.45,0,0,0,0,.5,17.9,17.9,0,0,0,1.5,9.1,1.94,1.94,0,0,0,1.6.8c1.1,0,2.3-1.1,3.1-2.8a13.37,13.37,0,0,0-2-9.3h-.8Z"/><path class="cls-1" d="M87.25,68.91a1.23,1.23,0,0,0,.2-.5c-.3-1.9-.6-3.6-.8-5.5,0-.4-.2-.5-.3-.5s-.2,0-.2.4a24.1,24.1,0,0,0,.8,6Z"/><path class="cls-1" d="M91.65,58.31v.4a4.55,4.55,0,0,0,.5,2h0a5.93,5.93,0,0,1,.5,2.3.67.67,0,0,1-.7.7h-.4c-.6,0-1.1-1.3-1.2-1.8s.3-.6.4-.4.3.5.4.4a8.58,8.58,0,0,0-.3-1.7.64.64,0,0,0-.6,0,.91.91,0,0,0-.7.3c-.3,0-.5.4-.3,1a10.93,10.93,0,0,0,2.2,4.9.3.3,0,0,0,.4,0c.3,0,.5,0,.8-.5a6.21,6.21,0,0,0-.9-7.1h-.2"/><path class="cls-1" d="M94.65,57.11h-.3a.19.19,0,0,0-.3,0v.3a5.5,5.5,0,0,0,.7.9c.6.7,1.5,1.6.5,2.6-.2,0-.2,0,0,.6s.4.5.7.5a1.45,1.45,0,0,0,.7-.2l1.3-1.6v-.3h-.2a5.81,5.81,0,0,1-1.8-1.4,4.36,4.36,0,0,0-1.4-1.3"/><path class="cls-1" d="M98.15,56.91h-.5l-1.5-1.2h-.3a.44.44,0,0,0-.4.3.45.45,0,0,0,0,.5,10,10,0,0,0,2.3,2.3,1.14,1.14,0,0,0,.8.3,1.42,1.42,0,0,0,.6-.2c.4-.5.8-.9,1.2-1.4a4.74,4.74,0,0,0,1.6-2.1v-.5h-.5a4.83,4.83,0,0,1-3.1-1.7h-.3a.85.85,0,0,0-.5.3V54l1.5,1.6a1.28,1.28,0,0,1,0,1.2,1.33,1.33,0,0,1-1,.6"/><path class="cls-1" d="M101.45,51a1.61,1.61,0,0,1-1.1-.5h-.5c-.3,0-.6,1.1-.3,1.4a3.84,3.84,0,0,0,2.4,1.5,1.81,1.81,0,0,0,1.4-1,12,12,0,0,0,1-3.7.64.64,0,0,0,0-.6.78.78,0,0,1-.5-.2h-.3a17.48,17.48,0,0,1-2.9-1.8h0a1.06,1.06,0,0,0,.2,1.2l1.4,1.2a1.91,1.91,0,0,1,.4,1.9.87.87,0,0,1-.9.6"/><path class="cls-1" d="M129.75,120.41a1.71,1.71,0,0,0,0-1.4c0-.3-.3-.4-1-.5s-2,0-2.1-1.9V116h-.3a3,3,0,0,0-1.8,1.7,4.05,4.05,0,0,1-.5.9,2.63,2.63,0,0,1-1.5.7,1.86,1.86,0,0,1-1.6-1.1c-.4-.8,0-.4,0-.4l-.3.4a2,2,0,0,0-.3,1.7,5.58,5.58,0,0,1-.6,3.1c-1.3,2.2-2.8,3.4-4.5,3.4h-1.4a.63.63,0,0,0-.6.5v.6a5.87,5.87,0,0,0,2.3.4,5.59,5.59,0,0,0,4.3-2.4c1.8-2.6,4.1-5.8,6.8-5.9a3.29,3.29,0,0,1,1.7.4h0a1.2,1.2,0,0,0,1,.7.54.54,0,0,0,.4-.3"/><path class="cls-1" d="M136.05,128.31a1.84,1.84,0,0,1-1.6-.5,1.72,1.72,0,0,1,0-1.7v-.2h-.4c-1.4.2-1.7.7-1.7,1.5a1.14,1.14,0,0,1-.8,1.4,20.19,20.19,0,0,1-16.6,1.3c-1.4-.4-2.6-.7-3.8-1s-1.4.3-1.5.6a.76.76,0,0,0,.2.5l2.8,1a1.58,1.58,0,0,1,1.6,1.5,1.88,1.88,0,0,0,1.8,1.9h.3a1.48,1.48,0,0,1,0-1.3.63.63,0,0,1,.6-.5h.6a26.26,26.26,0,0,0,4.9.5,17.33,17.33,0,0,0,3.2-.3h.4a.91.91,0,0,1,.7.3,5.36,5.36,0,0,0,2.7,1.1,1.85,1.85,0,0,0,1.2-.5h0c-.5,0-.9-.5-1.2-1.2s0-.8.7-1a8.47,8.47,0,0,0,3-1.5,1.5,1.5,0,0,1,1.1-.4h0c1.9,0,2.3-.6,2.4-1v-.4h-.8"/><path class="cls-1" d="M136.45,121.51a4.32,4.32,0,0,1-3.3,1.7,3.3,3.3,0,0,1-1.4,0,2,2,0,0,1-.6-1.1c0-.7.5-1.5,1.7-2.4a4.17,4.17,0,0,1,1.8-.8,2.09,2.09,0,0,1,1.6.8,1.82,1.82,0,0,1,0,2m-1.9-3.8a3.72,3.72,0,0,0-2,.7c-2.7,2.3-3.3,4-1.9,5.8a4.84,4.84,0,0,0,2.6.7,6.78,6.78,0,0,0,4.4-2.1,2.86,2.86,0,0,0,0-3.3,3.79,3.79,0,0,0-3.1-1.8"/><path class="cls-1" d="M142.65,120.51c0-.6-.3-.6-.5-.6h-.3a8.45,8.45,0,0,0-1.7.5.46.46,0,0,0-.4.5.61.61,0,0,0,.3.7,16,16,0,0,0,2.1.5h0a.19.19,0,0,0,.3,0v-.4a2.44,2.44,0,0,1,0-1.2"/><path class="cls-1" d="M141.75,117.71c-.4-.4-.7-.9-1.1-1.3,0,0-.3-.3-.4-.3s-.2,0-.5.3a3.91,3.91,0,0,0-1.4,1.7.91.91,0,0,0,0,1,1.14,1.14,0,0,0,.8.3,4,4,0,0,0,2.1-.9c.2-.2.2-.3,0-.5"/><path class="cls-1" d="M138,114.31c-.3-.2-.4-.3-.6-.3s0,0-.4.3a6.12,6.12,0,0,0-.5,1.2,1.7,1.7,0,0,0,0,1h1.1a3.27,3.27,0,0,0,1.5-1.1v-.2a1.38,1.38,0,0,0-.3-.4c-.3-.2-.7-.5-1-.7"/><path class="cls-1" d="M144.35,113.21a1,1,0,0,0-1,.7,1.71,1.71,0,0,1-1.3,1.7c-.3,0,0,.7,0,.7s.4.8.8.8h.3a2.14,2.14,0,0,1,1.7-.8h.8a.76.76,0,0,0,.8-.6,1.79,1.79,0,0,0-.5-1.8,1.75,1.75,0,0,0-1.4-.7"/><path class="cls-1" d="M73.15,127c0,.5-.3.8-1.1,1.1h.8a2.87,2.87,0,0,0,1.8-.7,3.49,3.49,0,0,1,2.2-.8,4.71,4.71,0,0,1,1.7.4c.7.3,1,.6,1.1,1a1.4,1.4,0,0,1-.3.9h.7c1.1,0,1.8-.6,2.3-1.9a3.82,3.82,0,0,1,2.2-1.5,3.7,3.7,0,0,0,.8-1.8.78.78,0,0,0-.3-.6h-.3a12.75,12.75,0,0,1-6.4,1.7,33.7,33.7,0,0,1-12.9-2.9,2.52,2.52,0,0,1-1.4-3l1.7-4.9a3.93,3.93,0,0,1,3.7-2.4,22.89,22.89,0,0,1,11.4,4.9h.2a1.28,1.28,0,0,0,0-1.2l-1.8-1.5a2.09,2.09,0,0,1-.8-1.6,2.18,2.18,0,0,0-1.5-2.4h0v1.6a.75.75,0,0,1-.7.5h-1.1a5.75,5.75,0,0,1-4.6-2.7c-.6-.8-1.1-1.4-2.1-1.4H68l.5.5a1.16,1.16,0,0,1,.4,1c0,.4-.4.7-1.1.9a1.7,1.7,0,0,0-1,0H66a2.84,2.84,0,0,1-1.2-.4h0a2.46,2.46,0,0,0-1.5-.5h-.8a2.47,2.47,0,0,1,1.1,3.1l-2,6.1a4.11,4.11,0,0,0,1.2,4.2c1.5.5,2.1,1.1,2.1,1.7s-.3.8-1,1.2h0a2.66,2.66,0,0,0,1.2.3,2.29,2.29,0,0,0,1.7-.8,4,4,0,0,1,1.5-.6,1.7,1.7,0,0,1,1,0c2.2.6,3.3,1.2,3.4,1.8"/><path class="cls-1" d="M62.15,114.21c.2,0,.3-.1.3-.2a.45.45,0,0,0,0-.5,8.06,8.06,0,0,0-2.9-2.9h-.4a.19.19,0,0,0-.3,0,.64.64,0,0,0,0,.6,11.42,11.42,0,0,1,2.9,2.9Z"/><path class="cls-1" d="M42.55,114.11c0,1.5,0,2.8-1.4,3h0a3,3,0,0,0,1.6.5,2.66,2.66,0,0,0,1.2-.3.86.86,0,0,1,.6-.3H45l4,1.9c.5.2.8.5.8.8s0,.6-.7,1a5,5,0,0,0,1.2.2,3.63,3.63,0,0,0,1.7-.7,1.14,1.14,0,0,1,.8-.3h2.5a20.53,20.53,0,0,0,4.9-.6,1.28,1.28,0,0,0,.6-1.4.1.1,0,0,0-.1.1h-.3a13.67,13.67,0,0,1-4.5.7,16.91,16.91,0,0,1-10.2-3.4c-.8-.3-1.1-1.1-.8-2.6a15.16,15.16,0,0,1,2.5-4.9,1.23,1.23,0,0,1,1-.5h1.2c1.2,0,1.4-.5,1.4-.9h-.6a4.12,4.12,0,0,1-2.4-1.1,1.84,1.84,0,0,0-1.4-.8h0a1.54,1.54,0,0,1,.2,2.1l-.2.2a11.87,11.87,0,0,0-3.4,7.6"/><path class="cls-1" d="M53,110.81h0a4.67,4.67,0,0,1,0-4,1.75,1.75,0,0,1,1.4-.7,2,2,0,0,1,1.4.6,2.55,2.55,0,0,1,.2,2.4c-.4,1.5-1,2.2-1.8,2.3a1.76,1.76,0,0,1-1.3-.6m4.8-1.1a4,4,0,0,0-.6-3.4,3.22,3.22,0,0,0-2.6-1.2,2.73,2.73,0,0,0-1.9.8,4,4,0,0,0-1,3.3,4.8,4.8,0,0,0,1.7,3.7,2.44,2.44,0,0,0,1.2,0c1.4,0,2.5-1.1,3.3-3.4"/><path class="cls-1" d="M59,105.31a3.81,3.81,0,0,0,1.7-.8.65.65,0,0,0-.2-.9h0l-1-.7h-.3a.71.71,0,0,0-.6.4,2.46,2.46,0,0,0-.5,1.5.68.68,0,0,0,.9.5Z"/><path class="cls-1" d="M57.25,101.71l-1.2-.4h-.5v2.1c0,.3.4.5.6.5a.91.91,0,0,0,.7-.3l.7-.9a.85.85,0,0,0,0-.7s-.2,0-.5-.3"/><path class="cls-1" d="M53.85,101.41h-1.7a1.39,1.39,0,0,0,0,.9c.2.6.8,1.6,1.4,1.6s.4,0,.6-.6a.85.85,0,0,0,0-.7v-.5a.52.52,0,0,0-.3-.7Z"/><path class="cls-1" d="M37.05,111.81h.4a8.68,8.68,0,0,0,2.8.5,1.39,1.39,0,0,0,.9,0,.55.55,0,0,0,.4-.6c0-.3-.3-.3-.5-.3a15.13,15.13,0,0,1-11.2-7.4,2.89,2.89,0,0,1,0-3.1,10,10,0,0,1,3.9-3.2,2.82,2.82,0,0,1,1.5-.4,2.72,2.72,0,0,1,1.7.6,19.38,19.38,0,0,1,5.5,8.8c0,.6.3.9.6.9s.5,0,.6-.7l-.3-1.7a2,2,0,0,1,0-1.5c1.2-1.5,1.3-2.7,0-3.7h0c-.4,1-.8,1.5-1.3,1.6s-.8-.3-1.1-1a16,16,0,0,0-3.8-4c-.6-.4-.9-.8-.7-1.2-.3-1.8-.9-1.9-1.7-2.1h0c.4,1.4,0,2.3-1.7,2.8a10,10,0,0,0-5.6,4.9,1.25,1.25,0,0,1-.6,1.1,2.28,2.28,0,0,1-1.2-.6h0v.2a2.37,2.37,0,0,0,1.2,2.3,1.3,1.3,0,0,1,1.2.8,5.22,5.22,0,0,0,1.4,1.9c.4.4.5.7.4,1s-.5.5-1.4.6h0a2.86,2.86,0,0,0,2.3.8h.4a1.61,1.61,0,0,1,.9.3l1.7,1.1c.5.2.7.5.7.8s-.3.7-1,1.1h0a2.3,2.3,0,0,0,1.4.4,1.75,1.75,0,0,0,1.7-.6c0-.2.3-.4.5-.4"/><path class="cls-1" d="M27.85,90.41c.4,0,1.3,0,1.9,1.7s.6,2.3.3,2.9a1.23,1.23,0,0,1-1,.5h-.3a4.13,4.13,0,0,1-2.4-3.4,1.48,1.48,0,0,1,1.5-1.7m-2.4.4a3.9,3.9,0,0,0,0,3,5.8,5.8,0,0,0,3.6,2.9h.4a1.88,1.88,0,0,0,2-1.2,4.82,4.82,0,0,0-.6-4.5,3.68,3.68,0,0,0-3-1.9,2.87,2.87,0,0,0-2.4,1.7"/><path class="cls-1" d="M28.45,88.21a1,1,0,0,0,.8-.5,4.19,4.19,0,0,0,.4-1.5c0-.5,0-.6-.4-.7a1.39,1.39,0,0,0-.9,0h-.7a1.67,1.67,0,0,0-.3.9c0,.4.5,1.8,1.1,1.8"/><path class="cls-1" d="M26.35,88.41a2.56,2.56,0,0,0,0-2.1v-.4a.64.64,0,0,0-.6,0,2.09,2.09,0,0,0-1.6.8v.7c.6,1.1,1.3,1.5,1.6,1.4a.3.3,0,0,0,.4,0"/><path class="cls-1" d="M23.35,87.51c-.5,0-1.2.8-1.3,1.3a.3.3,0,0,0,0,.4,2.5,2.5,0,0,0,1.8.8.91.91,0,0,0,.7-.3,2.56,2.56,0,0,0-1-2.1Z"/><path class="cls-1" d="M22.85,83.61a1.06,1.06,0,0,1,.9,1,.51.51,0,0,0,.7.5.68.68,0,0,0,.6-.4.91.91,0,0,0,0-1,1.08,1.08,0,0,1,0-1.1,1.48,1.48,0,0,0,0-1.3,1.16,1.16,0,0,0-1-.4,1.89,1.89,0,0,0-1.8,1.1,1.82,1.82,0,0,0,1,1.5"/><path class="cls-1" d="M59.35,126a1.61,1.61,0,0,1-.9.3,1.34,1.34,0,0,1-1.3-.8,1.7,1.7,0,0,1,.3-1.8.92.92,0,0,1,.9-.3,1.51,1.51,0,0,1,1.4.9,2.09,2.09,0,0,1-.4,1.7m1.6,0a2.82,2.82,0,0,0-.6-2.9,2.61,2.61,0,0,0-2-1,2.54,2.54,0,0,0-2.3,1.4,3.08,3.08,0,0,0,.4,3.2,2.69,2.69,0,0,0,3.8.4A10.54,10.54,0,0,0,61,126"/><path class="cls-1" d="M46.45,135.71a1.61,1.61,0,0,1-.9.3,1.44,1.44,0,0,1-1.3-.8,1.94,1.94,0,0,1,.3-1.8,1.27,1.27,0,0,1,.9-.4,1.42,1.42,0,0,1,1.3.9,1.53,1.53,0,0,1-.3,1.8m-1-3.8a2.77,2.77,0,0,0-2.3,1.3,3.11,3.11,0,0,0,.4,3.2,2.61,2.61,0,0,0,2,1h0a2.59,2.59,0,0,0,2.4-1.7,2.63,2.63,0,0,0-.6-2.9,2,2,0,0,0-1.9-.9"/><path class="cls-1" d="M116.55,146.61a1.69,1.69,0,0,1-1,.3,1.65,1.65,0,0,1-1.5-.9,1.53,1.53,0,0,1,.3-1.8,1.72,1.72,0,0,1,2.3.3,1.44,1.44,0,0,1-.1,2.1m-1.2-4a2.85,2.85,0,0,0-2.5,1.4,3.07,3.07,0,0,0,.5,3.3,3,3,0,0,0,2.3,1.1,2.71,2.71,0,0,0,2.6-1.8,2.75,2.75,0,0,0-.7-3,2.87,2.87,0,0,0-2.2-1"/><path class="cls-1" d="M66.85,133.71a18.19,18.19,0,0,1-5.6-5.1.47.47,0,0,0-.6-.4.19.19,0,0,0-.3,0,1.39,1.39,0,0,0,0,.9,10.9,10.9,0,0,0,6.6,5.3s.4,0,.4-.2,0-.4-.4-.6"/><path class="cls-1" d="M66.55,144.31a25.39,25.39,0,0,0-5.4-.9c-.2,0-.4.1-.4.3a.68.68,0,0,0,.4.6,20.63,20.63,0,0,1,5.4,2h.3v-1.5c0-.3,0-.4-.5-.6"/><path class="cls-1" d="M56.85,141.61a5.8,5.8,0,0,0-3.7,1.7v.5c0,.1,0,0,.5,0a2.28,2.28,0,0,0,1.1-.3,3.86,3.86,0,0,1,2.7-1.1h.4c.8,0,1,.5,1,.9a.86.86,0,0,1-.8.8.3.3,0,0,1-.4,0,.45.45,0,0,0-.5,0h-.4a5.31,5.31,0,0,0-1.7.8h-.7a8.68,8.68,0,0,0,2.8.5,2.45,2.45,0,0,0,2.4-1.1,2.56,2.56,0,0,0,0-2.1,2.47,2.47,0,0,0-2.3-1.2"/><path class="cls-1" d="M36.45,120.41s-.5,0-.5.3.6.8,1.7,1a5,5,0,0,1,3.7,1.2,1.27,1.27,0,0,1,.5,1.2.89.89,0,0,1-.8.5.76.76,0,0,1-.8-.6c0-.3,0-.6-.8-.8a5.45,5.45,0,0,0-2.2-.5H36v.3c2.2,2.8,3.8,3.2,4.9,3.2a1.94,1.94,0,0,0,1.7-1,2.55,2.55,0,0,0,0-2.4,6.34,6.34,0,0,0-6.1-2.4"/><path class="cls-1" d="M125.55,136.11a9.78,9.78,0,0,0-4.1-.9,3.66,3.66,0,0,0-2.8.9,2.73,2.73,0,0,0-.8,1.9c0,1.2.9,2.4,3,2.4a8.59,8.59,0,0,0,4.4-1.5c.2-.2.2-.3.2-.4h-1.3a10.68,10.68,0,0,0-2.5-.3,1,1,0,0,0-1.1.5.71.71,0,0,1-.6.3,1,1,0,0,1-1-.8,1.22,1.22,0,0,1,.9-1.1,3.4,3.4,0,0,1,1.4-.2,7.51,7.51,0,0,1,2.6.5h.9c.8,0,1.2-.2,1.2-.4s0-.4-.4-.6"/><path class="cls-1" d="M110.75,138.81a11.77,11.77,0,0,0,5.2-1.3s.4-.3.4-.6a.74.74,0,0,0-.8-.4h-.5a23.41,23.41,0,0,1-5.3.8,20.45,20.45,0,0,1-3.5,0c-.5,0-.8.3-.8.5s.3.6,1.1.8h4.3"/><path class="cls-1" d="M111.05,142.91a.86.86,0,0,1-.3-.6c0-.3.4-.5,1-.7l4.9-1.4a.55.55,0,0,0,.3-.5s0-.6-1-.6h0c-4.5.8-6.9,1.7-7.1,2.9s.5,1.5,1.9,2.4a.64.64,0,0,0,.6,0c.4,0,.7,0,.7-.3v-.6Z"/><path class="cls-1" d="M110.55,145.61l-4.4,1.1a.6.6,0,0,0,0,.8.77.77,0,0,0,.8.7h.2l4.1-1a.67.67,0,0,0,.3-.8.85.85,0,0,0-.8-.7"/><path class="cls-1" d="M62.25,139.31c-.8-2.3-5.5-4.3-12-4.9a.67.67,0,0,0-.7.4.62.62,0,0,0,.6.7,26.34,26.34,0,0,1,9.7,3.5,1.55,1.55,0,0,1,.8,1.1.84.84,0,0,1-.4.7.84.84,0,0,0-.4.7c0,.6.2.8.7.8h.6a2.85,2.85,0,0,0,1-2.7"/><path class="cls-1" d="M50.65,132.11c0-1-1-3.2-6.6-5.8h-.6c0,.2,0,.5.2.6l1,.7.5.4a15.94,15.94,0,0,1,3.3,2.5,1,1,0,0,1,.4.7.55.55,0,0,1-.3.5v.4a1.92,1.92,0,0,0,1.2.4,1.1,1.1,0,0,0,.9-.4"/><path class="cls-1" d="M51.65,128.81l2.3,1a15.66,15.66,0,0,0,3,1.2h.3a1.52,1.52,0,0,0,1.6-.9,1.09,1.09,0,0,0-.7-1.2h-.4a1,1,0,0,1-.9.6h-.8a72.57,72.57,0,0,1-10.8-5.4h-.5a.3.3,0,0,0-.4,0v.5a43.38,43.38,0,0,0,7.3,4.2"/><path class="cls-1" d="M11.45,72.81h0a3.53,3.53,0,0,1,1.7,1.5,4.11,4.11,0,0,1,0,2.2,4.53,4.53,0,0,1-.3,1.6h-.5L8,77.61v-1.5a1.42,1.42,0,0,1,.4-1.1,3.3,3.3,0,0,1,1.4,0h0v-.7l-4.6-.6v.6h0a3.1,3.1,0,0,1,1.3.6v2.5l-3.9-.5h-.4v-.2l.2-2c0-1,.3-1.4.5-1.5a2.69,2.69,0,0,1,1.5-.3h0v-.7l-2.2-.5-1.1,8.2h.7c.4-.7.4-.7.4-1s0,0,.5,0h.6l8.5,1c.8,0,1.1.2,1.2.3a1.7,1.7,0,0,1,0,1h.7l1.1-8.3-3.4-1.2Z"/><path class="cls-1" d="M13.75,64.11a3.4,3.4,0,0,0-2,0,7.1,7.1,0,0,0-2.2,1.3l-1.3,1a5.39,5.39,0,0,1-1.3.7,2.44,2.44,0,0,1-1.2,0,1.45,1.45,0,0,1-1-.7,1.7,1.7,0,0,1,0-1,2.56,2.56,0,0,1,1-1.3,4.68,4.68,0,0,1,2.6-.5h0v-.5l-4.3-.7V63h.3v.2a3,3,0,0,1-.5.7,2.28,2.28,0,0,0-.6,1.2,2.7,2.7,0,0,0,.4,2.3,4,4,0,0,0,2.2,1.4,3.75,3.75,0,0,0,2.1,0,4.13,4.13,0,0,0,1.1-.7l1.3-1a8.86,8.86,0,0,1,1.7-.8,2,2,0,0,1,1.5,0,2.22,2.22,0,0,1,1.3.8,1.27,1.27,0,0,1,0,1.2,2.43,2.43,0,0,1-1.7,1.7,7.61,7.61,0,0,1-2.1.3h0v.6l4.2.6v-.6H15l.5-.7a3.69,3.69,0,0,0,.7-1.4,2.75,2.75,0,0,0-.4-2.5,4,4,0,0,0-2.2-1.6"/><path class="cls-1" d="M18.85,57.81a1.6,1.6,0,0,1-.7.9,2.54,2.54,0,0,1-1.2-.2L8.35,55v-.6a2.56,2.56,0,0,1,1-1.3,6.05,6.05,0,0,1,1.9,0h0l.3-.6-3.3-1.2-2.9,8.5,3.3,1.4v-.6h0a5,5,0,0,1-1.4-1.5,2.21,2.21,0,0,1,0-1.6v-.6l8.5,3.3a5.39,5.39,0,0,1,1.3.7V62h0l.6.2,1.7-4.3-.6-.3Z"/><path class="cls-1" d="M18.35,48.71,17,51.31l-3.3-3.4Zm5.8-1.5a1,1,0,0,1-.5.4,3.3,3.3,0,0,1-1.4,0l-11.1-1.7-.3.5,6.7,7a16.32,16.32,0,0,1,1.7,2,1.39,1.39,0,0,1,0,.9h0l.6.3,1.5-2.9-.6-.3h0l-.4.5h-.6l-.4-.4-1.6-1.6,1.7-3.2,1.7.2h1.2s.3,0,.3.2v.8h0l.6.3,1.9-3.6-.6-.3Z"/><path class="cls-1" d="M27.35,40.81a3.78,3.78,0,0,1-1,2.7c0,.3-.4.4-.4.4h-.4L18,38.21c-.3-.2-.3-.3-.3-.4v-.5a4.16,4.16,0,0,1,3-1.8h.6a6.68,6.68,0,0,1,3.6,1.4,5,5,0,0,1,2.5,3.9m.5-3.5a8.13,8.13,0,0,0-1.9-1.8,5.71,5.71,0,0,0-6-1.1,7,7,0,0,0-2.8,2.3l-2.4,3.4.5.4h0c.4-.4.6-.6.8-.6s.4,0,1.1.6l6.7,4.9c.7.5.8.7.8.8a2.15,2.15,0,0,1-.3,1h0l.5.4,2.6-3.5a6.82,6.82,0,0,0,1.2-2.6,3.79,3.79,0,0,0,0-1.5,5,5,0,0,0-.9-2.4"/><path class="cls-1" d="M34.35,34.41A2.39,2.39,0,0,1,32,35a7.24,7.24,0,0,1-3.6-2.3,7.91,7.91,0,0,1-2.4-3.6,2.59,2.59,0,0,1,.5-2.4,2.29,2.29,0,0,1,1.7-.8h.6a8,8,0,0,1,3.7,2.3,6.79,6.79,0,0,1,2.4,3.6,2.39,2.39,0,0,1-.5,2.4m-.5-7.5a6.81,6.81,0,0,0-4.5-2.3,4.07,4.07,0,0,0-3.6,1.4,4.51,4.51,0,0,0-1.3,3.6,8,8,0,0,0,2.4,4.5,6.79,6.79,0,0,0,4.4,2.3h.6a4.63,4.63,0,0,0,3.2-1.3,4.8,4.8,0,0,0,1.2-3.6,6.94,6.94,0,0,0-2.4-4.6"/><path class="cls-1" d="M41,22.61a9.08,9.08,0,0,0-2.3-.3h-1.9a3.3,3.3,0,0,1-1.4,0,2.29,2.29,0,0,1-1-.7,1.5,1.5,0,0,1-.4-1.1,1.19,1.19,0,0,1,.5-.9,2.28,2.28,0,0,1,1.6-.4,4.64,4.64,0,0,1,2.3,1.2h0l.5-.4L36,16.91l-.5.3h0v.4h0l-.8.2a6.12,6.12,0,0,0-1.2.5,2.51,2.51,0,0,0-1,2.1,3.85,3.85,0,0,0,2.7,3.6,2.85,2.85,0,0,0,1.3,0h1.7a4.85,4.85,0,0,1,1.7,0,2.22,2.22,0,0,1,1.3.8,1.65,1.65,0,0,1,.5,1.5,1.61,1.61,0,0,1-.5,1.1,2.32,2.32,0,0,1-2.4.3,6.92,6.92,0,0,1-1.9-1h0l-.5.4,3.1,3.1.5-.4h0v-.4h.8a3.69,3.69,0,0,0,1.4-.7,2.94,2.94,0,0,0,1.2-2.3,4.11,4.11,0,0,0-.9-2.6,3.09,3.09,0,0,0-1.5-1.2"/><path class="cls-1" d="M54.75,9.71a4.92,4.92,0,0,1-.6-1.7,1.6,1.6,0,0,1,.7-.9h0l-.1-.7L51.35,8l.3.6h0a2,2,0,0,1,1.1,0,4,4,0,0,1,1,1.5l2.1,4.4a7.54,7.54,0,0,1,.8,2.4,2.25,2.25,0,0,1-1.5,2.3,2.12,2.12,0,0,1-2.5-.3,5.94,5.94,0,0,1-1.3-1.8l-2.6-5.3c-.4-.7-.4-1-.3-1.2s0-.4.8-.7h0l-.3-.6-4.1,1.9v.6h0a1.7,1.7,0,0,1,1,0,1.8,1.8,0,0,1,.7,1l2.5,5.2a5.55,5.55,0,0,0,1.7,2.3,3.44,3.44,0,0,0,2.1.8,5.26,5.26,0,0,0,1.8-.4,3.37,3.37,0,0,0,2.2-3.4,8.6,8.6,0,0,0-.9-3Z"/><path class="cls-1" d="M65.85,4c0-.3.4-.5.9-.7h0v-.6l-3.7,1.1v.6h0a1.7,1.7,0,0,1,1,0,3.15,3.15,0,0,1,.9,1.7l2,5.2L59.15,5l-2.7.8v.6h.6a2.09,2.09,0,0,1,.6.4h0l3,7.8a5.55,5.55,0,0,1,.3,1.7,1.6,1.6,0,0,1-.9.7h0v.6l3.6-1.1v-.6h0a1.7,1.7,0,0,1-1,0,3.15,3.15,0,0,1-.9-1.7l-2-6.3,8.9,7.4h.7l-3-9.4a2.89,2.89,0,0,1-.3-1.8"/><path class="cls-1" d="M75.25,13.11h-1.1a3.76,3.76,0,0,0-.4-1.2L72,3.81V2.51c0-.2.3-.3,1-.5h0v-.6l-4.6.9v.6h1.1c.2,0,.3.3.5,1.1l1.6,8.1v1.2a3.13,3.13,0,0,1-1,.5h0v.6l4.9-.9-.2-.4Z"/><path class="cls-1" d="M79.15,12.21h-.4v-.5l-.9-9.4v-.5H79a4.39,4.39,0,0,1,2.7.9,5.09,5.09,0,0,1,1.7,4,5.3,5.3,0,0,1-1.3,4.5,5,5,0,0,1-2.7,1.1Zm3.1-11.1a6,6,0,0,0-3.5-.5l-4.2.3v.7h0c.6,0,.9,0,1,.2a2.66,2.66,0,0,1,.3,1.2l1,8.2v1.2c0,.1-.3.3-.9.4h0v.7l4.3-.4a6.94,6.94,0,0,0,2.8-.8,10.59,10.59,0,0,0,1.2-1,5,5,0,0,0,.9-2.3,12.19,12.19,0,0,0,0-2.7,5.51,5.51,0,0,0-3.1-5.2"/><path class="cls-1" d="M94.65,6.71a8.77,8.77,0,0,1-1.1,4.2,2.51,2.51,0,0,1-2.2,1.2,2.27,2.27,0,0,1-2-1.5,7.79,7.79,0,0,1-.5-4.3,8.68,8.68,0,0,1,1-4.2A2.44,2.44,0,0,1,92,.91h0a2.47,2.47,0,0,1,2,1.4,7.48,7.48,0,0,1,.7,4.4M92,0a3.93,3.93,0,0,0-3.5,1.6,7.24,7.24,0,0,0-1.8,4.9,7.22,7.22,0,0,0,1.2,4.9,4.29,4.29,0,0,0,3.5,2h.2a4.13,4.13,0,0,0,3.3-1.5A7.24,7.24,0,0,0,96.65,7a7.3,7.3,0,0,0-1.3-4.9A4.56,4.56,0,0,0,92,.21"/><path class="cls-1" d="M105.25,1.81v.3h0l-.9-.3a3.38,3.38,0,0,0-1.2-.6,2.81,2.81,0,0,0-2.3.6,4,4,0,0,0-1.2,2.3,3.6,3.6,0,0,0-.2,2.3,7.63,7.63,0,0,0,.8,1.1l1.1,1.2a5.83,5.83,0,0,1,1.1,1.5,2.42,2.42,0,0,1-.5,2.9,2.38,2.38,0,0,1-1.2.3,2.62,2.62,0,0,1-1.8-1.6,7.34,7.34,0,0,1-.5-2h-.6l-.3,4.3h.6v-.4h0l.7.4a3.51,3.51,0,0,0,1.4.6h.7a2.79,2.79,0,0,0,1.8-.6,4.06,4.06,0,0,0,1.2-4.4,7.71,7.71,0,0,0-1.4-2.1l-1.1-1.2a8.34,8.34,0,0,1-.8-1.2,2.44,2.44,0,0,1,0-1.2,1.33,1.33,0,0,1,.6-1,1.7,1.7,0,0,1,1,0,2.38,2.38,0,0,1,1.3.9,4.84,4.84,0,0,1,.7,2.6h.7l.4-4.3h-.6Z"/><path class="cls-1" d="M123.25,21a1.41,1.41,0,0,1-.7-.6,3.9,3.9,0,0,1,.3-1.2l3.3-7.5a2.29,2.29,0,0,1,.7-1,1.7,1.7,0,0,1,1,0h0v-.6l-3-1.3-5.9,6.9.6-9.7-3-1.3-.2.6h0c.6.3.8.5.8.7a2.66,2.66,0,0,1-.3,1.2l-3.1,6.9a3.77,3.77,0,0,1-.9,1.5,1.27,1.27,0,0,1-1.2,0h0l-.2.6,3.5,1.5.2-.6h0c-.5-.3-.7-.5-.7-.7a2.73,2.73,0,0,1,.5-1.8l2.6-5.9-.6,9.7h.4l6.8-7-3,6.8a4.73,4.73,0,0,1-.7,1.2,2,2,0,0,1-1.1,0h0V20l4.1,1.8.3-.6Z"/><path class="cls-1" d="M132.15,23.31h0a3.48,3.48,0,0,1-2,1h0a5,5,0,0,1-2-.8,6.42,6.42,0,0,1-1.3-1V22l2.4-3.7,1.2.8c.6.4.7.6.8.8a3.71,3.71,0,0,1-.4,1.4h0l.6.3,2.5-3.9-.6-.3h0a2.84,2.84,0,0,1-1,.9,2,2,0,0,1-1.1-.3l-1.2-.8,2.1-3.4s0-.3.2-.3h.2l1.7,1.1a2.47,2.47,0,0,1,1.2,1.1,4.53,4.53,0,0,1-.3,1.6h0l.6.4,1.6-2.6-7.3-3.8-.4.5h0a1.56,1.56,0,0,1,.6.8,1.61,1.61,0,0,1-.5,1.1l-4.4,6.9c-.4.7-.7.9-.8.9a1.7,1.7,0,0,1-1,0h0l-.3.6,7,4.5,2.5-2.6Z"/><path class="cls-1" d="M139.25,32.81a2,2,0,0,1-.4-.8,2.44,2.44,0,0,1,0-1.2l1.1-5.6,3.7-1.2a6.28,6.28,0,0,1,1.9-.3,2,2,0,0,1,.8.4h0l.4-.5-2.9-2.5-.4.5h0l.4.5a.3.3,0,0,1,0,.4h-.2a1.61,1.61,0,0,1-.9.3l-2.6.8.5-2.8v-.9h.4c.1,0,.2,0,.6.4h0l.4-.5-3.7-3.1-.4.5h0a1.39,1.39,0,0,1,.5,1,13.51,13.51,0,0,1-.4,2.8l-.7,3.3-3.9,1.2-2,.5a1.14,1.14,0,0,1-.8-.3h0l-.4.5,2.9,2.4.4-.5h0v-.3a.45.45,0,0,1,0-.5c.2-.1.3-.3.5-.3l1-.3,2.8-.9c-.3,1.9-.6,3.1-.7,3.5l-.3.9h-.3a4.35,4.35,0,0,1-.7-.4h0l-.4.5,3.6,3,.2-.5Z"/><path class="cls-1" d="M143.25,34.51l5.9-5.7c.6-.5.9-.7,1.1-.7s.4,0,.9.6h0l.5-.4-3.5-3.4-.5.5h0a1.75,1.75,0,0,1,.5,1c0,.1,0,.4-.7,1l-6,5.7c-.6.6-.9.7-1,.7s-.4,0-.9-.5h0l-.5.4,3.3,3.4.5-.4h0c-.5-.5-.6-.8-.6-1s0-.4.8-1"/><path class="cls-1" d="M150.25,43.41h0v-.7h0a4.3,4.3,0,0,1-1.6,0,3,3,0,0,1-1.7-1.2,3.15,3.15,0,0,1-.5-2.8,6.56,6.56,0,0,1,2.5-3.2,7.89,7.89,0,0,1,3.8-1.8,2.85,2.85,0,0,1,2.7,1,2.64,2.64,0,0,1,.3,2.7,6.19,6.19,0,0,1-1.1,1.7h0l.4.5,3.4-2.9-.3-.5h-.7l-.3-.9a8,8,0,0,0-.8-1.6,4.38,4.38,0,0,0-3.8-1.8h0a8,8,0,0,0-4.5,1.7,7.87,7.87,0,0,0-2.7,3.8,5,5,0,0,0,.8,4.3,5.44,5.44,0,0,0,2.6,1.6h1.9"/><path class="cls-1" d="M159.25,44.11l-3.1,3.5-1.5-2.5Zm-4.8,9.3a.85.85,0,0,1,0-.7,4.44,4.44,0,0,1,.8-1.1l7.5-8.5-.2-.5-9.7,1.9a11.71,11.71,0,0,1-2.6.4,1.23,1.23,0,0,1-.8-.4h0l-.6.3,1.7,2.8.6-.3h0v-.6a.85.85,0,0,1,.3-.5h.6l2.1-.5,1.8,3.2-1.2,1.3c-.2.2-.3.4-.5.5l-.3.3h-.3a2.65,2.65,0,0,1-.5-.6h0l-.5.3,2,3.5.6-.3Z"/><path class="cls-1" d="M168.15,58.41a1.56,1.56,0,0,1,.8.8h0l.6-.2-1.4-3.5-.6.2h0v1c0,.1-.5.5-1.6,1l-5.2,2.1,5.8-8.2-1-2.6-.7.3h0a.64.64,0,0,1,0,.6l-.3.6h0l-7.5,3.1a3.29,3.29,0,0,1-1.7.4c-.3,0-.6-.3-.8-.8h0l-.6.2,1.4,3.5.6-.2h0a1.7,1.7,0,0,1,0-1,3.7,3.7,0,0,1,1.8-.8l6.2-2.5-6.7,9.4h0v.4l9.2-3.7a3.29,3.29,0,0,1,1.7-.4"/><path class="cls-1" d="M161.65,70.61a2.27,2.27,0,0,1-1.7-1.7,2.43,2.43,0,0,1,.8-2.4,7,7,0,0,1,3.9-1.8,12.59,12.59,0,0,1,2.7-.4,9.85,9.85,0,0,1,1.7.2,2.31,2.31,0,0,1,1.8,2.8,2.22,2.22,0,0,1-.8,1.3,8.28,8.28,0,0,1-4,1.9,9.36,9.36,0,0,1-4.4.1m2.6,2a7.8,7.8,0,0,0,2.2-.3,7.68,7.68,0,0,0,4.4-2.6,4.71,4.71,0,0,0,.8-3.8,4.41,4.41,0,0,0-2.5-3,6.92,6.92,0,0,0-5.1-.3,7.35,7.35,0,0,0-4.2,2.5,4.6,4.6,0,0,0-1,3.9,5.11,5.11,0,0,0,2.4,3,8,8,0,0,0,3,.6"/><path class="cls-1" d="M173.85,78.91h-.4v-1a2.85,2.85,0,0,0,0-1.3,2.35,2.35,0,0,0-1-2.2,3.2,3.2,0,0,0-2.5-.5,3.38,3.38,0,0,0-1.9.9,4.44,4.44,0,0,0-.8,1.1l-.8,1.4a15.26,15.26,0,0,1-1.1,1.6,2.57,2.57,0,0,1-2.9.3,1.33,1.33,0,0,1-.6-1,2.35,2.35,0,0,1,1-2.2,17.39,17.39,0,0,1,1.8-1.1h0v-.8l-4.2,1v.6h.4v.9a3.79,3.79,0,0,0,0,1.5,2.85,2.85,0,0,0,1.3,2.2,3.22,3.22,0,0,0,2.1.6h.5a3.16,3.16,0,0,0,1.9-.7,15.58,15.58,0,0,0,1.6-2l.8-1.4a3.13,3.13,0,0,1,.9-1.1,1.61,1.61,0,0,1,1.1-.5,1.38,1.38,0,0,1,1.2.3,1.05,1.05,0,0,1,.5.9,3,3,0,0,1-.5,1.6,4.38,4.38,0,0,1-2.2,1.4h0v.7l4.2-.9Z"/><path class="cls-1" d="M85,166.21a1.13,1.13,0,0,1-1.1-.7,9.55,9.55,0,0,1,0-5.3,1.28,1.28,0,0,1,1-1,1.11,1.11,0,0,1,1.2.9,21.75,21.75,0,0,1,0,5.1,1.38,1.38,0,0,1-1.3,1"/><path class="cls-1" d="M89.85,166a.9.9,0,0,1-1.2-.6v-4.5a2,2,0,0,1,.4-1.5.91.91,0,0,1,.8-.4,1.37,1.37,0,0,1,1.4,1.4v4.2a1,1,0,0,1-.3,1,1.82,1.82,0,0,1-1.1.4"/><path class="cls-1" d="M74.35,169.41h-.7a1.08,1.08,0,0,1-.8-1,.87.87,0,0,1,.6-.9h.6a1.1,1.1,0,0,1,1.3.7,1.06,1.06,0,0,1-.1.8.74.74,0,0,1-.9.4"/><path class="cls-1" d="M99.55,169.71a.81.81,0,0,1-.9-.3,1.39,1.39,0,0,1,0-.9,1.72,1.72,0,0,1,1.2-1h.4a.79.79,0,0,1,.8.8,1.3,1.3,0,0,1-.8,1.2.64.64,0,0,1-.6,0"/><path class="cls-1" d="M77,167.41h-.5l-1.2-.8a.3.3,0,0,1,0-.4,10.07,10.07,0,0,1,5.9-2.7h0a.78.78,0,0,1,.8.6,1.34,1.34,0,0,1-.7,1.4,6.49,6.49,0,0,0-3.5,1.5,1.7,1.7,0,0,1-1,.6"/><path class="cls-1" d="M97.25,167.71H97a8.59,8.59,0,0,0-4-2.1s-.4,0-.4-.5v-1.4a9.74,9.74,0,0,1,6.2,2.7v.5l-1.2.8Z"/><path class="cls-1" d="M93.35,176.61a.91.91,0,0,1-.7-.3,43.73,43.73,0,0,0-4.9-2.3,1,1,0,0,1-.4-1.1,1.74,1.74,0,0,1,1.4-1.2h.4a11.51,11.51,0,0,0,2.5,1.2,8.67,8.67,0,0,1,2.7,1.4.66.66,0,0,1,.4.5v.4l-.7,1a1.61,1.61,0,0,1-.7.4"/><path class="cls-1" d="M74.85,175.11h-.2v-.7c0-2.6,2.5-4.1,4.9-5.8l2.4-1.7a1.14,1.14,0,0,1,.8-.3h.3l1.3.7a.29.29,0,0,1,.3.3.52.52,0,0,1-.2.4,15.1,15.1,0,0,1-2.6,1.8,10.39,10.39,0,0,0-4,3.5,4.74,4.74,0,0,1-3,1.8Z"/><path class="cls-1" d="M81.85,176.41h-.5l-1.2-1c-.4-.5-.4-1.1.3-1.8a15.94,15.94,0,0,1,3.3-2.5,22.41,22.41,0,0,0,3.4-2.7,2,2,0,0,1,1.3-.8h2.2a8.18,8.18,0,0,1-.5,1.4,16.06,16.06,0,0,1-4.2,3.6,10.74,10.74,0,0,0-3.5,3.2.57.57,0,0,1-.6.6"/><path class="cls-1" d="M99.55,174.31h-.8a2.9,2.9,0,0,1-1.5-.9,5.58,5.58,0,0,0-2-1.4l-1.7-.5-2.1-.9a.63.63,0,0,1-.5-.6,2.87,2.87,0,0,1,.7-1.5c.4-.5.3-.4.5-.4h.6a13.57,13.57,0,0,0,2.4,1.3,11.42,11.42,0,0,1,5.7,4.2v.4c-.1.1-.2.2-.3.2h-1.2"/><path class="cls-1" d="M65.55,164.61c1.2,0,1.9,0,2.2.7a2,2,0,0,1-.2,1.3.87.87,0,0,0,0,.9.3.3,0,0,0,.4,0c.6,0,1.4-.7,1.8-2,0-.5.6-.9,1.6-1.1a1.34,1.34,0,0,0,.7-1.4.67.67,0,0,0-.6-.7.52.52,0,0,0-.4.2,2.75,2.75,0,0,1-1.5.8H69a2.56,2.56,0,0,1-2.6-1.2l-1.6-2.6c-.2-.3-.4-.5-.6-.5h0a1.7,1.7,0,0,0,0,1l.8,1.6a.64.64,0,0,1,0,.6,1.54,1.54,0,0,1-.7.3h0a6.89,6.89,0,0,1-6-3.4c0-.3-.5-.5-.7-.5h0a1.1,1.1,0,0,0,0,.8l.8,1.2c.3.3.3.5.2.6h-.4a9,9,0,0,1-6-2.3.85.85,0,0,0-.7,0c-.3.3-.3.4,0,.7l.3.7v.5h-.5l-3.3.4c-.5,0-.8,0-.8.4s.4.5,1.2.4a21.09,21.09,0,0,1,7.5.4h.4a.45.45,0,0,1,0,.5l-1.2,1.3c-.3.3-.5.6-.4.8a.45.45,0,0,0,.5,0h.4a9.42,9.42,0,0,1,4.6-1.9,2.44,2.44,0,0,1,1.2,0,.68.68,0,0,1,.6.4,1.1,1.1,0,0,1,0,.8l-1.2,2.4v.8h0a1.49,1.49,0,0,0,.7-.3c1.1-1.3,2.4-2.7,3.8-2.8Zm-.7,6.5a.81.81,0,0,1-.9-.4.85.85,0,0,1,0-.7l1.2-2a.85.85,0,0,0,0-.7.45.45,0,0,0-.5,0,1.85,1.85,0,0,0-1.2.7,7.77,7.77,0,0,1-4.9,2.7h-1.4a.8.8,0,0,1-.9-.6,1.43,1.43,0,0,1,.3-1l1.5-1.8v-.8h-.8l-3.6,1.7a2.28,2.28,0,0,1-1.1.3,2,2,0,0,1-1.9-.8.55.55,0,0,1-.3-.5h.2a6.09,6.09,0,0,0,1.6-1.6.85.85,0,0,0,0-.7,1.2,1.2,0,0,0-.8-.3l-3.5.4a7.51,7.51,0,0,1-4.2-.4,1.05,1.05,0,0,1-.5-.9c0-.4.4-.8,1.2-1.3L48,161a1.34,1.34,0,0,0,.7-.6.91.91,0,0,0-.3-.7v-.6a1.21,1.21,0,0,1,.5-.5,3.36,3.36,0,0,1,1.4-.5,6.58,6.58,0,0,1,4,1.7,1.42,1.42,0,0,0,.6.2.75.75,0,0,0,0-.9l-.4-1.5v-.8a.86.86,0,0,1,.6-.3c1.9,0,3.6.9,5.6,3.3a1.7,1.7,0,0,0,1,.6h.2a1.39,1.39,0,0,0-.2-1.1l-.6-1.4a1.39,1.39,0,0,1,0-.9,1.23,1.23,0,0,1,1-.5h.8c1.3,0,2.1.2,2.3,1.1l1.8,3.1a1.1,1.1,0,0,0,1,.6c.4,0,.7-.3,1.1-.9s.4-.6.6-.6a7,7,0,0,1,2.9,1.7,2.34,2.34,0,0,0,1.7.7,2,2,0,0,0,1.1-.3,12.05,12.05,0,0,1,4.5-1.2,6.05,6.05,0,0,1,1.9,0,.78.78,0,0,1,.7.9h0c0,.5-.7,1.1-1.9,1.2h-1.3a13,13,0,0,0-5.1,2.6,2.27,2.27,0,0,1-1.6.6,1.61,1.61,0,0,0-.9.3c-.6,0-1.2.8-1.9,1.7a8.34,8.34,0,0,1-4.9,3.5"/><path class="cls-1" d="M35.55,152.11c.8,0,1.4,0,1.6.5v.5c0,.4,0,1,.7,1h2.8c.3,0,.4,0,.5-.2s0-.3,0-.6c-.5-1.1-.9-1.3-1.4-1.3h-.3a1.1,1.1,0,0,1-.8,0c-1.2-.6-1.7-2.6-1.6-6a1.1,1.1,0,0,0,0-.8h0c-.3,0-.4,0-.5.8l-.6,1.3c0,.7-.3.7-.4.8h-.5a6,6,0,0,1-2.8-4.2c0-.7,0-4.2-1.1-2-.4.3-1.2-1.1-1.7-2.1s-.3-.6-.5-.6a.83.83,0,0,0-.3.8,1.21,1.21,0,0,1-.3,1,.65.65,0,0,0-.6.5c0,.2,0,.3.7.4s2.1,1.5,3.1,3.9a.3.3,0,0,1,0,.4h-3.7c-.4,0-.5,0-.5.3s.4.6.9.7l3.4.5a3.13,3.13,0,0,1,2.7,1.7,1.36,1.36,0,0,1,.2,1q-.15.3-.3.3c-1.2.4-2.5.7-3.8,1-.5,0-.8,0-.8.4s0,.4.9.7a3.3,3.3,0,0,0,1.4,0c.7-.1,1.3-.2,1.9-.3a3.29,3.29,0,0,1,1.7-.4m11.3,5.9a.85.85,0,0,1-.7,0,9.46,9.46,0,0,0-7.4-2.3,18,18,0,0,0-3.2.6.55.55,0,0,1-.5-.3,1.7,1.7,0,0,1,0-1c0-.6-.2-.9-.8-.9h-1.9a5.85,5.85,0,0,1-6.4-2.7.64.64,0,0,1,0-.6h.5l4.4-.5a.68.68,0,0,0,.7-.7v-.1a.72.72,0,0,0-.6-.7q-6.6-1-7.8-3.9a.85.85,0,0,1,0-.7h.7l3.4.3c.5,0,.8,0,.8-.3s0-.4-.6-.7l-3.4-1.8a.76.76,0,0,1-.3-.9c0-.3.5-.5,1.1-.6h1.3a1.16,1.16,0,0,0,1-.4c.4-.4.4-1.1.3-2.1v-1c0-.7,0-1.2.4-1.2s.7,0,1.7,1.7c.5.6.9,1,1.2.9s.6-.7.9-1.8.4-.6.4-.6a1.14,1.14,0,0,1,.8.3c1.4.8,1.4,4.2,1.2,7.4a.85.85,0,0,0,0,.7.45.45,0,0,0,.5,0s.6,0,.7-1l.5-2.1a.82.82,0,0,1,.8-.9,1.66,1.66,0,0,1,1.2.5c1.3,1.1,1.6,3,1.5,7.4a1.14,1.14,0,0,0,.3.8H40c.3,0,.7-.3,1-1s.3-.4.3-.4.3,0,.5.7a11.42,11.42,0,0,0,4.9,8.5.65.65,0,0,1,.2.9.78.78,0,0,1-.4.4"/><path class="cls-1" d="M45.85,150a1,1,0,0,1-.7-1.6,3.51,3.51,0,0,1,1.4-.6,1.21,1.21,0,0,1,1,.3.81.81,0,0,1,.3.9,2.12,2.12,0,0,1-2,1Z"/><path class="cls-1" d="M37.55,160.61h-.5a1.6,1.6,0,0,1-.9-1.3,1.66,1.66,0,0,1,.5-1.2h.8c.7,0,1.1.5,1.3,1.6a1.45,1.45,0,0,1-.2.7,1.78,1.78,0,0,1-1,.4"/><path class="cls-1" d="M48.75,156.31c-.3,0-.9-.4-1.6-1.5a3.51,3.51,0,0,0-1.9-1.7,1.15,1.15,0,0,1-.7-1.3,1.06,1.06,0,0,1,.9-.8h.4a5.92,5.92,0,0,0,1.9-.5h.6a.89.89,0,0,1,1,.6,1.39,1.39,0,0,1-.2,1.1,1.62,1.62,0,0,0-.7,1.8,3.42,3.42,0,0,1,.5,2.2Z"/><path class="cls-1" d="M40.65,161.21a.78.78,0,0,1-.9-.6,5.22,5.22,0,0,0-.4-2.1,1.36,1.36,0,0,1,0-1.5.79.79,0,0,1,.8-.5,2.39,2.39,0,0,1,.9.2,2.65,2.65,0,0,0,2.2.8,2.47,2.47,0,0,1,1.9.4c.3,0,.3.4.3.5h-.7a3,3,0,0,0-2.7,1.7,1.4,1.4,0,0,1-1.2.9"/><path class="cls-1" d="M15.45,130.21c-.3,0-.5,0-.5.4s0,.4.5.4c1.3,0,2.5,0,3,.6a.55.55,0,0,0,.5.3h0v-.2a.85.85,0,0,0,0-.7c-.6-.7-.4-1.6.6-2.9a1.14,1.14,0,0,0,.3-.8h-1.4a1.3,1.3,0,0,1-1.3-.5,3.39,3.39,0,0,1,0-3.1c.5-1.5,1.1-3.1,1.6-4.9V118h0c-.3,0-.5.3-.6.5-.4.9-.7,1.7-1,2.4s-.8,2.1-1.2,2.1-1.4-1.2-2-2.1a4.24,4.24,0,0,1,0-3.8.85.85,0,0,0,0-.7h-.3s-.3,0-.4.4a2.55,2.55,0,0,1-.9,1.1,3.84,3.84,0,0,1-1.4-1.2.76.76,0,0,0-.5-.2.68.68,0,0,0-.6.4.75.75,0,0,0,0,.9l.3.2c.5.5,1.5,1.5,1.4,1.7h0a3.79,3.79,0,0,1-1.5,0h-.5a.37.37,0,0,0-.4.4c0,.2,0,.4.6.5,2.9.2,5.1,2.5,4.9,3.8,0,.5-.4.7-1,.8a6.45,6.45,0,0,1-2-.3h-.2a.66.66,0,0,0-.5.4s0,.5.7.6c3.1,0,5.3,1.9,5.2,3.1.1,1.1-.7,1-1.4,1.2Zm10,8.5h-.6A17.59,17.59,0,0,1,20,135a4.31,4.31,0,0,0-3.4-2.3,7.61,7.61,0,0,1-5.3-2.5.39.39,0,0,1,0-.5h2c.5,0,.6-.2.6-.3a1.2,1.2,0,0,0-.9-.8c-4-.7-6-1.8-6.2-3.5v-.8c0-.1.3,0,.7-.3h1.2a.57.57,0,0,0,.4-.7c0-.1,0-.1-.1-.2s0-.3-.8-.6a7.72,7.72,0,0,1-3.4-2.2,1.48,1.48,0,0,1,0-1.3.67.67,0,0,1,.7-.4h.6a1.39,1.39,0,0,0,.9,0,.55.55,0,0,0,.5-.3,1.94,1.94,0,0,0-.6-1.5,1.39,1.39,0,0,1,0-.9,1.09,1.09,0,0,1,.9-.4h.8a2.75,2.75,0,0,0,1.5-.8c.2-.1.3-.2.5-.2a.93.93,0,0,1,1,.7c.3.7.6,1.3,1.2,1.2s.6,0,.8-1,.5-1.5,1-1.5a1.85,1.85,0,0,1,.7.2c.9.5.9,1.9,0,4.4a1.39,1.39,0,0,0,0,.9h.3c.4,0,.9-.6,1.2-1.4,0-1.8.8-2.8,1.7-2.9h.6a1.94,1.94,0,0,1,1.4.9,9.38,9.38,0,0,1-.5,6.8,1.28,1.28,0,0,0,0,1.2.45.45,0,0,0,.5,0,1.37,1.37,0,0,0,.8-.5,2.59,2.59,0,0,1,1.1-.7.45.45,0,0,1,.5,0,3,3,0,0,1,0,2.6,7.69,7.69,0,0,0,1.2,10.9,5.85,5.85,0,0,0,1.7,1,1.16,1.16,0,0,1,.4,1c-.3.4-.5.5-.7.4"/><path class="cls-1" d="M24.55,136a.55.55,0,0,1-.5-.5c0-2.2-.5-3.5-1.2-4a1.71,1.71,0,0,1,0-1.4.84.84,0,0,1,.7-.4H24a6.6,6.6,0,0,0,2.7.6,1.08,1.08,0,0,1,1,.8.81.81,0,0,1-.4.9,2.23,2.23,0,0,0-1.9,2.5v.1c0,.9-.4,1.3-.8,1.4"/><path class="cls-1" d="M26.15,128.91h-.6a1.12,1.12,0,0,1-1.2-1,1.4,1.4,0,0,1,.9-1.2H26a1.13,1.13,0,0,1,1.1.3,1.31,1.31,0,0,1,.3,1.2,1.09,1.09,0,0,1-1.2.7"/><path class="cls-1" d="M15.25,138.31a1,1,0,0,1-1.1-.8,1.72,1.72,0,0,1,0-1.7,1.15,1.15,0,0,1,.9-.6,1.19,1.19,0,0,1,1.2,1,1.7,1.7,0,0,1,0,1.4,1.46,1.46,0,0,1-.9.6"/><path class="cls-1" d="M17.75,139.91a1.14,1.14,0,0,1-.8-.3.85.85,0,0,1,0-.7,6.15,6.15,0,0,0,0-2.7,1.38,1.38,0,0,1,1.1-1.3,1.1,1.1,0,0,1,1,.6,2.86,2.86,0,0,0,1.7,1.7c1.4.7,1.7,1.3,1.7,1.6a.45.45,0,0,1-.5,0h-.5a3.29,3.29,0,0,0-1.7-.4,1.1,1.1,0,0,0-1,.6,2.09,2.09,0,0,1-1.3.7"/><path class="cls-1" d="M3.85,95.51v.8c1,1.6,2,3.4,1.7,4.4a1.06,1.06,0,0,1-.7.6s-.6,0-.7.3,0,.5.2.6a2.07,2.07,0,0,0,1,.6c.7.3,1.2.6.8,1.6v1.1a1.84,1.84,0,0,0,1.4.8.63.63,0,0,0,.6-.5,1.73,1.73,0,0,0-.7-1.6c-.4,0-.6-.2-.6-.4s0-.5.7-1.1c1.4-1.6,1.5-1.8,1.4-2H9l-.6.2h-.5c-.7,0-1-.3-1-1.5s0-1.7.9-2.2c1.6-1,1.8-1.3,1.7-1.6s-.3-.3-1.1-.2h-.5v-.6a4.86,4.86,0,0,1,1.7-3.3c.2-.3.5-.7.4-1s-.5-.2-.8,0a2.14,2.14,0,0,0-1.8.9,2.54,2.54,0,0,0-.4,1.7l-.4,2.6c0,.4,0,.8-.5.9h-.5c-.9-.8-1.2-.9-1.3-.9h0Zm6.7,18.4h-.4a3,3,0,0,1-1.5-2.1c-.7-3.4-1.5-4.4-2.5-4.9s-1.8-1.5-1.8-1.9c0-1.4-.6-1.8-1.3-2a3.57,3.57,0,0,1-2.9-2.5,2.78,2.78,0,0,1,0-1.8.76.76,0,0,1,.4-.2,5.78,5.78,0,0,1,1.7.6h.4c.1,0,.3-.1.3-.2a1.28,1.28,0,0,0,0-1.2l-1.1-2a2.42,2.42,0,0,1,.3-2.9c.6-.8,1-1,1.2-1a.19.19,0,0,1,.3,0c.8,1.3,1.2,1.4,1.4,1.4s.5-.9.5-1.2c0-2,.6-4.5,1.9-4.6a.85.85,0,0,1,.7,0,1.59,1.59,0,0,0,1.2.4,3.36,3.36,0,0,0,2-1.3h.5s.5,0,.7.8a4.22,4.22,0,0,1-1.3,4.2c-.4.6-.5,1-.4,1.2s0,0,.4,0a7.1,7.1,0,0,0,1.8-.8c.2-.1.3-.2.5-.2a1.15,1.15,0,0,1,.5.9c.3,1.7-1,3.2-4.1,4.9a.87.87,0,0,0-.6.9.56.56,0,0,0,.6.5h.1a.64.64,0,0,0,.6,0,3.81,3.81,0,0,1,1.7-.8.88.88,0,0,1,1,.5,3.2,3.2,0,0,1-1.2,2.6c-1.2,1.1-1.1,1.6-1.7,1.8s-.6.3-.6.6v.7c0,.3.4.9,0,1.6-1.2,1-1.1,3.3.3,6.8.5,0,.6.6.4,1.2,0,.1-.1.2-.3.2"/><path class="cls-1" d="M15.45,105.91a2.44,2.44,0,0,1-1.2,0,1,1,0,0,1-.4-1.1,1.29,1.29,0,0,1,1.1-1.3c.9,0,1.4,0,1.6.5a1.48,1.48,0,0,1,0,1.3,2.11,2.11,0,0,1-1,.4"/><path class="cls-1" d="M1.55,110a1.39,1.39,0,0,1-.9,0,1.25,1.25,0,0,1-.3-1.7,1.44,1.44,0,0,1,.9-1.1h.4a.67.67,0,0,1,.8.3,2.21,2.21,0,0,1,0,1.6c0,.5-.5.8-.9.9"/><path class="cls-1" d="M7.75,113.21h-.4c-.9-.8-1.7-1.3-2.3-1.2a.91.91,0,0,0-.8.4h-.7a1,1,0,0,1-1.1-.5.91.91,0,0,1,0-1c.5-.8,1-1.7,1.5-2.6a1.15,1.15,0,0,1,.9-.6,1.2,1.2,0,0,1,1.2,1.1h0l.3,1.1,1.5,1.9a.91.91,0,0,1,0,1Z"/><path class="cls-1" d="M12.35,112l-.5-.6a6.05,6.05,0,0,1,0-1.9,2.33,2.33,0,0,0,0-2,1.28,1.28,0,0,1,0-1.2,1.06,1.06,0,0,1,.7-.6h.3c.8.5,1.6.9,2.4,1.3a1,1,0,0,1,.9,1.1,1.21,1.21,0,0,1-1.2.8c-1,0-1.7.9-2.1,2.3-.1.7-.3.8-.5.8"/><path class="cls-1" d="M128.25,152.41a1.21,1.21,0,0,1-1-.3.75.75,0,0,1,0-.9,1.67,1.67,0,0,0-.8-1.7,2,2,0,0,1-.4-2.1,2.24,2.24,0,0,1,1.9-1.2,1.81,1.81,0,0,1,1.7.7,2.55,2.55,0,0,1,0,2.4,1.39,1.39,0,0,0-.4,1.7,1.18,1.18,0,0,1-.6,1.5c0-.2-.1-.1-.4-.1"/><path class="cls-1" d="M150.25,132.91a1,1,0,0,1-.9-.7c0-.6-.5-1-1.5-1.1a1.67,1.67,0,0,1-1.4-1.9,2.66,2.66,0,0,1,2.3-2c1,0,1.7.6,1.8,2.1a1.17,1.17,0,0,0,.5,1.6,1,1,0,0,1,.3,1.1,1.3,1.3,0,0,1-1.1.9"/><path class="cls-1" d="M162,107.31a1.05,1.05,0,0,1-.9-.5,1.15,1.15,0,0,0-1.3-.7h-.4a1.49,1.49,0,0,1-1.5-1.7,2.55,2.55,0,0,1,2-2.3c.8,0,1.4.5,1.8,1.6v.2c0,.5,0,1,.8,1.1a1.09,1.09,0,0,1,.7,1.2,1.53,1.53,0,0,1-1.1,1.1"/><path class="cls-1" d="M133.55,160.81a2.3,2.3,0,0,1-2-1.3,1.2,1.2,0,0,0-1-1.3,1.08,1.08,0,0,1-.8-1.1,1.49,1.49,0,0,1,1.2-1.2.91.91,0,0,1,.8.4,1,1,0,0,0,1.1.5h.7c1.3,0,2,.5,2,1.5a2.68,2.68,0,0,1-2.1,2.6"/><path class="cls-1" d="M158.45,137.51a3.17,3.17,0,0,1-1.6-.4,1.43,1.43,0,0,0-1.2-.6h-.6a1.14,1.14,0,0,1-.8-.3.86.86,0,0,1-.3-.6,1.2,1.2,0,0,1,1-1.3h1a2.4,2.4,0,0,0,1.2-.7,3.58,3.58,0,0,1,1.1-.4,1.28,1.28,0,0,1,1.3.7,2.75,2.75,0,0,1,0,2.5,1.42,1.42,0,0,1-1.3.9"/><path class="cls-1" d="M171,109.21a2.05,2.05,0,0,1-1.1,0,1.5,1.5,0,0,0-1.8,0h-.4a1,1,0,0,1-1.2-.9v-.1a1.1,1.1,0,0,1,0-.8,1.23,1.23,0,0,1,.8-.4h.7a1.72,1.72,0,0,0,1.2-1,2.85,2.85,0,0,1,1.4-.8,1.36,1.36,0,0,1,1.3.7,2.56,2.56,0,0,1,.6,2.4,1.34,1.34,0,0,1-1.3.8"/><path class="cls-1" d="M108.25,167.41a6.05,6.05,0,0,1-1.9,0,25.14,25.14,0,0,1-5.7-2.8,19.09,19.09,0,0,0-7.8-2.3.82.82,0,0,1-.7-1v-.1a1,1,0,0,1,.8-1,35.88,35.88,0,0,1,9,2.7,4.67,4.67,0,0,0,1.7.3,5.22,5.22,0,0,0,2.1-.7l1.2-.5a51.22,51.22,0,0,1,16.2-5.2h2.6s0,.4-1.5.5h-.5a9.18,9.18,0,0,0-3.2,1l-4.2,2.1a21.6,21.6,0,0,1-6.5,2.6h-.5c-1.9.3-3,.8-3,1.4s.4.6,1.1.6H109a18.54,18.54,0,0,0,6.4-2.1,30.27,30.27,0,0,1,10.8-4.9h.8a2,2,0,0,1-.4.8,32.71,32.71,0,0,1-11.2,6.3c-1.1.3-2,.8-3,1.1a10.88,10.88,0,0,1-4.1,1.2"/><path class="cls-1" d="M113.25,170.71c-3.7.3-6-.4-7.1-2.4a6.61,6.61,0,0,0,2.8,0,27.9,27.9,0,0,0,9.7-3.3,19.94,19.94,0,0,1,5.9-2.2c.9,0,1.3,0,1.3.3s0,.3-.3.5l-10.2,4.2a.88.88,0,0,0-.9.8c0,.3.3.4.7.3A27.33,27.33,0,0,0,122,166a13.94,13.94,0,0,1,5.1-2h1.2s0,.3-.6.5a67.8,67.8,0,0,1-13.5,6l-.9.2"/><path class="cls-1" d="M104.45,162c-1.1,0-2.4-.3-2.7-1.1h0a9.42,9.42,0,0,0,5.5-3.2c1.1-.9,2.2-1.8,3.3-2.6a4.42,4.42,0,0,1,1.6-.6,8.78,8.78,0,0,0,2.3-.7,9.33,9.33,0,0,1,3.9-1.5,4.13,4.13,0,0,1,2.2.4c.5.4.6.5.6.6h-1.4a9,9,0,0,0-4.4,1.8l-3.8,1.1c-1,.3-2.1.9-2,1.4s0,.3.6,0h.4l1.9-.5a10.84,10.84,0,0,0,1.9-.8,6.4,6.4,0,0,1,2.6-1,13.82,13.82,0,0,0,2.7-.8l1.5-.5h0c.3-.1.6.2.7.5v.1a.62.62,0,0,1-.5.8h-.1a17.42,17.42,0,0,1-2.2.5c-1.2.3-2.5.6-3.7,1a84.7,84.7,0,0,0-9.7,4.4,1.75,1.75,0,0,1-1.2.4"/><path class="cls-1" d="M128.65,155.71a1.61,1.61,0,0,1-1.1-.5.81.81,0,0,1,.3-.9c0-.7,1.1-1.3,2.3-2.1A25,25,0,0,0,137,146a38.78,38.78,0,0,1,7.5-7.1c1.3-1.1,2.8-2.2,4.2-3.5a3.53,3.53,0,0,1,.7-.6v.6a12,12,0,0,1-5.1,6,30,30,0,0,0-8.2,7.7c-.3.5-.4.8,0,1h0s.5,0,1.6-.9a25.55,25.55,0,0,1,6.8-6.3,16.48,16.48,0,0,0,5.5-6.2,2.23,2.23,0,0,1,.3-.5,3.3,3.3,0,0,1,0,1.4,9.66,9.66,0,0,1-4,6.7,36.38,36.38,0,0,1-9.7,7.3,10.31,10.31,0,0,0-6.9,3.7,2.46,2.46,0,0,1-1,.4"/><path class="cls-1" d="M140.75,153.21h-5.5s0-.4.6-.6a28.37,28.37,0,0,0,14.6-11.1,4.05,4.05,0,0,1,.9-.5h.3a.45.45,0,0,1,0,.5,23,23,0,0,1-7.6,7.9l-.8.6c-.5.4-.8.8-.7,1.2a.3.3,0,0,0,.4,0h.5a34.46,34.46,0,0,0,9.7-9.7.29.29,0,0,1,.3-.3v.5c.3,1.1-.6,2.6-2.5,4.5a29.67,29.67,0,0,1-6.7,6,24.09,24.09,0,0,1-3.7.7"/><path class="cls-1" d="M132.55,149.31h-.3a.85.85,0,0,1,0-.7,20.73,20.73,0,0,0,.8-4.2A7.34,7.34,0,0,1,136,140a61.4,61.4,0,0,0,6.8-6.7h.2v.6c0,.6-.9,2-2.4,3.4a28.21,28.21,0,0,0-3,3l-2.5,2.9c-.2.5-.3.8,0,1h.3a2,2,0,0,0,1.2-.8,32.35,32.35,0,0,1,5.2-5.9c.4-.4.6-.5.7-.5s0,.2,0,.9a6.81,6.81,0,0,1-2.6,3.4,20.78,20.78,0,0,0-4.5,5.3,6.86,6.86,0,0,1-2.8,2.8"/><path class="cls-1" d="M152.15,135.41a.55.55,0,0,1-.5-.3.91.91,0,0,1,0-1,15.67,15.67,0,0,0,3.5-8.5l.7-1.7a45,45,0,0,1,6-12c.5-.5.7-.5.7-.5v.8a57.73,57.73,0,0,1-3.4,8.1,43.48,43.48,0,0,0-2.5,5.9v1h.2a1.61,1.61,0,0,0,.7-.4,35.15,35.15,0,0,0,4.1-9.3,41.17,41.17,0,0,1,2.7-6.9c.4-.8.6-.8.7-.8s0,0,0,1.1a33.69,33.69,0,0,1-4.9,15,12.61,12.61,0,0,1-2,2,7.4,7.4,0,0,0-2,2.3,18,18,0,0,1-3.4,4.9,2.18,2.18,0,0,1-.8.5"/><path class="cls-1" d="M153.35,128.31a.65.65,0,0,1-.5-.3c-3.6-5.5,0-11.9,3.7-16.3a1.46,1.46,0,0,1,.8-.5.28.28,0,0,1,0,.5h0a8.07,8.07,0,0,0-1.7,3.9,8.33,8.33,0,0,1-1.6,3.6,6.38,6.38,0,0,0-.8,1.4c-.5,1.1-.6,1.8-.4,2.2h.2c.2,0,.5-.3.6-.5a44.07,44.07,0,0,0,2.6-5.9,21.3,21.3,0,0,1,2.1-4.9.82.82,0,0,1,.6-.4h.3a1.1,1.1,0,0,1,0,.8,39,39,0,0,1-4,8.8,10.15,10.15,0,0,0-1.6,4.5c0,1.5-.4,2.7-.8,2.7"/><path class="cls-1" d="M158.15,130.61h-.3a2.3,2.3,0,0,1,.3-.8,21,21,0,0,0,5.5-7.7,8.76,8.76,0,0,1,3.9-6.8l1-.4s0,.3-.6,1.1a17.58,17.58,0,0,0-2.6,5.1,18.91,18.91,0,0,1-2.5,4.9c-.4.5-.5.9-.4,1.1h.9a12.68,12.68,0,0,0,2.5-4.9,22.83,22.83,0,0,1,3.4-6.8c.4-.3.6-.4.7-.4s0,0-.2,1a28.64,28.64,0,0,0-1.5,4.1,26.26,26.26,0,0,1-3.4,7.9,9.13,9.13,0,0,1-2.3,1.5l-1.5.5-1.6.6a2.84,2.84,0,0,1-1.3.4"/><path class="cls-1" d="M163.45,101.91a1.14,1.14,0,0,1-.8-.3c-3.3-2.6-4.1-6.8-2.6-13.5v-.7h.2a2.9,2.9,0,0,1,.6,3.2,11.45,11.45,0,0,0,.4,7.1.57.57,0,0,0,.7.5h0a.64.64,0,0,0,0-.6,9.06,9.06,0,0,1-.4-5.4,4.84,4.84,0,0,0,0-1.7.45.45,0,0,1,0-.5h.5c.4.5.9,1.4.5,4.2a9.91,9.91,0,0,0,0,4.2,4.13,4.13,0,0,1,.2,2.9.37.37,0,0,1-.4.4"/><path class="cls-1" d="M164.25,108.91a1.42,1.42,0,0,1-.6-.2,1.1,1.1,0,0,1,0-.8,29.69,29.69,0,0,1,.6-4.3,16.26,16.26,0,0,0,.4-4.9,17.91,17.91,0,0,1,2-11.8,2.09,2.09,0,0,1,.6-.4s.3,0,.4.7a7.08,7.08,0,0,1-1,4.9,16.87,16.87,0,0,0-.7,6.7.85.85,0,0,0,0,.7.45.45,0,0,0,.5,0c.3,0,.7-.3.7-1.1a13.78,13.78,0,0,1,.7-6.7,6.67,6.67,0,0,0,.5-4.6v-.5l.4.3c.4.3,1,1,1.1,3.4a23.25,23.25,0,0,1-1.1,7.9c-.6,1.1-1.2,2.2-1.9,3.3A14.79,14.79,0,0,0,165,105a4.82,4.82,0,0,0-.4,3.1.89.89,0,0,1-.8,1h0"/><path class="cls-1" d="M167.05,105h0v-1l3.3-5.4a20.64,20.64,0,0,0,1.1-8.9,1.1,1.1,0,0,1,0-.8h.3a1.56,1.56,0,0,1,.7,2.1l-.8,4.4-.5,3a.85.85,0,0,0,0,.7h.3c.2,0,.5-.3.5-.8a8.91,8.91,0,0,1,.9-3.9,9.89,9.89,0,0,0,0-5.9v-.4l.5.5a4.23,4.23,0,0,1,1,4,6.72,6.72,0,0,0-.3,2.8,5.53,5.53,0,0,1-1.1,3.8l-4.9,4.5a3.15,3.15,0,0,1-1.5.8"/><path class="cls-2" d="M233.05,35.11a11.71,11.71,0,0,0-11.6-.4,18.9,18.9,0,0,0-3.9,11.9c0,8.2,4.2,13.1,10.8,13.1A14.26,14.26,0,0,0,233,59a23.26,23.26,0,0,0-.8-6.9,12,12,0,0,0-4.1-2l.6-3h16.5l.6,3-3.8,1.5a59.33,59.33,0,0,0-.6,8.4v.9a26.64,26.64,0,0,1-14.2,4.1c-11.8,0-19-6.7-19-17.5a19.53,19.53,0,0,1,20.3-18.6h.1a28.75,28.75,0,0,1,12.9,3l.9,1.5c-.5,2.6-1.6,7.2-1.9,8.9a48.86,48.86,0,0,1-5.4-.3A29.17,29.17,0,0,0,233.05,35.11Z"/><path class="cls-2" d="M250.45,47.81a18.61,18.61,0,0,1,18.4-19h.6a16.2,16.2,0,0,1,17.4,14.8,8.1,8.1,0,0,1,0,2.2,18.38,18.38,0,0,1-18,18.9h-.7a16.28,16.28,0,0,1-17.7-14.8Zm24.9,9.9a21.69,21.69,0,0,0,2.1-10c0-8.5-2.6-13.7-9.1-13.7a9.81,9.81,0,0,0-5.5,1.6,20.4,20.4,0,0,0-3.1,11.2c0,8.2,3.6,13.1,9.7,13.1A9.52,9.52,0,0,0,275.35,57.71Z"/><path class="cls-2" d="M294.45,59.41a59.07,59.07,0,0,0,.4-8.4v-8.6a29.45,29.45,0,0,0-.7-7.8,10.27,10.27,0,0,0-4-2.1l.7-3h7.9c1.8,0,7.2-.3,9.7-.3,8.5,0,13.7,3,13.7,8.8a9.14,9.14,0,0,1-5.8,7.9,8.58,8.58,0,0,1,7.4,8.3c0,6.8-6.5,10.1-13.6,10.1-3.2,0-7.8-.4-11-.4h-8.3l-.7-3Zm9.1-15,6.8.3a7.83,7.83,0,0,0,1.6-10.1,7.3,7.3,0,0,0-4.3-1.1,12.42,12.42,0,0,0-3.3.4H304a60.48,60.48,0,0,0-.4,8.5v2Zm.9,14.6a8.37,8.37,0,0,0,4.9,1,10.3,10.3,0,0,0,3.5-.6,6.79,6.79,0,0,0,2.1-5.2c0-3-1.8-4.9-5.5-4.9h-5.8V51a29.45,29.45,0,0,0,.7,7.8Z"/><path class="cls-2" d="M332.65,59.41a78.72,78.72,0,0,0,.4-8.4v-8.6a25.81,25.81,0,0,0-.7-7.8,8.59,8.59,0,0,0-4-2.1l.6-3h16.8l.7,3-4.3,1.5a59.07,59.07,0,0,0-.4,8.4V51a29.45,29.45,0,0,0,.7,7.8,10.27,10.27,0,0,0,4,2.1l-.7,3h-16.9l-.6-3Z"/><path class="cls-2" d="M357,59.41a59.07,59.07,0,0,0,.4-8.4v-8.6a29.45,29.45,0,0,0-.7-7.8,10.27,10.27,0,0,0-4-2.1l.7-3h13.7c6.2,0,11.2,0,15.2-.4a18.82,18.82,0,0,1,1.6,2.3c-.4,2.4-1.3,6.8-1.7,8.5a29,29,0,0,1-5.1-.2l-1.3-5.7a30.37,30.37,0,0,0-5.2-.4h-4.2c0,1.6-.4,4.9-.4,8.8v2.8l10.4-.9,1,1.3a29.29,29.29,0,0,1-.7,4.1l-10.7-.4V51a25.81,25.81,0,0,0,.7,7.8l.3.3a8.67,8.67,0,0,0,4.5.6,27,27,0,0,0,4.9-.4l1.7-6a35,35,0,0,1,5.6.2v10.2h-30.3l-.7-3Z"/><path class="cls-2" d="M394.45,59.41a59.07,59.07,0,0,0,.4-8.4v-8.6a29.45,29.45,0,0,0-.7-7.8,9.62,9.62,0,0,0-4-2.1l.6-3h8.3c1.8,0,7.2-.3,9.7-.3,8.3,0,13.4,2.9,13.4,9a10.58,10.58,0,0,1-6.7,9.1,125.48,125.48,0,0,0,6.9,11.8l3.3,1.7-.6,3h-10.2c-1.7-3.9-3.9-8.6-6.6-13.9h-4.9v.9a25.81,25.81,0,0,0,.7,7.8,9.62,9.62,0,0,0,4,2.1l-.6,3H391l-.6-3Zm9-14.2,6.9.3a8.28,8.28,0,0,0,2.8-6.4,7.93,7.93,0,0,0-1.1-4.5,7,7,0,0,0-4.2-1.1,12.66,12.66,0,0,0-3.9.5,59.07,59.07,0,0,0-.4,8.4v2.8Z"/><path class="cls-2" d="M433.55,34.71a15.3,15.3,0,0,0-4-2.1l.6-3h11.2a189.59,189.59,0,0,0,16,21.7,81.76,81.76,0,0,0-1.1-16.4,14.27,14.27,0,0,0-4.9-2.1l.6-3h15.2l.6,3-4.3,1.6a288.71,288.71,0,0,0-.9,29.4l-6.7.6-4.4-6.4c-3.4-4.9-7.9-10.4-11.6-15.1a110,110,0,0,0,.9,16.2,19.58,19.58,0,0,0,5.7,2.1l-.6,3H430l-.4-3.2,4.3-1.5a111.19,111.19,0,0,0,.4-12.9A33.87,33.87,0,0,0,433.55,34.71Z"/><path class="cls-2" d="M470.85,47.81a18.76,18.76,0,0,1,18.5-19h.6a16.15,16.15,0,0,1,17.5,14.7,8.85,8.85,0,0,1,0,2.3,18.38,18.38,0,0,1-18,18.9h-.9a16.36,16.36,0,0,1-17.7-14.9Zm24.9,9.9a21.43,21.43,0,0,0,2.1-10c0-8.5-2.6-13.7-9.1-13.7a9.18,9.18,0,0,0-5.6,1.6,20.3,20.3,0,0,0-3,11.2c0,8,3.5,12.9,9.4,12.9A9.08,9.08,0,0,0,495.75,57.71Z"/><path class="cls-2" d="M530.35,59.41a78.72,78.72,0,0,0,.4-8.4v-8.6a25.81,25.81,0,0,0-.7-7.8,8.59,8.59,0,0,0-4-2.1l.6-3h7.7c1.8,0,7.3-.3,9.7-.3,14.2,0,19,7.9,19,17.2a16.69,16.69,0,0,1-15.4,17.9,7.39,7.39,0,0,1-2.1,0c-3.1,0-7.8-.4-11-.4h-8.1l-.6-3Zm10-.2a10.55,10.55,0,0,0,8,.2,13.78,13.78,0,0,0,5.8-13,14.64,14.64,0,0,0-3.9-11.1,12.23,12.23,0,0,0-6.5-1.5c-1.3,0-2.7.1-4,.2a59.07,59.07,0,0,0-.4,8.4V51a29.45,29.45,0,0,0,.7,7.8A1.38,1.38,0,0,1,540.35,59.21Z"/><path class="cls-2" d="M571.15,59.41a59.07,59.07,0,0,0,.4-8.4v-8.6a29.45,29.45,0,0,0-.7-7.8,10.27,10.27,0,0,0-4-2.1l.7-3h13.7c6.2,0,11.2,0,15.2-.4a18.82,18.82,0,0,1,1.6,2.3c-.4,2.4-1.3,6.8-1.7,8.5a29,29,0,0,1-5.1-.2l-1.1-5.7a30.37,30.37,0,0,0-5.2-.4h-4.6c0,1.6-.4,4.9-.4,8.8v2.8l10.4-.6,1,1.3a29.29,29.29,0,0,1-.7,4.1l-10.7-.4v1.7a23.06,23.06,0,0,0,.8,7.8l.3.3a10,10,0,0,0,4.5.8,27,27,0,0,0,4.9-.4l1.7-6a35,35,0,0,1,5.6.2v10.2h-30.4l-.7-3Z"/><path class="cls-2" d="M233.45,147.21h-24.3l-1-4.9,7.3-2.4c.6-4.5,1.3-14.3,1.7-23a71.52,71.52,0,0,0,0-17.3,17.84,17.84,0,0,0-6.5-3.5l1.1-4.9h26.8c2.3,7.9,7.9,23.6,12.2,33.7,4.2-11.4,10.2-26.2,12.2-33.7h25.2l1,4.9-7.3,3.2,1.5,26.3a37.62,37.62,0,0,0,1.9,13.3,16.26,16.26,0,0,0,6.5,3.4l-1,4.9h-27.4l-1-4.9,7.7-2.4c0-4.9-1.1-23.6-1.3-37.2l-15,38.3a71,71,0,0,1-11.3,0c-3.4-8-10.5-26.9-15.8-38.3l-.5,17.1a84.41,84.41,0,0,0,0,18.8c.7,1.9,4.9,2.7,8.3,3.7Z"/><path class="cls-2" d="M309.85,139.91a88.56,88.56,0,0,0,.7-13.6v-14a45.28,45.28,0,0,0-1.2-12.7,16.26,16.26,0,0,0-6.5-3.4l1.1-4.9h22.4c10.2,0,18.3,0,25-.7.8,1.1,1.9,2.8,2.5,3.8-.6,3.9-2.2,11-2.8,13.8a59.07,59.07,0,0,1-8.4-.4l-2.1-9.2a48.75,48.75,0,0,0-8.5-.7h-6.8c0,2.5-.6,8.1-.6,14.3v4.1l16.9-1,1.6,2.1c-.3,2.1-.7,4.6-1.2,6.7l-17.4-.6v2.8a45.28,45.28,0,0,0,1.2,12.7c.2.2.3.4.5.5a15.7,15.7,0,0,0,7.4,1.3,41.14,41.14,0,0,0,7.8-.7l2.8-9.7a55,55,0,0,1,9.1.4v16.5h-49.5l-1.1-4.9Zm29.5-72a35.47,35.47,0,0,1,5.4,9.7l-1.4,2.9-22.9,5.8-1.4-.7-1.4-4.3C324,76.91,332.15,71.91,339.35,67.91Z"/><path class="cls-2" d="M370.05,139.61a144.79,144.79,0,0,0,16.3-21.1c-4.8-6.7-9.9-13.2-15.3-19.4a44.32,44.32,0,0,0-6.7-3l1.1-4.9c6.3,0,14.1,0,19.4-.3a217.24,217.24,0,0,0,13.5,21.6c2.6-4.9,5.1-9.2,7.2-13.1a54.84,54.84,0,0,0-7.9-3.3l1.1-4.9H424l1.1,4.9c-1.7.8-4.2,2-5.9,2.9a115.59,115.59,0,0,0-16,20.2c6.3,8.7,12.5,16.6,15.7,20.1,2.1,1.1,4.3,2.1,6.5,3l-1.1,4.9c-6.2,0-13.9,0-19,.4a199.24,199.24,0,0,0-14.1-22.3c-2.7,4.9-5.5,9.7-7.6,13.9,2.4,1,5.9,2.1,9.1,3.1l-1,4.9H365l-1-4.9A45.62,45.62,0,0,0,370.05,139.61Z"/><path class="cls-2" d="M443,139.91a88.56,88.56,0,0,0,.7-13.6v-14a45.28,45.28,0,0,0-1.2-12.7,16.26,16.26,0,0,0-6.5-3.4l1.1-4.9h27.3l1.1,4.9-7,2.5a88.56,88.56,0,0,0-.7,13.6v14a41,41,0,0,0,1.3,12.6,16.26,16.26,0,0,0,6.5,3.4l-1.1,4.9h-27.4l-1.1-4.9Z"/><path class="cls-2" d="M515.55,138c1.2-3.2,2.3-6.4,3.2-9.7,3.2,0,6.5.1,9.7.4,0,3.4.3,8.9.3,12l-1.3,2.5a40.91,40.91,0,0,1-21.3,5.6c-18.6,0-30.1-10.8-30.1-28.4A30.73,30.73,0,0,1,507.15,90h.8a44.65,44.65,0,0,1,20.6,4.9l1.4,2.4c-.8,4.3-2.2,10.4-3.2,14.6a84.42,84.42,0,0,1-8.7-.4,41.41,41.41,0,0,0-2.8-10.3,19.51,19.51,0,0,0-17.9-.6,30.55,30.55,0,0,0-5.9,18.9c0,12.2,6.2,20.3,16.5,20.3A16.37,16.37,0,0,0,515.55,138Z"/><path class="cls-2" d="M540.65,120.91a30.75,30.75,0,0,1,30.2-31.1h1c16.8,0,28.3,10.5,28.3,27.7a30.06,30.06,0,0,1-29,31.1h-1.4C552.45,148.71,540.65,138.21,540.65,120.91Zm40.6,16.2a35.41,35.41,0,0,0,3.4-16.3c0-13.9-4.2-22.3-14.8-22.3A15.39,15.39,0,0,0,561,101a32.72,32.72,0,0,0-4.9,18.3c0,13,5.7,21,15.4,21A14.31,14.31,0,0,0,581.25,137.11Z"/></g></g></svg>