<?xml version="1.0" encoding="utf-8"?>
<!-- Generator: Adobe Illustrator 23.1.0, SVG Export Plug-In . SVG Version: 6.00 Build 0)  -->
<svg version="1.1" id="Layer_1" xmlns="http://www.w3.org/2000/svg" xmlns:xlink="http://www.w3.org/1999/xlink" x="0px" y="0px"
	 viewBox="0 0 1024 768" style="enable-background:new 0 0 1024 768;" xml:space="preserve">
<style type="text/css">
	.st0{fill:#CF202E;}
</style>
<path class="st0" d="M94.9,473c-13.3-4-23.8-9.4-31.5-16.1l11.9-26.7c7.6,6,16.8,10.9,27.8,14.7c11,3.8,22,5.7,33.1,5.7
	c13.7,0,24-2.2,30.8-6.6c6.8-4.4,10.2-10.2,10.2-17.4c0-5.3-1.9-9.6-5.7-13.1c-3.8-3.4-8.6-6.1-14.4-8.1c-5.8-1.9-13.7-4.1-23.8-6.6
	c-14.1-3.3-25.5-6.7-34.2-10c-8.7-3.3-16.2-8.6-22.4-15.7c-6.2-7.1-9.4-16.8-9.4-28.9c0-10.2,2.8-19.5,8.3-27.8
	c5.5-8.4,13.9-15,25.1-19.9c11.2-4.9,24.9-7.4,41-7.4c11.3,0,22.3,1.4,33.3,4.2c10.9,2.8,20.3,6.9,28.2,12.1L192.4,332
	c-8.1-4.8-16.5-8.4-25.3-10.8c-8.8-2.5-17.3-3.7-25.6-3.7c-13.6,0-23.6,2.3-30.2,6.9c-6.6,4.6-9.9,10.7-9.9,18.2
	c0,5.3,1.9,9.6,5.7,12.9c3.8,3.3,8.6,6,14.4,7.9c5.8,1.9,13.7,4.1,23.8,6.6c13.7,3.2,25,6.5,33.8,9.9c8.8,3.4,16.3,8.7,22.6,15.7
	c6.2,7,9.4,16.5,9.4,28.5c0,10.2-2.8,19.4-8.3,27.7c-5.5,8.3-13.9,14.9-25.2,19.8c-11.3,4.9-25,7.4-41.2,7.4
	C121.9,479,108.2,477,94.9,473z"/>
<path class="st0" d="M364.8,433.6h-92.4l-18.2,42.8h-35.4L302,291.6h33.8l83.4,184.8h-35.9L364.8,433.6z M353.4,406.7l-34.8-80.8
	L284,406.7H353.4z"/>
<path class="st0" d="M560.5,299.5c11.9,5.3,21,12.9,27.3,22.7c6.3,9.9,9.5,21.6,9.5,35.1c0,13.4-3.2,25-9.5,35
	c-6.3,9.9-15.4,17.6-27.3,22.8c-11.9,5.3-25.8,7.9-41.8,7.9H477v53.3h-34.3V291.6h76C534.7,291.6,548.6,294.3,560.5,299.5z
	 M551.1,384.5c7.7-6.3,11.6-15.4,11.6-27.2s-3.9-20.9-11.6-27.2c-7.7-6.3-19.1-9.5-34.1-9.5H477V394h40.1
	C532,394,543.4,390.9,551.1,384.5z"/>
<path class="st0" d="M662.2,464.5c-14.6-7.9-26-18.9-34.3-32.9c-8.3-14-12.4-29.8-12.4-47.3c0-17.6,4.2-33.3,12.5-47.3
	c8.4-14,19.8-24.9,34.4-32.9c14.6-7.9,30.9-11.9,49-11.9c14.7,0,28,2.6,40.2,7.7s22.3,12.5,30.7,22.3l-21.5,20.2
	c-13-14-28.9-21-47.8-21c-12.3,0-23.3,2.7-33,8.1c-9.7,5.4-17.3,12.8-22.8,22.4c-5.5,9.6-8.2,20.4-8.2,32.5
	c0,12.1,2.7,22.9,8.2,32.5c5.5,9.6,13,17,22.8,22.4c9.7,5.4,20.7,8.1,33,8.1c18.9,0,34.9-7.1,47.8-21.2l21.5,20.5
	c-8.4,9.7-18.6,17.1-30.8,22.3c-12.2,5.1-25.6,7.7-40.3,7.7C693.1,476.4,676.8,472.5,662.2,464.5z"/>
<circle class="st0" cx="884.5" cy="357.2" r="17.9"/>
<circle class="st0" cx="827.2" cy="357.2" r="17.9"/>
<circle class="st0" cx="769.8" cy="383.6" r="17.9"/>
<circle class="st0" cx="712.2" cy="383.6" r="17.9"/>
<circle class="st0" cx="942.1" cy="320.9" r="17.9"/>
<rect x="766" y="366.1" transform="matrix(0.9066 -0.422 0.422 0.9066 -81.8972 371.3073)" class="st0" width="63.5" height="9"/>
<rect x="881.9" y="334.4" transform="matrix(0.8425 -0.5387 0.5387 0.8425 -38.6243 545.6223)" class="st0" width="63.5" height="9"/>
<rect x="711.4" y="379.1" class="st0" width="57.5" height="9"/>
<rect x="825.8" y="352.7" class="st0" width="57.5" height="9"/>
</svg>
